<mxfile host="Electron" modified="2024-07-20T21:55:55.898Z" agent="Mozilla/5.0 (Windows NT 10.0; Win64; x64) AppleWebKit/537.36 (KHTML, like Gecko) draw.io/24.4.8 Chrome/124.0.6367.207 Electron/30.0.6 Safari/537.36" etag="yE7AG6nluWgomQZSzYdy" version="24.4.8" type="device">
  <diagram name="Page-1" id="KZN-zyBD-0XipZeYQRDT">
    <mxGraphModel dx="568" dy="326" grid="1" gridSize="10" guides="1" tooltips="1" connect="1" arrows="1" fold="1" page="1" pageScale="1" pageWidth="500" pageHeight="200" math="0" shadow="0">
      <root>
        <mxCell id="0" />
        <mxCell id="1" parent="0" />
        <mxCell id="-N0VSSiV7TkP5NyyHV97-4" value="" style="group" parent="1" vertex="1" connectable="0">
          <mxGeometry x="9" y="78" width="482.6" height="44.45" as="geometry" />
        </mxCell>
        <mxCell id="PZP4gdgeWaH-fIwLRfgN-368" value="28" style="rounded=0;whiteSpace=wrap;html=1;fillColor=#C5C5C5;strokeColor=#B5B5B5;glass=0;aspect=fixed;container=0;" parent="-N0VSSiV7TkP5NyyHV97-4" vertex="1">
          <mxGeometry width="482.6" height="44.45" as="geometry" />
        </mxCell>
        <mxCell id="PZP4gdgeWaH-fIwLRfgN-369" value="" style="rounded=0;whiteSpace=wrap;html=1;fillColor=#C5C5C5;strokeColor=#B5B5B5;glass=0;aspect=fixed;container=0;" parent="-N0VSSiV7TkP5NyyHV97-4" vertex="1">
          <mxGeometry x="18" width="446.6" height="44.45" as="geometry" />
        </mxCell>
        <mxCell id="8-Y4Epgb5bJB_0jupaL6-1" value="" style="group;strokeColor=#222222;rounded=1;arcSize=50;container=0;" parent="-N0VSSiV7TkP5NyyHV97-4" vertex="1" connectable="0">
          <mxGeometry x="468.6" y="3" width="10" height="6" as="geometry" />
        </mxCell>
        <mxCell id="8-Y4Epgb5bJB_0jupaL6-2" value="" style="group;rounded=1;strokeColor=#222222;arcSize=50;container=0;" parent="-N0VSSiV7TkP5NyyHV97-4" vertex="1" connectable="0">
          <mxGeometry x="468.6" y="35.45" width="10" height="6" as="geometry" />
        </mxCell>
        <mxCell id="8-Y4Epgb5bJB_0jupaL6-3" value="" style="group;rounded=1;strokeColor=#222222;arcSize=50;container=0;" parent="-N0VSSiV7TkP5NyyHV97-4" vertex="1" connectable="0">
          <mxGeometry x="4" y="3" width="10" height="6" as="geometry" />
        </mxCell>
        <mxCell id="8-Y4Epgb5bJB_0jupaL6-4" value="" style="group;strokeColor=#222222;rounded=1;arcSize=50;container=0;" parent="-N0VSSiV7TkP5NyyHV97-4" vertex="1" connectable="0">
          <mxGeometry x="4" y="35.45" width="10" height="6" as="geometry" />
        </mxCell>
        <mxCell id="dPUykWXNvH8D_2w4ptwh-170" value="26" style="text;html=1;align=center;verticalAlign=middle;whiteSpace=wrap;rounded=0;fontSize=3;container=0;fontColor=#000000;" parent="-N0VSSiV7TkP5NyyHV97-4" vertex="1">
          <mxGeometry x="242.3" y="37.22999999999999" width="12" height="5" as="geometry" />
        </mxCell>
        <mxCell id="dPUykWXNvH8D_2w4ptwh-171" value="28" style="text;html=1;align=center;verticalAlign=middle;whiteSpace=wrap;rounded=0;fontSize=3;container=0;fontColor=#000000;" parent="-N0VSSiV7TkP5NyyHV97-4" vertex="1">
          <mxGeometry x="255.3" y="37.22999999999999" width="12" height="5" as="geometry" />
        </mxCell>
        <mxCell id="dPUykWXNvH8D_2w4ptwh-172" value="30" style="text;html=1;align=center;verticalAlign=middle;whiteSpace=wrap;rounded=0;fontSize=3;container=0;fontColor=#000000;" parent="-N0VSSiV7TkP5NyyHV97-4" vertex="1">
          <mxGeometry x="268.3" y="37.22999999999999" width="12" height="5" as="geometry" />
        </mxCell>
        <mxCell id="dPUykWXNvH8D_2w4ptwh-173" value="32" style="text;html=1;align=center;verticalAlign=middle;whiteSpace=wrap;rounded=0;fontSize=3;container=0;fontColor=#000000;" parent="-N0VSSiV7TkP5NyyHV97-4" vertex="1">
          <mxGeometry x="281.3" y="37.22999999999999" width="12" height="5" as="geometry" />
        </mxCell>
        <mxCell id="dPUykWXNvH8D_2w4ptwh-174" value="34" style="text;html=1;align=center;verticalAlign=middle;whiteSpace=wrap;rounded=0;fontSize=3;container=0;fontColor=#000000;" parent="-N0VSSiV7TkP5NyyHV97-4" vertex="1">
          <mxGeometry x="294.3" y="37.22999999999999" width="12" height="5" as="geometry" />
        </mxCell>
        <mxCell id="dPUykWXNvH8D_2w4ptwh-175" value="36" style="text;html=1;align=center;verticalAlign=middle;whiteSpace=wrap;rounded=0;fontSize=3;container=0;fontColor=#000000;" parent="-N0VSSiV7TkP5NyyHV97-4" vertex="1">
          <mxGeometry x="307.3" y="37.22999999999999" width="12" height="5" as="geometry" />
        </mxCell>
        <mxCell id="dPUykWXNvH8D_2w4ptwh-176" value="25" style="text;html=1;align=center;verticalAlign=middle;whiteSpace=wrap;rounded=0;fontSize=3;container=0;fontColor=#000000;" parent="-N0VSSiV7TkP5NyyHV97-4" vertex="1">
          <mxGeometry x="242.3" y="2.230000000000004" width="12" height="5" as="geometry" />
        </mxCell>
        <mxCell id="dPUykWXNvH8D_2w4ptwh-177" value="27" style="text;html=1;align=center;verticalAlign=middle;whiteSpace=wrap;rounded=0;fontSize=3;container=0;fontColor=#000000;" parent="-N0VSSiV7TkP5NyyHV97-4" vertex="1">
          <mxGeometry x="255.3" y="2.230000000000004" width="12" height="5" as="geometry" />
        </mxCell>
        <mxCell id="dPUykWXNvH8D_2w4ptwh-178" value="29" style="text;html=1;align=center;verticalAlign=middle;whiteSpace=wrap;rounded=0;fontSize=3;container=0;fontColor=#000000;" parent="-N0VSSiV7TkP5NyyHV97-4" vertex="1">
          <mxGeometry x="268.3" y="2.230000000000004" width="12" height="5" as="geometry" />
        </mxCell>
        <mxCell id="dPUykWXNvH8D_2w4ptwh-179" value="31" style="text;html=1;align=center;verticalAlign=middle;whiteSpace=wrap;rounded=0;fontSize=3;container=0;fontColor=#000000;" parent="-N0VSSiV7TkP5NyyHV97-4" vertex="1">
          <mxGeometry x="281.3" y="2.230000000000004" width="12" height="5" as="geometry" />
        </mxCell>
        <mxCell id="dPUykWXNvH8D_2w4ptwh-180" value="33" style="text;html=1;align=center;verticalAlign=middle;whiteSpace=wrap;rounded=0;fontSize=3;container=0;fontColor=#000000;" parent="-N0VSSiV7TkP5NyyHV97-4" vertex="1">
          <mxGeometry x="294.3" y="2.230000000000004" width="12" height="5" as="geometry" />
        </mxCell>
        <mxCell id="dPUykWXNvH8D_2w4ptwh-181" value="35" style="text;html=1;align=center;verticalAlign=middle;whiteSpace=wrap;rounded=0;fontSize=3;container=0;fontColor=#000000;" parent="-N0VSSiV7TkP5NyyHV97-4" vertex="1">
          <mxGeometry x="307.3" y="2.230000000000004" width="12" height="5" as="geometry" />
        </mxCell>
        <mxCell id="dPUykWXNvH8D_2w4ptwh-1" value="" style="rounded=0;whiteSpace=wrap;html=1;strokeColor=#000000;fillColor=#BFBFBF;fontColor=#ffffff;strokeWidth=0.1;fontSize=3;fontFamily=Teko Light;align=center;verticalAlign=middle;container=0;" parent="-N0VSSiV7TkP5NyyHV97-4" vertex="1">
          <mxGeometry x="321.3" y="8.230000000000004" width="81" height="28" as="geometry" />
        </mxCell>
        <mxCell id="dPUykWXNvH8D_2w4ptwh-82" value="" style="rounded=0;whiteSpace=wrap;html=1;strokeColor=none;fillColor=#222222;fontColor=#ffffff;strokeWidth=0.1;fontSize=3;fontFamily=Teko Light;container=0;rotation=-180;" parent="-N0VSSiV7TkP5NyyHV97-4" vertex="1">
          <mxGeometry x="349.3" y="30.22999999999999" width="12" height="5" as="geometry" />
        </mxCell>
        <mxCell id="dPUykWXNvH8D_2w4ptwh-83" value="" style="rounded=0;whiteSpace=wrap;html=1;strokeColor=none;fillColor=#000000;fontColor=#ffffff;strokeWidth=0.1;fontSize=3;fontFamily=Teko Light;container=0;rotation=-180;" parent="-N0VSSiV7TkP5NyyHV97-4" vertex="1">
          <mxGeometry x="349.3" y="24.22999999999999" width="12" height="7" as="geometry" />
        </mxCell>
        <mxCell id="dPUykWXNvH8D_2w4ptwh-84" value="" style="rounded=0;whiteSpace=wrap;html=1;strokeColor=none;fillColor=#000000;fontColor=#ffffff;strokeWidth=0.1;fontSize=3;fontFamily=Teko Light;container=0;rotation=-180;" parent="-N0VSSiV7TkP5NyyHV97-4" vertex="1">
          <mxGeometry x="352.8" y="30.22999999999999" width="5" height="4" as="geometry" />
        </mxCell>
        <mxCell id="dPUykWXNvH8D_2w4ptwh-85" value="" style="rounded=0;whiteSpace=wrap;html=1;strokeColor=none;fillColor=#60a917;fontColor=#ffffff;strokeWidth=0.1;fontSize=3;fontFamily=Teko Light;container=0;rotation=-180;" parent="-N0VSSiV7TkP5NyyHV97-4" vertex="1">
          <mxGeometry x="358.3" y="32.22999999999999" width="3" height="2" as="geometry" />
        </mxCell>
        <mxCell id="dPUykWXNvH8D_2w4ptwh-86" value="" style="rounded=0;whiteSpace=wrap;html=1;strokeColor=none;fillColor=#e3c800;fontColor=#000000;strokeWidth=0.1;fontSize=3;fontFamily=Teko Light;container=0;rotation=-180;" parent="-N0VSSiV7TkP5NyyHV97-4" vertex="1">
          <mxGeometry x="349.3" y="32.22999999999999" width="3" height="2" as="geometry" />
        </mxCell>
        <mxCell id="dPUykWXNvH8D_2w4ptwh-37" value="" style="rounded=0;whiteSpace=wrap;html=1;strokeColor=none;fillColor=#222222;fontColor=#ffffff;strokeWidth=0.1;fontSize=3;fontFamily=Teko Light;container=0;" parent="-N0VSSiV7TkP5NyyHV97-4" vertex="1">
          <mxGeometry x="323.29857142857145" y="9.227576744186067" width="12" height="5" as="geometry" />
        </mxCell>
        <mxCell id="dPUykWXNvH8D_2w4ptwh-10" value="" style="rounded=0;whiteSpace=wrap;html=1;strokeColor=none;fillColor=#000000;fontColor=#ffffff;strokeWidth=0.1;fontSize=3;fontFamily=Teko Light;container=0;" parent="-N0VSSiV7TkP5NyyHV97-4" vertex="1">
          <mxGeometry x="323.2971428571429" y="13.231074995060638" width="12" height="7" as="geometry" />
        </mxCell>
        <mxCell id="dPUykWXNvH8D_2w4ptwh-11" value="" style="rounded=0;whiteSpace=wrap;html=1;strokeColor=none;fillColor=#000000;fontColor=#ffffff;strokeWidth=0.1;fontSize=3;fontFamily=Teko Light;container=0;" parent="-N0VSSiV7TkP5NyyHV97-4" vertex="1">
          <mxGeometry x="326.8" y="10.230000000000004" width="5" height="4" as="geometry" />
        </mxCell>
        <mxCell id="dPUykWXNvH8D_2w4ptwh-18" value="" style="rounded=0;whiteSpace=wrap;html=1;strokeColor=none;fillColor=#60a917;fontColor=#ffffff;strokeWidth=0.1;fontSize=3;fontFamily=Teko Light;container=0;" parent="-N0VSSiV7TkP5NyyHV97-4" vertex="1">
          <mxGeometry x="323.3" y="10.730000000000004" width="3" height="2" as="geometry" />
        </mxCell>
        <mxCell id="dPUykWXNvH8D_2w4ptwh-19" value="" style="rounded=0;whiteSpace=wrap;html=1;strokeColor=none;fillColor=#e3c800;fontColor=#000000;strokeWidth=0.1;fontSize=3;fontFamily=Teko Light;container=0;" parent="-N0VSSiV7TkP5NyyHV97-4" vertex="1">
          <mxGeometry x="332.3" y="10.730000000000004" width="3" height="2" as="geometry" />
        </mxCell>
        <mxCell id="dPUykWXNvH8D_2w4ptwh-40" value="" style="rounded=0;whiteSpace=wrap;html=1;strokeColor=none;fillColor=#222222;fontColor=#ffffff;strokeWidth=0.1;fontSize=3;fontFamily=Teko Light;container=0;" parent="-N0VSSiV7TkP5NyyHV97-4" vertex="1">
          <mxGeometry x="336.29857142857145" y="9.227576744186067" width="12" height="5" as="geometry" />
        </mxCell>
        <mxCell id="dPUykWXNvH8D_2w4ptwh-41" value="" style="rounded=0;whiteSpace=wrap;html=1;strokeColor=none;fillColor=#000000;fontColor=#ffffff;strokeWidth=0.1;fontSize=3;fontFamily=Teko Light;container=0;" parent="-N0VSSiV7TkP5NyyHV97-4" vertex="1">
          <mxGeometry x="336.2971428571429" y="13.231074995060638" width="12" height="7" as="geometry" />
        </mxCell>
        <mxCell id="dPUykWXNvH8D_2w4ptwh-42" value="" style="rounded=0;whiteSpace=wrap;html=1;strokeColor=none;fillColor=#000000;fontColor=#ffffff;strokeWidth=0.1;fontSize=3;fontFamily=Teko Light;container=0;" parent="-N0VSSiV7TkP5NyyHV97-4" vertex="1">
          <mxGeometry x="339.8" y="10.230000000000004" width="5" height="4" as="geometry" />
        </mxCell>
        <mxCell id="dPUykWXNvH8D_2w4ptwh-43" value="" style="rounded=0;whiteSpace=wrap;html=1;strokeColor=none;fillColor=#60a917;fontColor=#ffffff;strokeWidth=0.1;fontSize=3;fontFamily=Teko Light;container=0;" parent="-N0VSSiV7TkP5NyyHV97-4" vertex="1">
          <mxGeometry x="336.3" y="10.730000000000004" width="3" height="2" as="geometry" />
        </mxCell>
        <mxCell id="dPUykWXNvH8D_2w4ptwh-44" value="" style="rounded=0;whiteSpace=wrap;html=1;strokeColor=none;fillColor=#e3c800;fontColor=#000000;strokeWidth=0.1;fontSize=3;fontFamily=Teko Light;container=0;" parent="-N0VSSiV7TkP5NyyHV97-4" vertex="1">
          <mxGeometry x="345.3" y="10.730000000000004" width="3" height="2" as="geometry" />
        </mxCell>
        <mxCell id="dPUykWXNvH8D_2w4ptwh-46" value="" style="rounded=0;whiteSpace=wrap;html=1;strokeColor=none;fillColor=#222222;fontColor=#ffffff;strokeWidth=0.1;fontSize=3;fontFamily=Teko Light;container=0;" parent="-N0VSSiV7TkP5NyyHV97-4" vertex="1">
          <mxGeometry x="349.29857142857145" y="9.227576744186067" width="12" height="5" as="geometry" />
        </mxCell>
        <mxCell id="dPUykWXNvH8D_2w4ptwh-47" value="" style="rounded=0;whiteSpace=wrap;html=1;strokeColor=none;fillColor=#000000;fontColor=#ffffff;strokeWidth=0.1;fontSize=3;fontFamily=Teko Light;container=0;" parent="-N0VSSiV7TkP5NyyHV97-4" vertex="1">
          <mxGeometry x="349.2971428571429" y="13.231074995060638" width="12" height="7" as="geometry" />
        </mxCell>
        <mxCell id="dPUykWXNvH8D_2w4ptwh-48" value="" style="rounded=0;whiteSpace=wrap;html=1;strokeColor=none;fillColor=#000000;fontColor=#ffffff;strokeWidth=0.1;fontSize=3;fontFamily=Teko Light;container=0;" parent="-N0VSSiV7TkP5NyyHV97-4" vertex="1">
          <mxGeometry x="352.8" y="10.230000000000004" width="5" height="4" as="geometry" />
        </mxCell>
        <mxCell id="dPUykWXNvH8D_2w4ptwh-49" value="" style="rounded=0;whiteSpace=wrap;html=1;strokeColor=none;fillColor=#60a917;fontColor=#ffffff;strokeWidth=0.1;fontSize=3;fontFamily=Teko Light;container=0;" parent="-N0VSSiV7TkP5NyyHV97-4" vertex="1">
          <mxGeometry x="349.3" y="10.730000000000004" width="3" height="2" as="geometry" />
        </mxCell>
        <mxCell id="dPUykWXNvH8D_2w4ptwh-50" value="" style="rounded=0;whiteSpace=wrap;html=1;strokeColor=none;fillColor=#e3c800;fontColor=#000000;strokeWidth=0.1;fontSize=3;fontFamily=Teko Light;container=0;" parent="-N0VSSiV7TkP5NyyHV97-4" vertex="1">
          <mxGeometry x="358.3" y="10.730000000000004" width="3" height="2" as="geometry" />
        </mxCell>
        <mxCell id="dPUykWXNvH8D_2w4ptwh-52" value="" style="rounded=0;whiteSpace=wrap;html=1;strokeColor=none;fillColor=#222222;fontColor=#ffffff;strokeWidth=0.1;fontSize=3;fontFamily=Teko Light;container=0;" parent="-N0VSSiV7TkP5NyyHV97-4" vertex="1">
          <mxGeometry x="362.29857142857145" y="9.227576744186067" width="12" height="5" as="geometry" />
        </mxCell>
        <mxCell id="dPUykWXNvH8D_2w4ptwh-53" value="" style="rounded=0;whiteSpace=wrap;html=1;strokeColor=none;fillColor=#000000;fontColor=#ffffff;strokeWidth=0.1;fontSize=3;fontFamily=Teko Light;container=0;" parent="-N0VSSiV7TkP5NyyHV97-4" vertex="1">
          <mxGeometry x="362.2971428571429" y="13.231074995060638" width="12" height="7" as="geometry" />
        </mxCell>
        <mxCell id="dPUykWXNvH8D_2w4ptwh-54" value="" style="rounded=0;whiteSpace=wrap;html=1;strokeColor=none;fillColor=#000000;fontColor=#ffffff;strokeWidth=0.1;fontSize=3;fontFamily=Teko Light;container=0;" parent="-N0VSSiV7TkP5NyyHV97-4" vertex="1">
          <mxGeometry x="365.8" y="10.230000000000004" width="5" height="4" as="geometry" />
        </mxCell>
        <mxCell id="dPUykWXNvH8D_2w4ptwh-55" value="" style="rounded=0;whiteSpace=wrap;html=1;strokeColor=none;fillColor=#60a917;fontColor=#ffffff;strokeWidth=0.1;fontSize=3;fontFamily=Teko Light;container=0;" parent="-N0VSSiV7TkP5NyyHV97-4" vertex="1">
          <mxGeometry x="362.3" y="10.730000000000004" width="3" height="2" as="geometry" />
        </mxCell>
        <mxCell id="dPUykWXNvH8D_2w4ptwh-56" value="" style="rounded=0;whiteSpace=wrap;html=1;strokeColor=none;fillColor=#e3c800;fontColor=#000000;strokeWidth=0.1;fontSize=3;fontFamily=Teko Light;container=0;" parent="-N0VSSiV7TkP5NyyHV97-4" vertex="1">
          <mxGeometry x="371.3" y="10.730000000000004" width="3" height="2" as="geometry" />
        </mxCell>
        <mxCell id="dPUykWXNvH8D_2w4ptwh-58" value="" style="rounded=0;whiteSpace=wrap;html=1;strokeColor=none;fillColor=#222222;fontColor=#ffffff;strokeWidth=0.1;fontSize=3;fontFamily=Teko Light;container=0;" parent="-N0VSSiV7TkP5NyyHV97-4" vertex="1">
          <mxGeometry x="388.29857142857145" y="9.227576744186067" width="12" height="5" as="geometry" />
        </mxCell>
        <mxCell id="dPUykWXNvH8D_2w4ptwh-59" value="" style="rounded=0;whiteSpace=wrap;html=1;strokeColor=none;fillColor=#000000;fontColor=#ffffff;strokeWidth=0.1;fontSize=3;fontFamily=Teko Light;container=0;" parent="-N0VSSiV7TkP5NyyHV97-4" vertex="1">
          <mxGeometry x="388.2971428571429" y="13.231074995060638" width="12" height="7" as="geometry" />
        </mxCell>
        <mxCell id="dPUykWXNvH8D_2w4ptwh-60" value="" style="rounded=0;whiteSpace=wrap;html=1;strokeColor=none;fillColor=#000000;fontColor=#ffffff;strokeWidth=0.1;fontSize=3;fontFamily=Teko Light;container=0;" parent="-N0VSSiV7TkP5NyyHV97-4" vertex="1">
          <mxGeometry x="391.8" y="10.230000000000004" width="5" height="4" as="geometry" />
        </mxCell>
        <mxCell id="dPUykWXNvH8D_2w4ptwh-61" value="" style="rounded=0;whiteSpace=wrap;html=1;strokeColor=none;fillColor=#60a917;fontColor=#ffffff;strokeWidth=0.1;fontSize=3;fontFamily=Teko Light;container=0;" parent="-N0VSSiV7TkP5NyyHV97-4" vertex="1">
          <mxGeometry x="388.3" y="10.730000000000004" width="3" height="2" as="geometry" />
        </mxCell>
        <mxCell id="dPUykWXNvH8D_2w4ptwh-62" value="" style="rounded=0;whiteSpace=wrap;html=1;strokeColor=none;fillColor=#e3c800;fontColor=#000000;strokeWidth=0.1;fontSize=3;fontFamily=Teko Light;container=0;" parent="-N0VSSiV7TkP5NyyHV97-4" vertex="1">
          <mxGeometry x="397.3" y="10.730000000000004" width="3" height="2" as="geometry" />
        </mxCell>
        <mxCell id="dPUykWXNvH8D_2w4ptwh-64" value="" style="rounded=0;whiteSpace=wrap;html=1;strokeColor=none;fillColor=#222222;fontColor=#ffffff;strokeWidth=0.1;fontSize=3;fontFamily=Teko Light;container=0;" parent="-N0VSSiV7TkP5NyyHV97-4" vertex="1">
          <mxGeometry x="375.29857142857145" y="9.227576744186067" width="12" height="5" as="geometry" />
        </mxCell>
        <mxCell id="dPUykWXNvH8D_2w4ptwh-65" value="" style="rounded=0;whiteSpace=wrap;html=1;strokeColor=none;fillColor=#000000;fontColor=#ffffff;strokeWidth=0.1;fontSize=3;fontFamily=Teko Light;container=0;" parent="-N0VSSiV7TkP5NyyHV97-4" vertex="1">
          <mxGeometry x="375.2971428571429" y="13.231074995060638" width="12" height="7" as="geometry" />
        </mxCell>
        <mxCell id="dPUykWXNvH8D_2w4ptwh-66" value="" style="rounded=0;whiteSpace=wrap;html=1;strokeColor=none;fillColor=#000000;fontColor=#ffffff;strokeWidth=0.1;fontSize=3;fontFamily=Teko Light;container=0;" parent="-N0VSSiV7TkP5NyyHV97-4" vertex="1">
          <mxGeometry x="378.8" y="10.230000000000004" width="5" height="4" as="geometry" />
        </mxCell>
        <mxCell id="dPUykWXNvH8D_2w4ptwh-67" value="" style="rounded=0;whiteSpace=wrap;html=1;strokeColor=none;fillColor=#60a917;fontColor=#ffffff;strokeWidth=0.1;fontSize=3;fontFamily=Teko Light;container=0;" parent="-N0VSSiV7TkP5NyyHV97-4" vertex="1">
          <mxGeometry x="375.3" y="10.730000000000004" width="3" height="2" as="geometry" />
        </mxCell>
        <mxCell id="dPUykWXNvH8D_2w4ptwh-68" value="" style="rounded=0;whiteSpace=wrap;html=1;strokeColor=none;fillColor=#e3c800;fontColor=#000000;strokeWidth=0.1;fontSize=3;fontFamily=Teko Light;container=0;" parent="-N0VSSiV7TkP5NyyHV97-4" vertex="1">
          <mxGeometry x="384.3" y="10.730000000000004" width="3" height="2" as="geometry" />
        </mxCell>
        <mxCell id="dPUykWXNvH8D_2w4ptwh-70" value="" style="rounded=0;whiteSpace=wrap;html=1;strokeColor=none;fillColor=#222222;fontColor=#ffffff;strokeWidth=0.1;fontSize=3;fontFamily=Teko Light;container=0;rotation=-180;" parent="-N0VSSiV7TkP5NyyHV97-4" vertex="1">
          <mxGeometry x="323.2971428571429" y="30.227576744186052" width="12" height="5" as="geometry" />
        </mxCell>
        <mxCell id="dPUykWXNvH8D_2w4ptwh-71" value="" style="rounded=0;whiteSpace=wrap;html=1;strokeColor=none;fillColor=#000000;fontColor=#ffffff;strokeWidth=0.1;fontSize=3;fontFamily=Teko Light;container=0;rotation=-180;" parent="-N0VSSiV7TkP5NyyHV97-4" vertex="1">
          <mxGeometry x="323.2971428571429" y="24.227576744186052" width="12" height="7" as="geometry" />
        </mxCell>
        <mxCell id="dPUykWXNvH8D_2w4ptwh-72" value="" style="rounded=0;whiteSpace=wrap;html=1;strokeColor=none;fillColor=#000000;fontColor=#ffffff;strokeWidth=0.1;fontSize=3;fontFamily=Teko Light;container=0;rotation=-180;" parent="-N0VSSiV7TkP5NyyHV97-4" vertex="1">
          <mxGeometry x="326.7971428571429" y="30.227576744186052" width="5" height="4" as="geometry" />
        </mxCell>
        <mxCell id="dPUykWXNvH8D_2w4ptwh-73" value="" style="rounded=0;whiteSpace=wrap;html=1;strokeColor=none;fillColor=#60a917;fontColor=#ffffff;strokeWidth=0.1;fontSize=3;fontFamily=Teko Light;container=0;rotation=-180;" parent="-N0VSSiV7TkP5NyyHV97-4" vertex="1">
          <mxGeometry x="332.2971428571429" y="32.22757674418605" width="3" height="2" as="geometry" />
        </mxCell>
        <mxCell id="dPUykWXNvH8D_2w4ptwh-74" value="" style="rounded=0;whiteSpace=wrap;html=1;strokeColor=none;fillColor=#e3c800;fontColor=#000000;strokeWidth=0.1;fontSize=3;fontFamily=Teko Light;container=0;rotation=-180;" parent="-N0VSSiV7TkP5NyyHV97-4" vertex="1">
          <mxGeometry x="323.2971428571429" y="32.22757674418605" width="3" height="2" as="geometry" />
        </mxCell>
        <mxCell id="dPUykWXNvH8D_2w4ptwh-76" value="" style="rounded=0;whiteSpace=wrap;html=1;strokeColor=none;fillColor=#222222;fontColor=#ffffff;strokeWidth=0.1;fontSize=3;fontFamily=Teko Light;container=0;rotation=-180;" parent="-N0VSSiV7TkP5NyyHV97-4" vertex="1">
          <mxGeometry x="336.3" y="30.22999999999999" width="12" height="5" as="geometry" />
        </mxCell>
        <mxCell id="dPUykWXNvH8D_2w4ptwh-77" value="" style="rounded=0;whiteSpace=wrap;html=1;strokeColor=none;fillColor=#000000;fontColor=#ffffff;strokeWidth=0.1;fontSize=3;fontFamily=Teko Light;container=0;rotation=-180;" parent="-N0VSSiV7TkP5NyyHV97-4" vertex="1">
          <mxGeometry x="336.3" y="24.22999999999999" width="12" height="7" as="geometry" />
        </mxCell>
        <mxCell id="dPUykWXNvH8D_2w4ptwh-78" value="" style="rounded=0;whiteSpace=wrap;html=1;strokeColor=none;fillColor=#000000;fontColor=#ffffff;strokeWidth=0.1;fontSize=3;fontFamily=Teko Light;container=0;rotation=-180;" parent="-N0VSSiV7TkP5NyyHV97-4" vertex="1">
          <mxGeometry x="339.8" y="30.22999999999999" width="5" height="4" as="geometry" />
        </mxCell>
        <mxCell id="dPUykWXNvH8D_2w4ptwh-79" value="" style="rounded=0;whiteSpace=wrap;html=1;strokeColor=none;fillColor=#60a917;fontColor=#ffffff;strokeWidth=0.1;fontSize=3;fontFamily=Teko Light;container=0;rotation=-180;" parent="-N0VSSiV7TkP5NyyHV97-4" vertex="1">
          <mxGeometry x="345.3" y="32.22999999999999" width="3" height="2" as="geometry" />
        </mxCell>
        <mxCell id="dPUykWXNvH8D_2w4ptwh-80" value="" style="rounded=0;whiteSpace=wrap;html=1;strokeColor=none;fillColor=#e3c800;fontColor=#000000;strokeWidth=0.1;fontSize=3;fontFamily=Teko Light;container=0;rotation=-180;" parent="-N0VSSiV7TkP5NyyHV97-4" vertex="1">
          <mxGeometry x="336.3" y="32.22999999999999" width="3" height="2" as="geometry" />
        </mxCell>
        <mxCell id="dPUykWXNvH8D_2w4ptwh-88" value="" style="rounded=0;whiteSpace=wrap;html=1;strokeColor=none;fillColor=#222222;fontColor=#ffffff;strokeWidth=0.1;fontSize=3;fontFamily=Teko Light;container=0;rotation=-180;" parent="-N0VSSiV7TkP5NyyHV97-4" vertex="1">
          <mxGeometry x="362.3" y="30.22999999999999" width="12" height="5" as="geometry" />
        </mxCell>
        <mxCell id="dPUykWXNvH8D_2w4ptwh-89" value="" style="rounded=0;whiteSpace=wrap;html=1;strokeColor=none;fillColor=#000000;fontColor=#ffffff;strokeWidth=0.1;fontSize=3;fontFamily=Teko Light;container=0;rotation=-180;" parent="-N0VSSiV7TkP5NyyHV97-4" vertex="1">
          <mxGeometry x="362.3" y="24.22999999999999" width="12" height="7" as="geometry" />
        </mxCell>
        <mxCell id="dPUykWXNvH8D_2w4ptwh-90" value="" style="rounded=0;whiteSpace=wrap;html=1;strokeColor=none;fillColor=#000000;fontColor=#ffffff;strokeWidth=0.1;fontSize=3;fontFamily=Teko Light;container=0;rotation=-180;" parent="-N0VSSiV7TkP5NyyHV97-4" vertex="1">
          <mxGeometry x="365.8" y="30.22999999999999" width="5" height="4" as="geometry" />
        </mxCell>
        <mxCell id="dPUykWXNvH8D_2w4ptwh-91" value="" style="rounded=0;whiteSpace=wrap;html=1;strokeColor=none;fillColor=#60a917;fontColor=#ffffff;strokeWidth=0.1;fontSize=3;fontFamily=Teko Light;container=0;rotation=-180;" parent="-N0VSSiV7TkP5NyyHV97-4" vertex="1">
          <mxGeometry x="371.3" y="32.22999999999999" width="3" height="2" as="geometry" />
        </mxCell>
        <mxCell id="dPUykWXNvH8D_2w4ptwh-92" value="" style="rounded=0;whiteSpace=wrap;html=1;strokeColor=none;fillColor=#e3c800;fontColor=#000000;strokeWidth=0.1;fontSize=3;fontFamily=Teko Light;container=0;rotation=-180;" parent="-N0VSSiV7TkP5NyyHV97-4" vertex="1">
          <mxGeometry x="362.3" y="32.22999999999999" width="3" height="2" as="geometry" />
        </mxCell>
        <mxCell id="dPUykWXNvH8D_2w4ptwh-94" value="" style="rounded=0;whiteSpace=wrap;html=1;strokeColor=none;fillColor=#222222;fontColor=#ffffff;strokeWidth=0.1;fontSize=3;fontFamily=Teko Light;container=0;rotation=-180;" parent="-N0VSSiV7TkP5NyyHV97-4" vertex="1">
          <mxGeometry x="388.2971428571429" y="30.22999999999999" width="12" height="5" as="geometry" />
        </mxCell>
        <mxCell id="dPUykWXNvH8D_2w4ptwh-95" value="" style="rounded=0;whiteSpace=wrap;html=1;strokeColor=none;fillColor=#000000;fontColor=#ffffff;strokeWidth=0.1;fontSize=3;fontFamily=Teko Light;container=0;rotation=-180;" parent="-N0VSSiV7TkP5NyyHV97-4" vertex="1">
          <mxGeometry x="388.2971428571429" y="24.22999999999999" width="12" height="7" as="geometry" />
        </mxCell>
        <mxCell id="dPUykWXNvH8D_2w4ptwh-96" value="" style="rounded=0;whiteSpace=wrap;html=1;strokeColor=none;fillColor=#000000;fontColor=#ffffff;strokeWidth=0.1;fontSize=3;fontFamily=Teko Light;container=0;rotation=-180;" parent="-N0VSSiV7TkP5NyyHV97-4" vertex="1">
          <mxGeometry x="391.7971428571429" y="30.22999999999999" width="5" height="4" as="geometry" />
        </mxCell>
        <mxCell id="dPUykWXNvH8D_2w4ptwh-97" value="" style="rounded=0;whiteSpace=wrap;html=1;strokeColor=none;fillColor=#60a917;fontColor=#ffffff;strokeWidth=0.1;fontSize=3;fontFamily=Teko Light;container=0;rotation=-180;" parent="-N0VSSiV7TkP5NyyHV97-4" vertex="1">
          <mxGeometry x="397.2971428571429" y="32.22999999999999" width="3" height="2" as="geometry" />
        </mxCell>
        <mxCell id="dPUykWXNvH8D_2w4ptwh-98" value="" style="rounded=0;whiteSpace=wrap;html=1;strokeColor=none;fillColor=#e3c800;fontColor=#000000;strokeWidth=0.1;fontSize=3;fontFamily=Teko Light;container=0;rotation=-180;" parent="-N0VSSiV7TkP5NyyHV97-4" vertex="1">
          <mxGeometry x="388.2971428571429" y="32.22999999999999" width="3" height="2" as="geometry" />
        </mxCell>
        <mxCell id="dPUykWXNvH8D_2w4ptwh-100" value="" style="rounded=0;whiteSpace=wrap;html=1;strokeColor=none;fillColor=#222222;fontColor=#ffffff;strokeWidth=0.1;fontSize=3;fontFamily=Teko Light;container=0;rotation=-180;" parent="-N0VSSiV7TkP5NyyHV97-4" vertex="1">
          <mxGeometry x="375.3" y="30.22999999999999" width="12" height="5" as="geometry" />
        </mxCell>
        <mxCell id="dPUykWXNvH8D_2w4ptwh-101" value="" style="rounded=0;whiteSpace=wrap;html=1;strokeColor=none;fillColor=#000000;fontColor=#ffffff;strokeWidth=0.1;fontSize=3;fontFamily=Teko Light;container=0;rotation=-180;" parent="-N0VSSiV7TkP5NyyHV97-4" vertex="1">
          <mxGeometry x="375.3" y="24.22999999999999" width="12" height="7" as="geometry" />
        </mxCell>
        <mxCell id="dPUykWXNvH8D_2w4ptwh-102" value="" style="rounded=0;whiteSpace=wrap;html=1;strokeColor=none;fillColor=#000000;fontColor=#ffffff;strokeWidth=0.1;fontSize=3;fontFamily=Teko Light;container=0;rotation=-180;" parent="-N0VSSiV7TkP5NyyHV97-4" vertex="1">
          <mxGeometry x="378.8" y="30.22999999999999" width="5" height="4" as="geometry" />
        </mxCell>
        <mxCell id="dPUykWXNvH8D_2w4ptwh-103" value="" style="rounded=0;whiteSpace=wrap;html=1;strokeColor=none;fillColor=#60a917;fontColor=#ffffff;strokeWidth=0.1;fontSize=3;fontFamily=Teko Light;container=0;rotation=-180;" parent="-N0VSSiV7TkP5NyyHV97-4" vertex="1">
          <mxGeometry x="384.3" y="32.22999999999999" width="3" height="2" as="geometry" />
        </mxCell>
        <mxCell id="dPUykWXNvH8D_2w4ptwh-104" value="" style="rounded=0;whiteSpace=wrap;html=1;strokeColor=none;fillColor=#e3c800;fontColor=#000000;strokeWidth=0.1;fontSize=3;fontFamily=Teko Light;container=0;rotation=-180;" parent="-N0VSSiV7TkP5NyyHV97-4" vertex="1">
          <mxGeometry x="375.3" y="32.22999999999999" width="3" height="2" as="geometry" />
        </mxCell>
        <mxCell id="dPUykWXNvH8D_2w4ptwh-244" value="38" style="text;html=1;align=center;verticalAlign=middle;whiteSpace=wrap;rounded=0;fontSize=3;container=0;fontColor=#000000;" parent="-N0VSSiV7TkP5NyyHV97-4" vertex="1">
          <mxGeometry x="323.3" y="37.22999999999999" width="12" height="5" as="geometry" />
        </mxCell>
        <mxCell id="dPUykWXNvH8D_2w4ptwh-245" value="40" style="text;html=1;align=center;verticalAlign=middle;whiteSpace=wrap;rounded=0;fontSize=3;container=0;fontColor=#000000;" parent="-N0VSSiV7TkP5NyyHV97-4" vertex="1">
          <mxGeometry x="336.3" y="37.22999999999999" width="12" height="5" as="geometry" />
        </mxCell>
        <mxCell id="dPUykWXNvH8D_2w4ptwh-246" value="42" style="text;html=1;align=center;verticalAlign=middle;whiteSpace=wrap;rounded=0;fontSize=3;container=0;fontColor=#000000;" parent="-N0VSSiV7TkP5NyyHV97-4" vertex="1">
          <mxGeometry x="349.3" y="37.22999999999999" width="12" height="5" as="geometry" />
        </mxCell>
        <mxCell id="dPUykWXNvH8D_2w4ptwh-247" value="44" style="text;html=1;align=center;verticalAlign=middle;whiteSpace=wrap;rounded=0;fontSize=3;container=0;fontColor=#000000;" parent="-N0VSSiV7TkP5NyyHV97-4" vertex="1">
          <mxGeometry x="362.3" y="37.22999999999999" width="12" height="5" as="geometry" />
        </mxCell>
        <mxCell id="dPUykWXNvH8D_2w4ptwh-248" value="46" style="text;html=1;align=center;verticalAlign=middle;whiteSpace=wrap;rounded=0;fontSize=3;container=0;fontColor=#000000;" parent="-N0VSSiV7TkP5NyyHV97-4" vertex="1">
          <mxGeometry x="375.3" y="37.22999999999999" width="12" height="5" as="geometry" />
        </mxCell>
        <mxCell id="dPUykWXNvH8D_2w4ptwh-249" value="48" style="text;html=1;align=center;verticalAlign=middle;whiteSpace=wrap;rounded=0;fontSize=3;container=0;fontColor=#000000;" parent="-N0VSSiV7TkP5NyyHV97-4" vertex="1">
          <mxGeometry x="388.3" y="37.22999999999999" width="12" height="5" as="geometry" />
        </mxCell>
        <mxCell id="dPUykWXNvH8D_2w4ptwh-250" value="37" style="text;html=1;align=center;verticalAlign=middle;whiteSpace=wrap;rounded=0;fontSize=3;container=0;fontColor=#000000;" parent="-N0VSSiV7TkP5NyyHV97-4" vertex="1">
          <mxGeometry x="323.3" y="2.2299999999999898" width="12" height="5" as="geometry" />
        </mxCell>
        <mxCell id="dPUykWXNvH8D_2w4ptwh-251" value="39" style="text;html=1;align=center;verticalAlign=middle;whiteSpace=wrap;rounded=0;fontSize=3;container=0;fontColor=#000000;" parent="-N0VSSiV7TkP5NyyHV97-4" vertex="1">
          <mxGeometry x="336.3" y="2.2299999999999898" width="12" height="5" as="geometry" />
        </mxCell>
        <mxCell id="dPUykWXNvH8D_2w4ptwh-252" value="41" style="text;html=1;align=center;verticalAlign=middle;whiteSpace=wrap;rounded=0;fontSize=3;container=0;fontColor=#000000;" parent="-N0VSSiV7TkP5NyyHV97-4" vertex="1">
          <mxGeometry x="349.3" y="2.2299999999999898" width="12" height="5" as="geometry" />
        </mxCell>
        <mxCell id="dPUykWXNvH8D_2w4ptwh-253" value="43" style="text;html=1;align=center;verticalAlign=middle;whiteSpace=wrap;rounded=0;fontSize=3;container=0;fontColor=#000000;" parent="-N0VSSiV7TkP5NyyHV97-4" vertex="1">
          <mxGeometry x="362.3" y="2.2299999999999898" width="12" height="5" as="geometry" />
        </mxCell>
        <mxCell id="dPUykWXNvH8D_2w4ptwh-254" value="45" style="text;html=1;align=center;verticalAlign=middle;whiteSpace=wrap;rounded=0;fontSize=3;container=0;fontColor=#000000;" parent="-N0VSSiV7TkP5NyyHV97-4" vertex="1">
          <mxGeometry x="375.3" y="2.2299999999999898" width="12" height="5" as="geometry" />
        </mxCell>
        <mxCell id="dPUykWXNvH8D_2w4ptwh-255" value="47" style="text;html=1;align=center;verticalAlign=middle;whiteSpace=wrap;rounded=0;fontSize=3;container=0;fontColor=#000000;" parent="-N0VSSiV7TkP5NyyHV97-4" vertex="1">
          <mxGeometry x="388.3" y="2.2299999999999898" width="12" height="5" as="geometry" />
        </mxCell>
        <mxCell id="dPUykWXNvH8D_2w4ptwh-319" value="" style="triangle;whiteSpace=wrap;html=1;fillColor=#60a917;fontColor=#ffffff;strokeColor=none;rotation=90;container=0;" parent="-N0VSSiV7TkP5NyyHV97-4" vertex="1">
          <mxGeometry x="450.3" y="21" width="2" height="3" as="geometry" />
        </mxCell>
        <mxCell id="dPUykWXNvH8D_2w4ptwh-320" value="" style="triangle;whiteSpace=wrap;html=1;fillColor=#60a917;fontColor=#ffffff;strokeColor=none;rotation=-90;container=0;" parent="-N0VSSiV7TkP5NyyHV97-4" vertex="1">
          <mxGeometry x="447.3" y="21" width="2" height="3" as="geometry" />
        </mxCell>
        <mxCell id="dPUykWXNvH8D_2w4ptwh-321" value="" style="triangle;whiteSpace=wrap;html=1;fillColor=default;fontColor=#ffffff;strokeColor=none;rotation=90;container=0;strokeWidth=0.2;" parent="-N0VSSiV7TkP5NyyHV97-4" vertex="1">
          <mxGeometry x="450.3" y="18" width="2" height="3" as="geometry" />
        </mxCell>
        <mxCell id="dPUykWXNvH8D_2w4ptwh-322" value="" style="triangle;whiteSpace=wrap;html=1;fillColor=default;fontColor=#ffffff;strokeColor=none;rotation=-90;container=0;strokeWidth=0.2;" parent="-N0VSSiV7TkP5NyyHV97-4" vertex="1">
          <mxGeometry x="447.3" y="18" width="2" height="3" as="geometry" />
        </mxCell>
        <mxCell id="dPUykWXNvH8D_2w4ptwh-323" value="1G" style="text;html=1;align=left;verticalAlign=middle;whiteSpace=wrap;rounded=0;fontSize=2;container=0;fontColor=#000000;" parent="-N0VSSiV7TkP5NyyHV97-4" vertex="1">
          <mxGeometry x="452.3" y="21.5" width="10" height="2" as="geometry" />
        </mxCell>
        <mxCell id="dPUykWXNvH8D_2w4ptwh-324" value="DOWN" style="text;html=1;align=left;verticalAlign=middle;whiteSpace=wrap;rounded=0;fontSize=2;container=0;fontColor=#000000;" parent="-N0VSSiV7TkP5NyyHV97-4" vertex="1">
          <mxGeometry x="452.3" y="18.5" width="10" height="2" as="geometry" />
        </mxCell>
        <mxCell id="dPUykWXNvH8D_2w4ptwh-325" value="" style="ellipse;whiteSpace=wrap;html=1;aspect=fixed;fillColor=#000000;strokeWidth=0.1;strokeColor=#222222;container=0;" parent="-N0VSSiV7TkP5NyyHV97-4" vertex="1">
          <mxGeometry x="448.5" y="30" width="2" height="2" as="geometry" />
        </mxCell>
        <mxCell id="dPUykWXNvH8D_2w4ptwh-328" value="RESET" style="text;html=1;align=left;verticalAlign=middle;whiteSpace=wrap;rounded=0;fontSize=2;container=0;fontColor=#000000;" parent="-N0VSSiV7TkP5NyyHV97-4" vertex="1">
          <mxGeometry x="450.5" y="30" width="10" height="2" as="geometry" />
        </mxCell>
        <mxCell id="GzXCTbNvJSa9CegSDbhz-64" value="14" style="text;html=1;align=center;verticalAlign=middle;whiteSpace=wrap;rounded=0;fontSize=3;container=0;fontColor=#000000;" parent="-N0VSSiV7TkP5NyyHV97-4" vertex="1">
          <mxGeometry x="161.3" y="37.22999999999999" width="12" height="5" as="geometry" />
        </mxCell>
        <mxCell id="GzXCTbNvJSa9CegSDbhz-65" value="16" style="text;html=1;align=center;verticalAlign=middle;whiteSpace=wrap;rounded=0;fontSize=3;container=0;fontColor=#000000;" parent="-N0VSSiV7TkP5NyyHV97-4" vertex="1">
          <mxGeometry x="174.3" y="37.22999999999999" width="12" height="5" as="geometry" />
        </mxCell>
        <mxCell id="GzXCTbNvJSa9CegSDbhz-66" value="18" style="text;html=1;align=center;verticalAlign=middle;whiteSpace=wrap;rounded=0;fontSize=3;container=0;fontColor=#000000;" parent="-N0VSSiV7TkP5NyyHV97-4" vertex="1">
          <mxGeometry x="187.3" y="37.22999999999999" width="12" height="5" as="geometry" />
        </mxCell>
        <mxCell id="GzXCTbNvJSa9CegSDbhz-67" value="20" style="text;html=1;align=center;verticalAlign=middle;whiteSpace=wrap;rounded=0;fontSize=3;container=0;fontColor=#000000;" parent="-N0VSSiV7TkP5NyyHV97-4" vertex="1">
          <mxGeometry x="200.3" y="37.22999999999999" width="12" height="5" as="geometry" />
        </mxCell>
        <mxCell id="GzXCTbNvJSa9CegSDbhz-68" value="22" style="text;html=1;align=center;verticalAlign=middle;whiteSpace=wrap;rounded=0;fontSize=3;container=0;fontColor=#000000;" parent="-N0VSSiV7TkP5NyyHV97-4" vertex="1">
          <mxGeometry x="213.3" y="37.22999999999999" width="12" height="5" as="geometry" />
        </mxCell>
        <mxCell id="GzXCTbNvJSa9CegSDbhz-69" value="24" style="text;html=1;align=center;verticalAlign=middle;whiteSpace=wrap;rounded=0;fontSize=3;container=0;fontColor=#000000;" parent="-N0VSSiV7TkP5NyyHV97-4" vertex="1">
          <mxGeometry x="226.3" y="37.22999999999999" width="12" height="5" as="geometry" />
        </mxCell>
        <mxCell id="GzXCTbNvJSa9CegSDbhz-70" value="13" style="text;html=1;align=center;verticalAlign=middle;whiteSpace=wrap;rounded=0;fontSize=3;container=0;fontColor=#000000;" parent="-N0VSSiV7TkP5NyyHV97-4" vertex="1">
          <mxGeometry x="161.3" y="2.230000000000004" width="12" height="5" as="geometry" />
        </mxCell>
        <mxCell id="GzXCTbNvJSa9CegSDbhz-71" value="15" style="text;html=1;align=center;verticalAlign=middle;whiteSpace=wrap;rounded=0;fontSize=3;container=0;fontColor=#000000;" parent="-N0VSSiV7TkP5NyyHV97-4" vertex="1">
          <mxGeometry x="174.3" y="2.230000000000004" width="12" height="5" as="geometry" />
        </mxCell>
        <mxCell id="GzXCTbNvJSa9CegSDbhz-72" value="17" style="text;html=1;align=center;verticalAlign=middle;whiteSpace=wrap;rounded=0;fontSize=3;container=0;fontColor=#000000;" parent="-N0VSSiV7TkP5NyyHV97-4" vertex="1">
          <mxGeometry x="187.3" y="2.230000000000004" width="12" height="5" as="geometry" />
        </mxCell>
        <mxCell id="GzXCTbNvJSa9CegSDbhz-73" value="19" style="text;html=1;align=center;verticalAlign=middle;whiteSpace=wrap;rounded=0;fontSize=3;container=0;fontColor=#000000;" parent="-N0VSSiV7TkP5NyyHV97-4" vertex="1">
          <mxGeometry x="200.3" y="2.230000000000004" width="12" height="5" as="geometry" />
        </mxCell>
        <mxCell id="GzXCTbNvJSa9CegSDbhz-74" value="21" style="text;html=1;align=center;verticalAlign=middle;whiteSpace=wrap;rounded=0;fontSize=3;container=0;fontColor=#000000;" parent="-N0VSSiV7TkP5NyyHV97-4" vertex="1">
          <mxGeometry x="213.3" y="2.230000000000004" width="12" height="5" as="geometry" />
        </mxCell>
        <mxCell id="GzXCTbNvJSa9CegSDbhz-75" value="23" style="text;html=1;align=center;verticalAlign=middle;whiteSpace=wrap;rounded=0;fontSize=3;container=0;fontColor=#000000;" parent="-N0VSSiV7TkP5NyyHV97-4" vertex="1">
          <mxGeometry x="226.3" y="2.230000000000004" width="12" height="5" as="geometry" />
        </mxCell>
        <mxCell id="GzXCTbNvJSa9CegSDbhz-139" value="2" style="text;html=1;align=center;verticalAlign=middle;whiteSpace=wrap;rounded=0;fontSize=3;container=0;fontColor=#000000;" parent="-N0VSSiV7TkP5NyyHV97-4" vertex="1">
          <mxGeometry x="80.3" y="37.22999999999999" width="12" height="5" as="geometry" />
        </mxCell>
        <mxCell id="GzXCTbNvJSa9CegSDbhz-140" value="4" style="text;html=1;align=center;verticalAlign=middle;whiteSpace=wrap;rounded=0;fontSize=3;container=0;fontColor=#000000;" parent="-N0VSSiV7TkP5NyyHV97-4" vertex="1">
          <mxGeometry x="93.3" y="37.22999999999999" width="12" height="5" as="geometry" />
        </mxCell>
        <mxCell id="GzXCTbNvJSa9CegSDbhz-141" value="6" style="text;html=1;align=center;verticalAlign=middle;whiteSpace=wrap;rounded=0;fontSize=3;container=0;fontColor=#000000;" parent="-N0VSSiV7TkP5NyyHV97-4" vertex="1">
          <mxGeometry x="106.3" y="37.22999999999999" width="12" height="5" as="geometry" />
        </mxCell>
        <mxCell id="GzXCTbNvJSa9CegSDbhz-142" value="8" style="text;html=1;align=center;verticalAlign=middle;whiteSpace=wrap;rounded=0;fontSize=3;container=0;fontColor=#000000;" parent="-N0VSSiV7TkP5NyyHV97-4" vertex="1">
          <mxGeometry x="119.30000000000001" y="37.22999999999999" width="12" height="5" as="geometry" />
        </mxCell>
        <mxCell id="GzXCTbNvJSa9CegSDbhz-143" value="10" style="text;html=1;align=center;verticalAlign=middle;whiteSpace=wrap;rounded=0;fontSize=3;container=0;fontColor=#000000;" parent="-N0VSSiV7TkP5NyyHV97-4" vertex="1">
          <mxGeometry x="132.3" y="37.22999999999999" width="12" height="5" as="geometry" />
        </mxCell>
        <mxCell id="GzXCTbNvJSa9CegSDbhz-144" value="12" style="text;html=1;align=center;verticalAlign=middle;whiteSpace=wrap;rounded=0;fontSize=3;container=0;fontColor=#000000;" parent="-N0VSSiV7TkP5NyyHV97-4" vertex="1">
          <mxGeometry x="145.3" y="37.22999999999999" width="12" height="5" as="geometry" />
        </mxCell>
        <mxCell id="GzXCTbNvJSa9CegSDbhz-145" value="1" style="text;html=1;align=center;verticalAlign=middle;whiteSpace=wrap;rounded=0;fontSize=3;container=0;fontColor=#000000;" parent="-N0VSSiV7TkP5NyyHV97-4" vertex="1">
          <mxGeometry x="80.3" y="2.230000000000004" width="12" height="5" as="geometry" />
        </mxCell>
        <mxCell id="GzXCTbNvJSa9CegSDbhz-146" value="3" style="text;html=1;align=center;verticalAlign=middle;whiteSpace=wrap;rounded=0;fontSize=3;container=0;fontColor=#000000;" parent="-N0VSSiV7TkP5NyyHV97-4" vertex="1">
          <mxGeometry x="93.3" y="2.230000000000004" width="12" height="5" as="geometry" />
        </mxCell>
        <mxCell id="GzXCTbNvJSa9CegSDbhz-147" value="5" style="text;html=1;align=center;verticalAlign=middle;whiteSpace=wrap;rounded=0;fontSize=3;container=0;fontColor=#000000;" parent="-N0VSSiV7TkP5NyyHV97-4" vertex="1">
          <mxGeometry x="106.3" y="2.230000000000004" width="12" height="5" as="geometry" />
        </mxCell>
        <mxCell id="GzXCTbNvJSa9CegSDbhz-148" value="7" style="text;html=1;align=center;verticalAlign=middle;whiteSpace=wrap;rounded=0;fontSize=3;container=0;fontColor=#000000;" parent="-N0VSSiV7TkP5NyyHV97-4" vertex="1">
          <mxGeometry x="119.30000000000001" y="2.230000000000004" width="12" height="5" as="geometry" />
        </mxCell>
        <mxCell id="GzXCTbNvJSa9CegSDbhz-149" value="9" style="text;html=1;align=center;verticalAlign=middle;whiteSpace=wrap;rounded=0;fontSize=3;container=0;fontColor=#000000;" parent="-N0VSSiV7TkP5NyyHV97-4" vertex="1">
          <mxGeometry x="132.3" y="2.230000000000004" width="12" height="5" as="geometry" />
        </mxCell>
        <mxCell id="GzXCTbNvJSa9CegSDbhz-150" value="11" style="text;html=1;align=center;verticalAlign=middle;whiteSpace=wrap;rounded=0;fontSize=3;container=0;fontColor=#000000;" parent="-N0VSSiV7TkP5NyyHV97-4" vertex="1">
          <mxGeometry x="145.3" y="2.230000000000004" width="12" height="5" as="geometry" />
        </mxCell>
        <mxCell id="dPUykWXNvH8D_2w4ptwh-304" value="SFP 2" style="text;html=1;align=center;verticalAlign=middle;whiteSpace=wrap;rounded=0;fontSize=3;container=0;fontColor=#000000;" parent="-N0VSSiV7TkP5NyyHV97-4" vertex="1">
          <mxGeometry x="428.8" y="37.22999999999999" width="12" height="5" as="geometry" />
        </mxCell>
        <mxCell id="dPUykWXNvH8D_2w4ptwh-305" value="SFP 1" style="text;html=1;align=center;verticalAlign=middle;whiteSpace=wrap;rounded=0;fontSize=3;container=0;fontColor=#000000;" parent="-N0VSSiV7TkP5NyyHV97-4" vertex="1">
          <mxGeometry x="428.8" y="2.2299999999999898" width="12" height="5" as="geometry" />
        </mxCell>
        <mxCell id="GzXCTbNvJSa9CegSDbhz-173" value="" style="rounded=1;whiteSpace=wrap;html=1;strokeColor=none;fillColor=#f0f0f0;fontColor=#ffffff;strokeWidth=0.1;container=0;align=center;verticalAlign=middle;fontFamily=Teko Light;fontSize=3;" parent="-N0VSSiV7TkP5NyyHV97-4" vertex="1">
          <mxGeometry x="409.3" y="1.2299999999999898" width="17" height="42" as="geometry" />
        </mxCell>
        <mxCell id="GzXCTbNvJSa9CegSDbhz-162" value="SFP+ 2" style="text;html=1;align=center;verticalAlign=middle;whiteSpace=wrap;rounded=0;fontSize=3;container=0;fontColor=#111111;" parent="-N0VSSiV7TkP5NyyHV97-4" vertex="1">
          <mxGeometry x="410.8" y="37.22999999999999" width="14" height="5" as="geometry" />
        </mxCell>
        <mxCell id="GzXCTbNvJSa9CegSDbhz-163" value="SFP+ 1" style="text;html=1;align=center;verticalAlign=middle;whiteSpace=wrap;rounded=0;fontSize=3;container=0;fontColor=#111111;" parent="-N0VSSiV7TkP5NyyHV97-4" vertex="1">
          <mxGeometry x="410.8" y="2.2299999999999898" width="14" height="5" as="geometry" />
        </mxCell>
        <mxCell id="GzXCTbNvJSa9CegSDbhz-155" value="" style="rounded=0;whiteSpace=wrap;html=1;strokeColor=#000000;fillColor=#BFBFBF;fontColor=#ffffff;strokeWidth=0.1;container=0;align=center;verticalAlign=middle;fontFamily=Teko Light;fontSize=3;" parent="-N0VSSiV7TkP5NyyHV97-4" vertex="1">
          <mxGeometry x="410.3" y="8.22999999999999" width="15" height="28" as="geometry" />
        </mxCell>
        <mxCell id="GzXCTbNvJSa9CegSDbhz-156" value="" style="rounded=0;whiteSpace=wrap;html=1;strokeColor=#AAAAAA;fillColor=#000000;fontColor=#ffffff;strokeWidth=0.1;container=0;" parent="-N0VSSiV7TkP5NyyHV97-4" vertex="1">
          <mxGeometry x="410.8" y="25.72999999999999" width="14" height="10" as="geometry" />
        </mxCell>
        <mxCell id="GzXCTbNvJSa9CegSDbhz-157" value="" style="rounded=0;whiteSpace=wrap;html=1;strokeColor=#AAAAAA;fillColor=#000000;fontColor=#ffffff;strokeWidth=0.1;container=0;" parent="-N0VSSiV7TkP5NyyHV97-4" vertex="1">
          <mxGeometry x="410.8" y="8.72999999999999" width="14" height="10" as="geometry" />
        </mxCell>
        <mxCell id="GzXCTbNvJSa9CegSDbhz-158" value="" style="rounded=0;whiteSpace=wrap;html=1;strokeColor=#111111;fillColor=#BFBFBF;fontColor=#ffffff;strokeWidth=0.1;container=0;" parent="-N0VSSiV7TkP5NyyHV97-4" vertex="1">
          <mxGeometry x="415.3" y="25.22999999999999" width="5" height="1.2" as="geometry" />
        </mxCell>
        <mxCell id="GzXCTbNvJSa9CegSDbhz-159" value="" style="rounded=0;whiteSpace=wrap;html=1;strokeColor=#111111;fillColor=#BFBFBF;fontColor=#ffffff;strokeWidth=0.1;container=0;" parent="-N0VSSiV7TkP5NyyHV97-4" vertex="1">
          <mxGeometry x="415.3" y="18.029999999999987" width="5" height="1.2" as="geometry" />
        </mxCell>
        <mxCell id="GzXCTbNvJSa9CegSDbhz-160" value="" style="triangle;whiteSpace=wrap;html=1;fillColor=#60a917;fontColor=#ffffff;strokeColor=none;rotation=90;container=0;" parent="-N0VSSiV7TkP5NyyHV97-4" vertex="1">
          <mxGeometry x="420.43" y="20.72999999999999" width="3" height="3.000000000000001" as="geometry" />
        </mxCell>
        <mxCell id="GzXCTbNvJSa9CegSDbhz-161" value="" style="triangle;whiteSpace=wrap;html=1;fillColor=#60a917;fontColor=#ffffff;strokeColor=none;rotation=-90;container=0;" parent="-N0VSSiV7TkP5NyyHV97-4" vertex="1">
          <mxGeometry x="411.8" y="20.72999999999999" width="3" height="3.000000000000001" as="geometry" />
        </mxCell>
        <mxCell id="PZP4gdgeWaH-fIwLRfgN-395" value="" style="rounded=0;whiteSpace=wrap;html=1;fillColor=#000000;fontColor=#ffffff;strokeColor=none;container=0;" parent="-N0VSSiV7TkP5NyyHV97-4" vertex="1">
          <mxGeometry x="471.6" y="3" width="4" height="6" as="geometry" />
        </mxCell>
        <mxCell id="PZP4gdgeWaH-fIwLRfgN-396" value="" style="ellipse;whiteSpace=wrap;html=1;aspect=fixed;strokeColor=none;fillColor=#000000;container=0;" parent="-N0VSSiV7TkP5NyyHV97-4" vertex="1">
          <mxGeometry x="472.6" y="3" width="6" height="6" as="geometry" />
        </mxCell>
        <mxCell id="PZP4gdgeWaH-fIwLRfgN-397" value="" style="ellipse;whiteSpace=wrap;html=1;aspect=fixed;strokeColor=none;fillColor=#000000;container=0;" parent="-N0VSSiV7TkP5NyyHV97-4" vertex="1">
          <mxGeometry x="468.6" y="3" width="6" height="6" as="geometry" />
        </mxCell>
        <mxCell id="PZP4gdgeWaH-fIwLRfgN-391" value="" style="rounded=0;whiteSpace=wrap;html=1;fillColor=#000000;fontColor=#ffffff;strokeColor=none;container=0;" parent="-N0VSSiV7TkP5NyyHV97-4" vertex="1">
          <mxGeometry x="471.6" y="35.45" width="4" height="6" as="geometry" />
        </mxCell>
        <mxCell id="PZP4gdgeWaH-fIwLRfgN-392" value="" style="ellipse;whiteSpace=wrap;html=1;aspect=fixed;strokeColor=none;fillColor=#000000;container=0;" parent="-N0VSSiV7TkP5NyyHV97-4" vertex="1">
          <mxGeometry x="472.6" y="35.45" width="6" height="6" as="geometry" />
        </mxCell>
        <mxCell id="PZP4gdgeWaH-fIwLRfgN-393" value="" style="ellipse;whiteSpace=wrap;html=1;aspect=fixed;strokeColor=none;fillColor=#000000;container=0;" parent="-N0VSSiV7TkP5NyyHV97-4" vertex="1">
          <mxGeometry x="468.6" y="35.45" width="6" height="6" as="geometry" />
        </mxCell>
        <mxCell id="PZP4gdgeWaH-fIwLRfgN-385" value="" style="rounded=0;whiteSpace=wrap;html=1;fillColor=#000000;fontColor=#ffffff;strokeColor=none;container=0;" parent="-N0VSSiV7TkP5NyyHV97-4" vertex="1">
          <mxGeometry x="7" y="3" width="4" height="6" as="geometry" />
        </mxCell>
        <mxCell id="PZP4gdgeWaH-fIwLRfgN-386" value="" style="ellipse;whiteSpace=wrap;html=1;aspect=fixed;strokeColor=none;fillColor=#000000;container=0;" parent="-N0VSSiV7TkP5NyyHV97-4" vertex="1">
          <mxGeometry x="8" y="3" width="6" height="6" as="geometry" />
        </mxCell>
        <mxCell id="PZP4gdgeWaH-fIwLRfgN-387" value="" style="ellipse;whiteSpace=wrap;html=1;aspect=fixed;strokeColor=none;fillColor=#000000;container=0;" parent="-N0VSSiV7TkP5NyyHV97-4" vertex="1">
          <mxGeometry x="4" y="3" width="6" height="6" as="geometry" />
        </mxCell>
        <mxCell id="PZP4gdgeWaH-fIwLRfgN-376" value="" style="rounded=0;whiteSpace=wrap;html=1;fillColor=#000000;fontColor=#ffffff;strokeColor=none;container=0;" parent="-N0VSSiV7TkP5NyyHV97-4" vertex="1">
          <mxGeometry x="7" y="35.45" width="4" height="6" as="geometry" />
        </mxCell>
        <mxCell id="PZP4gdgeWaH-fIwLRfgN-381" value="" style="ellipse;whiteSpace=wrap;html=1;aspect=fixed;strokeColor=none;fillColor=#000000;container=0;" parent="-N0VSSiV7TkP5NyyHV97-4" vertex="1">
          <mxGeometry x="8" y="35.45" width="6" height="6" as="geometry" />
        </mxCell>
        <mxCell id="PZP4gdgeWaH-fIwLRfgN-382" value="" style="ellipse;whiteSpace=wrap;html=1;aspect=fixed;strokeColor=none;fillColor=#000000;container=0;" parent="-N0VSSiV7TkP5NyyHV97-4" vertex="1">
          <mxGeometry x="4" y="35.45" width="6" height="6" as="geometry" />
        </mxCell>
        <mxCell id="dPUykWXNvH8D_2w4ptwh-108" value="" style="rounded=0;whiteSpace=wrap;html=1;strokeColor=#000000;fillColor=#BFBFBF;fontColor=#ffffff;strokeWidth=0.1;fontSize=3;fontFamily=Teko Light;align=center;verticalAlign=middle;container=0;" parent="-N0VSSiV7TkP5NyyHV97-4" vertex="1">
          <mxGeometry x="240.3" y="8.230000000000004" width="81" height="28" as="geometry" />
        </mxCell>
        <mxCell id="dPUykWXNvH8D_2w4ptwh-109" value="" style="rounded=0;whiteSpace=wrap;html=1;strokeColor=none;fillColor=#222222;fontColor=#ffffff;strokeWidth=0.1;fontSize=3;fontFamily=Teko Light;container=0;rotation=-180;" parent="-N0VSSiV7TkP5NyyHV97-4" vertex="1">
          <mxGeometry x="268.3" y="30.230000000000004" width="12" height="5" as="geometry" />
        </mxCell>
        <mxCell id="dPUykWXNvH8D_2w4ptwh-110" value="" style="rounded=0;whiteSpace=wrap;html=1;strokeColor=none;fillColor=#000000;fontColor=#ffffff;strokeWidth=0.1;fontSize=3;fontFamily=Teko Light;container=0;rotation=-180;" parent="-N0VSSiV7TkP5NyyHV97-4" vertex="1">
          <mxGeometry x="268.3" y="24.230000000000004" width="12" height="7" as="geometry" />
        </mxCell>
        <mxCell id="dPUykWXNvH8D_2w4ptwh-111" value="" style="rounded=0;whiteSpace=wrap;html=1;strokeColor=none;fillColor=#000000;fontColor=#ffffff;strokeWidth=0.1;fontSize=3;fontFamily=Teko Light;container=0;rotation=-180;" parent="-N0VSSiV7TkP5NyyHV97-4" vertex="1">
          <mxGeometry x="271.8" y="30.230000000000004" width="5" height="4" as="geometry" />
        </mxCell>
        <mxCell id="dPUykWXNvH8D_2w4ptwh-112" value="" style="rounded=0;whiteSpace=wrap;html=1;strokeColor=none;fillColor=#60a917;fontColor=#ffffff;strokeWidth=0.1;fontSize=3;fontFamily=Teko Light;container=0;rotation=-180;" parent="-N0VSSiV7TkP5NyyHV97-4" vertex="1">
          <mxGeometry x="277.3" y="32.230000000000004" width="3" height="2" as="geometry" />
        </mxCell>
        <mxCell id="dPUykWXNvH8D_2w4ptwh-113" value="" style="rounded=0;whiteSpace=wrap;html=1;strokeColor=none;fillColor=#e3c800;fontColor=#000000;strokeWidth=0.1;fontSize=3;fontFamily=Teko Light;container=0;rotation=-180;" parent="-N0VSSiV7TkP5NyyHV97-4" vertex="1">
          <mxGeometry x="268.3" y="32.230000000000004" width="3" height="2" as="geometry" />
        </mxCell>
        <mxCell id="dPUykWXNvH8D_2w4ptwh-114" value="" style="rounded=0;whiteSpace=wrap;html=1;strokeColor=none;fillColor=#222222;fontColor=#ffffff;strokeWidth=0.1;fontSize=3;fontFamily=Teko Light;container=0;" parent="-N0VSSiV7TkP5NyyHV97-4" vertex="1">
          <mxGeometry x="242.29857142857145" y="9.227576744186067" width="12" height="5" as="geometry" />
        </mxCell>
        <mxCell id="dPUykWXNvH8D_2w4ptwh-115" value="" style="rounded=0;whiteSpace=wrap;html=1;strokeColor=none;fillColor=#000000;fontColor=#ffffff;strokeWidth=0.1;fontSize=3;fontFamily=Teko Light;container=0;" parent="-N0VSSiV7TkP5NyyHV97-4" vertex="1">
          <mxGeometry x="242.2971428571429" y="13.231074995060638" width="12" height="7" as="geometry" />
        </mxCell>
        <mxCell id="dPUykWXNvH8D_2w4ptwh-116" value="" style="rounded=0;whiteSpace=wrap;html=1;strokeColor=none;fillColor=#000000;fontColor=#ffffff;strokeWidth=0.1;fontSize=3;fontFamily=Teko Light;container=0;" parent="-N0VSSiV7TkP5NyyHV97-4" vertex="1">
          <mxGeometry x="245.8" y="10.230000000000004" width="5" height="4" as="geometry" />
        </mxCell>
        <mxCell id="dPUykWXNvH8D_2w4ptwh-117" value="" style="rounded=0;whiteSpace=wrap;html=1;strokeColor=none;fillColor=#60a917;fontColor=#ffffff;strokeWidth=0.1;fontSize=3;fontFamily=Teko Light;container=0;" parent="-N0VSSiV7TkP5NyyHV97-4" vertex="1">
          <mxGeometry x="242.3" y="10.730000000000004" width="3" height="2" as="geometry" />
        </mxCell>
        <mxCell id="dPUykWXNvH8D_2w4ptwh-118" value="" style="rounded=0;whiteSpace=wrap;html=1;strokeColor=none;fillColor=#e3c800;fontColor=#000000;strokeWidth=0.1;fontSize=3;fontFamily=Teko Light;container=0;" parent="-N0VSSiV7TkP5NyyHV97-4" vertex="1">
          <mxGeometry x="251.3" y="10.730000000000004" width="3" height="2" as="geometry" />
        </mxCell>
        <mxCell id="dPUykWXNvH8D_2w4ptwh-119" value="" style="rounded=0;whiteSpace=wrap;html=1;strokeColor=none;fillColor=#222222;fontColor=#ffffff;strokeWidth=0.1;fontSize=3;fontFamily=Teko Light;container=0;" parent="-N0VSSiV7TkP5NyyHV97-4" vertex="1">
          <mxGeometry x="255.29857142857145" y="9.227576744186067" width="12" height="5" as="geometry" />
        </mxCell>
        <mxCell id="dPUykWXNvH8D_2w4ptwh-120" value="" style="rounded=0;whiteSpace=wrap;html=1;strokeColor=none;fillColor=#000000;fontColor=#ffffff;strokeWidth=0.1;fontSize=3;fontFamily=Teko Light;container=0;" parent="-N0VSSiV7TkP5NyyHV97-4" vertex="1">
          <mxGeometry x="255.2971428571429" y="13.231074995060638" width="12" height="7" as="geometry" />
        </mxCell>
        <mxCell id="dPUykWXNvH8D_2w4ptwh-121" value="" style="rounded=0;whiteSpace=wrap;html=1;strokeColor=none;fillColor=#000000;fontColor=#ffffff;strokeWidth=0.1;fontSize=3;fontFamily=Teko Light;container=0;" parent="-N0VSSiV7TkP5NyyHV97-4" vertex="1">
          <mxGeometry x="258.8" y="10.230000000000004" width="5" height="4" as="geometry" />
        </mxCell>
        <mxCell id="dPUykWXNvH8D_2w4ptwh-122" value="" style="rounded=0;whiteSpace=wrap;html=1;strokeColor=none;fillColor=#60a917;fontColor=#ffffff;strokeWidth=0.1;fontSize=3;fontFamily=Teko Light;container=0;" parent="-N0VSSiV7TkP5NyyHV97-4" vertex="1">
          <mxGeometry x="255.3" y="10.730000000000004" width="3" height="2" as="geometry" />
        </mxCell>
        <mxCell id="dPUykWXNvH8D_2w4ptwh-123" value="" style="rounded=0;whiteSpace=wrap;html=1;strokeColor=none;fillColor=#e3c800;fontColor=#000000;strokeWidth=0.1;fontSize=3;fontFamily=Teko Light;container=0;" parent="-N0VSSiV7TkP5NyyHV97-4" vertex="1">
          <mxGeometry x="264.3" y="10.730000000000004" width="3" height="2" as="geometry" />
        </mxCell>
        <mxCell id="dPUykWXNvH8D_2w4ptwh-124" value="" style="rounded=0;whiteSpace=wrap;html=1;strokeColor=none;fillColor=#222222;fontColor=#ffffff;strokeWidth=0.1;fontSize=3;fontFamily=Teko Light;container=0;" parent="-N0VSSiV7TkP5NyyHV97-4" vertex="1">
          <mxGeometry x="268.29857142857145" y="9.227576744186067" width="12" height="5" as="geometry" />
        </mxCell>
        <mxCell id="dPUykWXNvH8D_2w4ptwh-125" value="" style="rounded=0;whiteSpace=wrap;html=1;strokeColor=none;fillColor=#000000;fontColor=#ffffff;strokeWidth=0.1;fontSize=3;fontFamily=Teko Light;container=0;" parent="-N0VSSiV7TkP5NyyHV97-4" vertex="1">
          <mxGeometry x="268.2971428571429" y="13.231074995060638" width="12" height="7" as="geometry" />
        </mxCell>
        <mxCell id="dPUykWXNvH8D_2w4ptwh-126" value="" style="rounded=0;whiteSpace=wrap;html=1;strokeColor=none;fillColor=#000000;fontColor=#ffffff;strokeWidth=0.1;fontSize=3;fontFamily=Teko Light;container=0;" parent="-N0VSSiV7TkP5NyyHV97-4" vertex="1">
          <mxGeometry x="271.8" y="10.230000000000004" width="5" height="4" as="geometry" />
        </mxCell>
        <mxCell id="dPUykWXNvH8D_2w4ptwh-127" value="" style="rounded=0;whiteSpace=wrap;html=1;strokeColor=none;fillColor=#60a917;fontColor=#ffffff;strokeWidth=0.1;fontSize=3;fontFamily=Teko Light;container=0;" parent="-N0VSSiV7TkP5NyyHV97-4" vertex="1">
          <mxGeometry x="268.3" y="10.730000000000004" width="3" height="2" as="geometry" />
        </mxCell>
        <mxCell id="dPUykWXNvH8D_2w4ptwh-128" value="" style="rounded=0;whiteSpace=wrap;html=1;strokeColor=none;fillColor=#e3c800;fontColor=#000000;strokeWidth=0.1;fontSize=3;fontFamily=Teko Light;container=0;" parent="-N0VSSiV7TkP5NyyHV97-4" vertex="1">
          <mxGeometry x="277.3" y="10.730000000000004" width="3" height="2" as="geometry" />
        </mxCell>
        <mxCell id="dPUykWXNvH8D_2w4ptwh-129" value="" style="rounded=0;whiteSpace=wrap;html=1;strokeColor=none;fillColor=#222222;fontColor=#ffffff;strokeWidth=0.1;fontSize=3;fontFamily=Teko Light;container=0;" parent="-N0VSSiV7TkP5NyyHV97-4" vertex="1">
          <mxGeometry x="281.29857142857145" y="9.227576744186067" width="12" height="5" as="geometry" />
        </mxCell>
        <mxCell id="dPUykWXNvH8D_2w4ptwh-130" value="" style="rounded=0;whiteSpace=wrap;html=1;strokeColor=none;fillColor=#000000;fontColor=#ffffff;strokeWidth=0.1;fontSize=3;fontFamily=Teko Light;container=0;" parent="-N0VSSiV7TkP5NyyHV97-4" vertex="1">
          <mxGeometry x="281.2971428571429" y="13.231074995060638" width="12" height="7" as="geometry" />
        </mxCell>
        <mxCell id="dPUykWXNvH8D_2w4ptwh-131" value="" style="rounded=0;whiteSpace=wrap;html=1;strokeColor=none;fillColor=#000000;fontColor=#ffffff;strokeWidth=0.1;fontSize=3;fontFamily=Teko Light;container=0;" parent="-N0VSSiV7TkP5NyyHV97-4" vertex="1">
          <mxGeometry x="284.8" y="10.230000000000004" width="5" height="4" as="geometry" />
        </mxCell>
        <mxCell id="dPUykWXNvH8D_2w4ptwh-132" value="" style="rounded=0;whiteSpace=wrap;html=1;strokeColor=none;fillColor=#60a917;fontColor=#ffffff;strokeWidth=0.1;fontSize=3;fontFamily=Teko Light;container=0;" parent="-N0VSSiV7TkP5NyyHV97-4" vertex="1">
          <mxGeometry x="281.3" y="10.730000000000004" width="3" height="2" as="geometry" />
        </mxCell>
        <mxCell id="dPUykWXNvH8D_2w4ptwh-133" value="" style="rounded=0;whiteSpace=wrap;html=1;strokeColor=none;fillColor=#e3c800;fontColor=#000000;strokeWidth=0.1;fontSize=3;fontFamily=Teko Light;container=0;" parent="-N0VSSiV7TkP5NyyHV97-4" vertex="1">
          <mxGeometry x="290.3" y="10.730000000000004" width="3" height="2" as="geometry" />
        </mxCell>
        <mxCell id="dPUykWXNvH8D_2w4ptwh-134" value="" style="rounded=0;whiteSpace=wrap;html=1;strokeColor=none;fillColor=#222222;fontColor=#ffffff;strokeWidth=0.1;fontSize=3;fontFamily=Teko Light;container=0;" parent="-N0VSSiV7TkP5NyyHV97-4" vertex="1">
          <mxGeometry x="307.29857142857145" y="9.227576744186067" width="12" height="5" as="geometry" />
        </mxCell>
        <mxCell id="dPUykWXNvH8D_2w4ptwh-135" value="" style="rounded=0;whiteSpace=wrap;html=1;strokeColor=none;fillColor=#000000;fontColor=#ffffff;strokeWidth=0.1;fontSize=3;fontFamily=Teko Light;container=0;" parent="-N0VSSiV7TkP5NyyHV97-4" vertex="1">
          <mxGeometry x="307.2971428571429" y="13.231074995060638" width="12" height="7" as="geometry" />
        </mxCell>
        <mxCell id="dPUykWXNvH8D_2w4ptwh-136" value="" style="rounded=0;whiteSpace=wrap;html=1;strokeColor=none;fillColor=#000000;fontColor=#ffffff;strokeWidth=0.1;fontSize=3;fontFamily=Teko Light;container=0;" parent="-N0VSSiV7TkP5NyyHV97-4" vertex="1">
          <mxGeometry x="310.8" y="10.230000000000004" width="5" height="4" as="geometry" />
        </mxCell>
        <mxCell id="dPUykWXNvH8D_2w4ptwh-137" value="" style="rounded=0;whiteSpace=wrap;html=1;strokeColor=none;fillColor=#60a917;fontColor=#ffffff;strokeWidth=0.1;fontSize=3;fontFamily=Teko Light;container=0;" parent="-N0VSSiV7TkP5NyyHV97-4" vertex="1">
          <mxGeometry x="307.3" y="10.730000000000004" width="3" height="2" as="geometry" />
        </mxCell>
        <mxCell id="dPUykWXNvH8D_2w4ptwh-138" value="" style="rounded=0;whiteSpace=wrap;html=1;strokeColor=none;fillColor=#e3c800;fontColor=#000000;strokeWidth=0.1;fontSize=3;fontFamily=Teko Light;container=0;" parent="-N0VSSiV7TkP5NyyHV97-4" vertex="1">
          <mxGeometry x="316.3" y="10.730000000000004" width="3" height="2" as="geometry" />
        </mxCell>
        <mxCell id="dPUykWXNvH8D_2w4ptwh-139" value="" style="rounded=0;whiteSpace=wrap;html=1;strokeColor=none;fillColor=#222222;fontColor=#ffffff;strokeWidth=0.1;fontSize=3;fontFamily=Teko Light;container=0;" parent="-N0VSSiV7TkP5NyyHV97-4" vertex="1">
          <mxGeometry x="294.29857142857145" y="9.227576744186067" width="12" height="5" as="geometry" />
        </mxCell>
        <mxCell id="dPUykWXNvH8D_2w4ptwh-140" value="" style="rounded=0;whiteSpace=wrap;html=1;strokeColor=none;fillColor=#000000;fontColor=#ffffff;strokeWidth=0.1;fontSize=3;fontFamily=Teko Light;container=0;" parent="-N0VSSiV7TkP5NyyHV97-4" vertex="1">
          <mxGeometry x="294.2971428571429" y="13.231074995060638" width="12" height="7" as="geometry" />
        </mxCell>
        <mxCell id="dPUykWXNvH8D_2w4ptwh-141" value="" style="rounded=0;whiteSpace=wrap;html=1;strokeColor=none;fillColor=#000000;fontColor=#ffffff;strokeWidth=0.1;fontSize=3;fontFamily=Teko Light;container=0;" parent="-N0VSSiV7TkP5NyyHV97-4" vertex="1">
          <mxGeometry x="297.8" y="10.230000000000004" width="5" height="4" as="geometry" />
        </mxCell>
        <mxCell id="dPUykWXNvH8D_2w4ptwh-142" value="" style="rounded=0;whiteSpace=wrap;html=1;strokeColor=none;fillColor=#60a917;fontColor=#ffffff;strokeWidth=0.1;fontSize=3;fontFamily=Teko Light;container=0;" parent="-N0VSSiV7TkP5NyyHV97-4" vertex="1">
          <mxGeometry x="294.3" y="10.730000000000004" width="3" height="2" as="geometry" />
        </mxCell>
        <mxCell id="dPUykWXNvH8D_2w4ptwh-143" value="" style="rounded=0;whiteSpace=wrap;html=1;strokeColor=none;fillColor=#e3c800;fontColor=#000000;strokeWidth=0.1;fontSize=3;fontFamily=Teko Light;container=0;" parent="-N0VSSiV7TkP5NyyHV97-4" vertex="1">
          <mxGeometry x="303.3" y="10.730000000000004" width="3" height="2" as="geometry" />
        </mxCell>
        <mxCell id="dPUykWXNvH8D_2w4ptwh-144" value="" style="rounded=0;whiteSpace=wrap;html=1;strokeColor=none;fillColor=#222222;fontColor=#ffffff;strokeWidth=0.1;fontSize=3;fontFamily=Teko Light;container=0;rotation=-180;" parent="-N0VSSiV7TkP5NyyHV97-4" vertex="1">
          <mxGeometry x="242.2971428571429" y="30.227576744186067" width="12" height="5" as="geometry" />
        </mxCell>
        <mxCell id="dPUykWXNvH8D_2w4ptwh-145" value="" style="rounded=0;whiteSpace=wrap;html=1;strokeColor=none;fillColor=#000000;fontColor=#ffffff;strokeWidth=0.1;fontSize=3;fontFamily=Teko Light;container=0;rotation=-180;" parent="-N0VSSiV7TkP5NyyHV97-4" vertex="1">
          <mxGeometry x="242.2971428571429" y="24.227576744186067" width="12" height="7" as="geometry" />
        </mxCell>
        <mxCell id="dPUykWXNvH8D_2w4ptwh-146" value="" style="rounded=0;whiteSpace=wrap;html=1;strokeColor=none;fillColor=#000000;fontColor=#ffffff;strokeWidth=0.1;fontSize=3;fontFamily=Teko Light;container=0;rotation=-180;" parent="-N0VSSiV7TkP5NyyHV97-4" vertex="1">
          <mxGeometry x="245.7971428571429" y="30.227576744186067" width="5" height="4" as="geometry" />
        </mxCell>
        <mxCell id="dPUykWXNvH8D_2w4ptwh-147" value="" style="rounded=0;whiteSpace=wrap;html=1;strokeColor=none;fillColor=#60a917;fontColor=#ffffff;strokeWidth=0.1;fontSize=3;fontFamily=Teko Light;container=0;rotation=-180;" parent="-N0VSSiV7TkP5NyyHV97-4" vertex="1">
          <mxGeometry x="251.2971428571429" y="32.22757674418607" width="3" height="2" as="geometry" />
        </mxCell>
        <mxCell id="dPUykWXNvH8D_2w4ptwh-148" value="" style="rounded=0;whiteSpace=wrap;html=1;strokeColor=none;fillColor=#e3c800;fontColor=#000000;strokeWidth=0.1;fontSize=3;fontFamily=Teko Light;container=0;rotation=-180;" parent="-N0VSSiV7TkP5NyyHV97-4" vertex="1">
          <mxGeometry x="242.2971428571429" y="32.22757674418607" width="3" height="2" as="geometry" />
        </mxCell>
        <mxCell id="dPUykWXNvH8D_2w4ptwh-149" value="" style="rounded=0;whiteSpace=wrap;html=1;strokeColor=none;fillColor=#222222;fontColor=#ffffff;strokeWidth=0.1;fontSize=3;fontFamily=Teko Light;container=0;rotation=-180;" parent="-N0VSSiV7TkP5NyyHV97-4" vertex="1">
          <mxGeometry x="255.3" y="30.230000000000004" width="12" height="5" as="geometry" />
        </mxCell>
        <mxCell id="dPUykWXNvH8D_2w4ptwh-150" value="" style="rounded=0;whiteSpace=wrap;html=1;strokeColor=none;fillColor=#000000;fontColor=#ffffff;strokeWidth=0.1;fontSize=3;fontFamily=Teko Light;container=0;rotation=-180;" parent="-N0VSSiV7TkP5NyyHV97-4" vertex="1">
          <mxGeometry x="255.3" y="24.230000000000004" width="12" height="7" as="geometry" />
        </mxCell>
        <mxCell id="dPUykWXNvH8D_2w4ptwh-151" value="" style="rounded=0;whiteSpace=wrap;html=1;strokeColor=none;fillColor=#000000;fontColor=#ffffff;strokeWidth=0.1;fontSize=3;fontFamily=Teko Light;container=0;rotation=-180;" parent="-N0VSSiV7TkP5NyyHV97-4" vertex="1">
          <mxGeometry x="258.8" y="30.230000000000004" width="5" height="4" as="geometry" />
        </mxCell>
        <mxCell id="dPUykWXNvH8D_2w4ptwh-152" value="" style="rounded=0;whiteSpace=wrap;html=1;strokeColor=none;fillColor=#60a917;fontColor=#ffffff;strokeWidth=0.1;fontSize=3;fontFamily=Teko Light;container=0;rotation=-180;" parent="-N0VSSiV7TkP5NyyHV97-4" vertex="1">
          <mxGeometry x="264.3" y="32.230000000000004" width="3" height="2" as="geometry" />
        </mxCell>
        <mxCell id="dPUykWXNvH8D_2w4ptwh-153" value="" style="rounded=0;whiteSpace=wrap;html=1;strokeColor=none;fillColor=#e3c800;fontColor=#000000;strokeWidth=0.1;fontSize=3;fontFamily=Teko Light;container=0;rotation=-180;" parent="-N0VSSiV7TkP5NyyHV97-4" vertex="1">
          <mxGeometry x="255.3" y="32.230000000000004" width="3" height="2" as="geometry" />
        </mxCell>
        <mxCell id="dPUykWXNvH8D_2w4ptwh-154" value="" style="rounded=0;whiteSpace=wrap;html=1;strokeColor=none;fillColor=#222222;fontColor=#ffffff;strokeWidth=0.1;fontSize=3;fontFamily=Teko Light;container=0;rotation=-180;" parent="-N0VSSiV7TkP5NyyHV97-4" vertex="1">
          <mxGeometry x="281.3" y="30.230000000000004" width="12" height="5" as="geometry" />
        </mxCell>
        <mxCell id="dPUykWXNvH8D_2w4ptwh-155" value="" style="rounded=0;whiteSpace=wrap;html=1;strokeColor=none;fillColor=#000000;fontColor=#ffffff;strokeWidth=0.1;fontSize=3;fontFamily=Teko Light;container=0;rotation=-180;" parent="-N0VSSiV7TkP5NyyHV97-4" vertex="1">
          <mxGeometry x="281.3" y="24.230000000000004" width="12" height="7" as="geometry" />
        </mxCell>
        <mxCell id="dPUykWXNvH8D_2w4ptwh-156" value="" style="rounded=0;whiteSpace=wrap;html=1;strokeColor=none;fillColor=#000000;fontColor=#ffffff;strokeWidth=0.1;fontSize=3;fontFamily=Teko Light;container=0;rotation=-180;" parent="-N0VSSiV7TkP5NyyHV97-4" vertex="1">
          <mxGeometry x="284.8" y="30.230000000000004" width="5" height="4" as="geometry" />
        </mxCell>
        <mxCell id="dPUykWXNvH8D_2w4ptwh-157" value="" style="rounded=0;whiteSpace=wrap;html=1;strokeColor=none;fillColor=#60a917;fontColor=#ffffff;strokeWidth=0.1;fontSize=3;fontFamily=Teko Light;container=0;rotation=-180;" parent="-N0VSSiV7TkP5NyyHV97-4" vertex="1">
          <mxGeometry x="290.3" y="32.230000000000004" width="3" height="2" as="geometry" />
        </mxCell>
        <mxCell id="dPUykWXNvH8D_2w4ptwh-158" value="" style="rounded=0;whiteSpace=wrap;html=1;strokeColor=none;fillColor=#e3c800;fontColor=#000000;strokeWidth=0.1;fontSize=3;fontFamily=Teko Light;container=0;rotation=-180;" parent="-N0VSSiV7TkP5NyyHV97-4" vertex="1">
          <mxGeometry x="281.3" y="32.230000000000004" width="3" height="2" as="geometry" />
        </mxCell>
        <mxCell id="dPUykWXNvH8D_2w4ptwh-159" value="" style="rounded=0;whiteSpace=wrap;html=1;strokeColor=none;fillColor=#222222;fontColor=#ffffff;strokeWidth=0.1;fontSize=3;fontFamily=Teko Light;container=0;rotation=-180;" parent="-N0VSSiV7TkP5NyyHV97-4" vertex="1">
          <mxGeometry x="307.2971428571429" y="30.230000000000004" width="12" height="5" as="geometry" />
        </mxCell>
        <mxCell id="dPUykWXNvH8D_2w4ptwh-160" value="" style="rounded=0;whiteSpace=wrap;html=1;strokeColor=none;fillColor=#000000;fontColor=#ffffff;strokeWidth=0.1;fontSize=3;fontFamily=Teko Light;container=0;rotation=-180;" parent="-N0VSSiV7TkP5NyyHV97-4" vertex="1">
          <mxGeometry x="307.2971428571429" y="24.230000000000004" width="12" height="7" as="geometry" />
        </mxCell>
        <mxCell id="dPUykWXNvH8D_2w4ptwh-161" value="" style="rounded=0;whiteSpace=wrap;html=1;strokeColor=none;fillColor=#000000;fontColor=#ffffff;strokeWidth=0.1;fontSize=3;fontFamily=Teko Light;container=0;rotation=-180;" parent="-N0VSSiV7TkP5NyyHV97-4" vertex="1">
          <mxGeometry x="310.7971428571429" y="30.230000000000004" width="5" height="4" as="geometry" />
        </mxCell>
        <mxCell id="dPUykWXNvH8D_2w4ptwh-162" value="" style="rounded=0;whiteSpace=wrap;html=1;strokeColor=none;fillColor=#60a917;fontColor=#ffffff;strokeWidth=0.1;fontSize=3;fontFamily=Teko Light;container=0;rotation=-180;" parent="-N0VSSiV7TkP5NyyHV97-4" vertex="1">
          <mxGeometry x="316.2971428571429" y="32.230000000000004" width="3" height="2" as="geometry" />
        </mxCell>
        <mxCell id="dPUykWXNvH8D_2w4ptwh-163" value="" style="rounded=0;whiteSpace=wrap;html=1;strokeColor=none;fillColor=#e3c800;fontColor=#000000;strokeWidth=0.1;fontSize=3;fontFamily=Teko Light;container=0;rotation=-180;" parent="-N0VSSiV7TkP5NyyHV97-4" vertex="1">
          <mxGeometry x="307.2971428571429" y="32.230000000000004" width="3" height="2" as="geometry" />
        </mxCell>
        <mxCell id="dPUykWXNvH8D_2w4ptwh-164" value="" style="rounded=0;whiteSpace=wrap;html=1;strokeColor=none;fillColor=#222222;fontColor=#ffffff;strokeWidth=0.1;fontSize=3;fontFamily=Teko Light;container=0;rotation=-180;" parent="-N0VSSiV7TkP5NyyHV97-4" vertex="1">
          <mxGeometry x="294.3" y="30.230000000000004" width="12" height="5" as="geometry" />
        </mxCell>
        <mxCell id="dPUykWXNvH8D_2w4ptwh-165" value="" style="rounded=0;whiteSpace=wrap;html=1;strokeColor=none;fillColor=#000000;fontColor=#ffffff;strokeWidth=0.1;fontSize=3;fontFamily=Teko Light;container=0;rotation=-180;" parent="-N0VSSiV7TkP5NyyHV97-4" vertex="1">
          <mxGeometry x="294.3" y="24.230000000000004" width="12" height="7" as="geometry" />
        </mxCell>
        <mxCell id="dPUykWXNvH8D_2w4ptwh-166" value="" style="rounded=0;whiteSpace=wrap;html=1;strokeColor=none;fillColor=#000000;fontColor=#ffffff;strokeWidth=0.1;fontSize=3;fontFamily=Teko Light;container=0;rotation=-180;" parent="-N0VSSiV7TkP5NyyHV97-4" vertex="1">
          <mxGeometry x="297.8" y="30.230000000000004" width="5" height="4" as="geometry" />
        </mxCell>
        <mxCell id="dPUykWXNvH8D_2w4ptwh-167" value="" style="rounded=0;whiteSpace=wrap;html=1;strokeColor=none;fillColor=#60a917;fontColor=#ffffff;strokeWidth=0.1;fontSize=3;fontFamily=Teko Light;container=0;rotation=-180;" parent="-N0VSSiV7TkP5NyyHV97-4" vertex="1">
          <mxGeometry x="303.3" y="32.230000000000004" width="3" height="2" as="geometry" />
        </mxCell>
        <mxCell id="dPUykWXNvH8D_2w4ptwh-168" value="" style="rounded=0;whiteSpace=wrap;html=1;strokeColor=none;fillColor=#e3c800;fontColor=#000000;strokeWidth=0.1;fontSize=3;fontFamily=Teko Light;container=0;rotation=-180;" parent="-N0VSSiV7TkP5NyyHV97-4" vertex="1">
          <mxGeometry x="294.3" y="32.230000000000004" width="3" height="2" as="geometry" />
        </mxCell>
        <mxCell id="dPUykWXNvH8D_2w4ptwh-184" value="" style="rounded=0;whiteSpace=wrap;html=1;strokeColor=none;fillColor=#222222;fontColor=#ffffff;strokeWidth=0.1;fontSize=3;fontFamily=Teko Light;container=0;rotation=-180;" parent="-N0VSSiV7TkP5NyyHV97-4" vertex="1">
          <mxGeometry x="349.3" y="30.22999999999999" width="12" height="5" as="geometry" />
        </mxCell>
        <mxCell id="dPUykWXNvH8D_2w4ptwh-185" value="" style="rounded=0;whiteSpace=wrap;html=1;strokeColor=none;fillColor=#000000;fontColor=#ffffff;strokeWidth=0.1;fontSize=3;fontFamily=Teko Light;container=0;rotation=-180;" parent="-N0VSSiV7TkP5NyyHV97-4" vertex="1">
          <mxGeometry x="349.3" y="24.22999999999999" width="12" height="7" as="geometry" />
        </mxCell>
        <mxCell id="dPUykWXNvH8D_2w4ptwh-186" value="" style="rounded=0;whiteSpace=wrap;html=1;strokeColor=none;fillColor=#000000;fontColor=#ffffff;strokeWidth=0.1;fontSize=3;fontFamily=Teko Light;container=0;rotation=-180;" parent="-N0VSSiV7TkP5NyyHV97-4" vertex="1">
          <mxGeometry x="352.8" y="30.22999999999999" width="5" height="4" as="geometry" />
        </mxCell>
        <mxCell id="dPUykWXNvH8D_2w4ptwh-187" value="" style="rounded=0;whiteSpace=wrap;html=1;strokeColor=none;fillColor=#60a917;fontColor=#ffffff;strokeWidth=0.1;fontSize=3;fontFamily=Teko Light;container=0;rotation=-180;" parent="-N0VSSiV7TkP5NyyHV97-4" vertex="1">
          <mxGeometry x="358.3" y="32.22999999999999" width="3" height="2" as="geometry" />
        </mxCell>
        <mxCell id="dPUykWXNvH8D_2w4ptwh-188" value="" style="rounded=0;whiteSpace=wrap;html=1;strokeColor=none;fillColor=#e3c800;fontColor=#000000;strokeWidth=0.1;fontSize=3;fontFamily=Teko Light;container=0;rotation=-180;" parent="-N0VSSiV7TkP5NyyHV97-4" vertex="1">
          <mxGeometry x="349.3" y="32.22999999999999" width="3" height="2" as="geometry" />
        </mxCell>
        <mxCell id="dPUykWXNvH8D_2w4ptwh-189" value="" style="rounded=0;whiteSpace=wrap;html=1;strokeColor=none;fillColor=#222222;fontColor=#ffffff;strokeWidth=0.1;fontSize=3;fontFamily=Teko Light;container=0;" parent="-N0VSSiV7TkP5NyyHV97-4" vertex="1">
          <mxGeometry x="323.29857142857145" y="9.227576744186052" width="12" height="5" as="geometry" />
        </mxCell>
        <mxCell id="dPUykWXNvH8D_2w4ptwh-190" value="" style="rounded=0;whiteSpace=wrap;html=1;strokeColor=none;fillColor=#000000;fontColor=#ffffff;strokeWidth=0.1;fontSize=3;fontFamily=Teko Light;container=0;" parent="-N0VSSiV7TkP5NyyHV97-4" vertex="1">
          <mxGeometry x="323.2971428571429" y="13.231074995060624" width="12" height="7" as="geometry" />
        </mxCell>
        <mxCell id="dPUykWXNvH8D_2w4ptwh-191" value="" style="rounded=0;whiteSpace=wrap;html=1;strokeColor=none;fillColor=#000000;fontColor=#ffffff;strokeWidth=0.1;fontSize=3;fontFamily=Teko Light;container=0;" parent="-N0VSSiV7TkP5NyyHV97-4" vertex="1">
          <mxGeometry x="326.8" y="10.22999999999999" width="5" height="4" as="geometry" />
        </mxCell>
        <mxCell id="dPUykWXNvH8D_2w4ptwh-192" value="" style="rounded=0;whiteSpace=wrap;html=1;strokeColor=none;fillColor=#60a917;fontColor=#ffffff;strokeWidth=0.1;fontSize=3;fontFamily=Teko Light;container=0;" parent="-N0VSSiV7TkP5NyyHV97-4" vertex="1">
          <mxGeometry x="323.3" y="10.72999999999999" width="3" height="2" as="geometry" />
        </mxCell>
        <mxCell id="dPUykWXNvH8D_2w4ptwh-193" value="" style="rounded=0;whiteSpace=wrap;html=1;strokeColor=none;fillColor=#e3c800;fontColor=#000000;strokeWidth=0.1;fontSize=3;fontFamily=Teko Light;container=0;" parent="-N0VSSiV7TkP5NyyHV97-4" vertex="1">
          <mxGeometry x="332.3" y="10.72999999999999" width="3" height="2" as="geometry" />
        </mxCell>
        <mxCell id="dPUykWXNvH8D_2w4ptwh-194" value="" style="rounded=0;whiteSpace=wrap;html=1;strokeColor=none;fillColor=#222222;fontColor=#ffffff;strokeWidth=0.1;fontSize=3;fontFamily=Teko Light;container=0;" parent="-N0VSSiV7TkP5NyyHV97-4" vertex="1">
          <mxGeometry x="336.29857142857145" y="9.227576744186052" width="12" height="5" as="geometry" />
        </mxCell>
        <mxCell id="dPUykWXNvH8D_2w4ptwh-195" value="" style="rounded=0;whiteSpace=wrap;html=1;strokeColor=none;fillColor=#000000;fontColor=#ffffff;strokeWidth=0.1;fontSize=3;fontFamily=Teko Light;container=0;" parent="-N0VSSiV7TkP5NyyHV97-4" vertex="1">
          <mxGeometry x="336.2971428571429" y="13.231074995060624" width="12" height="7" as="geometry" />
        </mxCell>
        <mxCell id="dPUykWXNvH8D_2w4ptwh-196" value="" style="rounded=0;whiteSpace=wrap;html=1;strokeColor=none;fillColor=#000000;fontColor=#ffffff;strokeWidth=0.1;fontSize=3;fontFamily=Teko Light;container=0;" parent="-N0VSSiV7TkP5NyyHV97-4" vertex="1">
          <mxGeometry x="339.8" y="10.22999999999999" width="5" height="4" as="geometry" />
        </mxCell>
        <mxCell id="dPUykWXNvH8D_2w4ptwh-197" value="" style="rounded=0;whiteSpace=wrap;html=1;strokeColor=none;fillColor=#60a917;fontColor=#ffffff;strokeWidth=0.1;fontSize=3;fontFamily=Teko Light;container=0;" parent="-N0VSSiV7TkP5NyyHV97-4" vertex="1">
          <mxGeometry x="336.3" y="10.72999999999999" width="3" height="2" as="geometry" />
        </mxCell>
        <mxCell id="dPUykWXNvH8D_2w4ptwh-198" value="" style="rounded=0;whiteSpace=wrap;html=1;strokeColor=none;fillColor=#e3c800;fontColor=#000000;strokeWidth=0.1;fontSize=3;fontFamily=Teko Light;container=0;" parent="-N0VSSiV7TkP5NyyHV97-4" vertex="1">
          <mxGeometry x="345.3" y="10.72999999999999" width="3" height="2" as="geometry" />
        </mxCell>
        <mxCell id="dPUykWXNvH8D_2w4ptwh-199" value="" style="rounded=0;whiteSpace=wrap;html=1;strokeColor=none;fillColor=#222222;fontColor=#ffffff;strokeWidth=0.1;fontSize=3;fontFamily=Teko Light;container=0;" parent="-N0VSSiV7TkP5NyyHV97-4" vertex="1">
          <mxGeometry x="349.29857142857145" y="9.227576744186052" width="12" height="5" as="geometry" />
        </mxCell>
        <mxCell id="dPUykWXNvH8D_2w4ptwh-200" value="" style="rounded=0;whiteSpace=wrap;html=1;strokeColor=none;fillColor=#000000;fontColor=#ffffff;strokeWidth=0.1;fontSize=3;fontFamily=Teko Light;container=0;" parent="-N0VSSiV7TkP5NyyHV97-4" vertex="1">
          <mxGeometry x="349.2971428571429" y="13.231074995060624" width="12" height="7" as="geometry" />
        </mxCell>
        <mxCell id="dPUykWXNvH8D_2w4ptwh-201" value="" style="rounded=0;whiteSpace=wrap;html=1;strokeColor=none;fillColor=#000000;fontColor=#ffffff;strokeWidth=0.1;fontSize=3;fontFamily=Teko Light;container=0;" parent="-N0VSSiV7TkP5NyyHV97-4" vertex="1">
          <mxGeometry x="352.8" y="10.22999999999999" width="5" height="4" as="geometry" />
        </mxCell>
        <mxCell id="dPUykWXNvH8D_2w4ptwh-202" value="" style="rounded=0;whiteSpace=wrap;html=1;strokeColor=none;fillColor=#60a917;fontColor=#ffffff;strokeWidth=0.1;fontSize=3;fontFamily=Teko Light;container=0;" parent="-N0VSSiV7TkP5NyyHV97-4" vertex="1">
          <mxGeometry x="349.3" y="10.72999999999999" width="3" height="2" as="geometry" />
        </mxCell>
        <mxCell id="dPUykWXNvH8D_2w4ptwh-203" value="" style="rounded=0;whiteSpace=wrap;html=1;strokeColor=none;fillColor=#e3c800;fontColor=#000000;strokeWidth=0.1;fontSize=3;fontFamily=Teko Light;container=0;" parent="-N0VSSiV7TkP5NyyHV97-4" vertex="1">
          <mxGeometry x="358.3" y="10.72999999999999" width="3" height="2" as="geometry" />
        </mxCell>
        <mxCell id="dPUykWXNvH8D_2w4ptwh-204" value="" style="rounded=0;whiteSpace=wrap;html=1;strokeColor=none;fillColor=#222222;fontColor=#ffffff;strokeWidth=0.1;fontSize=3;fontFamily=Teko Light;container=0;" parent="-N0VSSiV7TkP5NyyHV97-4" vertex="1">
          <mxGeometry x="362.29857142857145" y="9.227576744186052" width="12" height="5" as="geometry" />
        </mxCell>
        <mxCell id="dPUykWXNvH8D_2w4ptwh-205" value="" style="rounded=0;whiteSpace=wrap;html=1;strokeColor=none;fillColor=#000000;fontColor=#ffffff;strokeWidth=0.1;fontSize=3;fontFamily=Teko Light;container=0;" parent="-N0VSSiV7TkP5NyyHV97-4" vertex="1">
          <mxGeometry x="362.2971428571429" y="13.231074995060624" width="12" height="7" as="geometry" />
        </mxCell>
        <mxCell id="dPUykWXNvH8D_2w4ptwh-206" value="" style="rounded=0;whiteSpace=wrap;html=1;strokeColor=none;fillColor=#000000;fontColor=#ffffff;strokeWidth=0.1;fontSize=3;fontFamily=Teko Light;container=0;" parent="-N0VSSiV7TkP5NyyHV97-4" vertex="1">
          <mxGeometry x="365.8" y="10.22999999999999" width="5" height="4" as="geometry" />
        </mxCell>
        <mxCell id="dPUykWXNvH8D_2w4ptwh-207" value="" style="rounded=0;whiteSpace=wrap;html=1;strokeColor=none;fillColor=#60a917;fontColor=#ffffff;strokeWidth=0.1;fontSize=3;fontFamily=Teko Light;container=0;" parent="-N0VSSiV7TkP5NyyHV97-4" vertex="1">
          <mxGeometry x="362.3" y="10.72999999999999" width="3" height="2" as="geometry" />
        </mxCell>
        <mxCell id="dPUykWXNvH8D_2w4ptwh-208" value="" style="rounded=0;whiteSpace=wrap;html=1;strokeColor=none;fillColor=#e3c800;fontColor=#000000;strokeWidth=0.1;fontSize=3;fontFamily=Teko Light;container=0;" parent="-N0VSSiV7TkP5NyyHV97-4" vertex="1">
          <mxGeometry x="371.3" y="10.72999999999999" width="3" height="2" as="geometry" />
        </mxCell>
        <mxCell id="dPUykWXNvH8D_2w4ptwh-209" value="" style="rounded=0;whiteSpace=wrap;html=1;strokeColor=none;fillColor=#222222;fontColor=#ffffff;strokeWidth=0.1;fontSize=3;fontFamily=Teko Light;container=0;" parent="-N0VSSiV7TkP5NyyHV97-4" vertex="1">
          <mxGeometry x="388.29857142857145" y="9.227576744186052" width="12" height="5" as="geometry" />
        </mxCell>
        <mxCell id="dPUykWXNvH8D_2w4ptwh-210" value="" style="rounded=0;whiteSpace=wrap;html=1;strokeColor=none;fillColor=#000000;fontColor=#ffffff;strokeWidth=0.1;fontSize=3;fontFamily=Teko Light;container=0;" parent="-N0VSSiV7TkP5NyyHV97-4" vertex="1">
          <mxGeometry x="388.2971428571429" y="13.231074995060624" width="12" height="7" as="geometry" />
        </mxCell>
        <mxCell id="dPUykWXNvH8D_2w4ptwh-211" value="" style="rounded=0;whiteSpace=wrap;html=1;strokeColor=none;fillColor=#000000;fontColor=#ffffff;strokeWidth=0.1;fontSize=3;fontFamily=Teko Light;container=0;" parent="-N0VSSiV7TkP5NyyHV97-4" vertex="1">
          <mxGeometry x="391.8" y="10.22999999999999" width="5" height="4" as="geometry" />
        </mxCell>
        <mxCell id="dPUykWXNvH8D_2w4ptwh-212" value="" style="rounded=0;whiteSpace=wrap;html=1;strokeColor=none;fillColor=#60a917;fontColor=#ffffff;strokeWidth=0.1;fontSize=3;fontFamily=Teko Light;container=0;" parent="-N0VSSiV7TkP5NyyHV97-4" vertex="1">
          <mxGeometry x="388.3" y="10.72999999999999" width="3" height="2" as="geometry" />
        </mxCell>
        <mxCell id="dPUykWXNvH8D_2w4ptwh-213" value="" style="rounded=0;whiteSpace=wrap;html=1;strokeColor=none;fillColor=#e3c800;fontColor=#000000;strokeWidth=0.1;fontSize=3;fontFamily=Teko Light;container=0;" parent="-N0VSSiV7TkP5NyyHV97-4" vertex="1">
          <mxGeometry x="397.3" y="10.72999999999999" width="3" height="2" as="geometry" />
        </mxCell>
        <mxCell id="dPUykWXNvH8D_2w4ptwh-214" value="" style="rounded=0;whiteSpace=wrap;html=1;strokeColor=none;fillColor=#222222;fontColor=#ffffff;strokeWidth=0.1;fontSize=3;fontFamily=Teko Light;container=0;" parent="-N0VSSiV7TkP5NyyHV97-4" vertex="1">
          <mxGeometry x="375.29857142857145" y="9.227576744186052" width="12" height="5" as="geometry" />
        </mxCell>
        <mxCell id="dPUykWXNvH8D_2w4ptwh-215" value="" style="rounded=0;whiteSpace=wrap;html=1;strokeColor=none;fillColor=#000000;fontColor=#ffffff;strokeWidth=0.1;fontSize=3;fontFamily=Teko Light;container=0;" parent="-N0VSSiV7TkP5NyyHV97-4" vertex="1">
          <mxGeometry x="375.2971428571429" y="13.231074995060624" width="12" height="7" as="geometry" />
        </mxCell>
        <mxCell id="dPUykWXNvH8D_2w4ptwh-216" value="" style="rounded=0;whiteSpace=wrap;html=1;strokeColor=none;fillColor=#000000;fontColor=#ffffff;strokeWidth=0.1;fontSize=3;fontFamily=Teko Light;container=0;" parent="-N0VSSiV7TkP5NyyHV97-4" vertex="1">
          <mxGeometry x="378.8" y="10.22999999999999" width="5" height="4" as="geometry" />
        </mxCell>
        <mxCell id="dPUykWXNvH8D_2w4ptwh-217" value="" style="rounded=0;whiteSpace=wrap;html=1;strokeColor=none;fillColor=#60a917;fontColor=#ffffff;strokeWidth=0.1;fontSize=3;fontFamily=Teko Light;container=0;" parent="-N0VSSiV7TkP5NyyHV97-4" vertex="1">
          <mxGeometry x="375.3" y="10.72999999999999" width="3" height="2" as="geometry" />
        </mxCell>
        <mxCell id="dPUykWXNvH8D_2w4ptwh-218" value="" style="rounded=0;whiteSpace=wrap;html=1;strokeColor=none;fillColor=#e3c800;fontColor=#000000;strokeWidth=0.1;fontSize=3;fontFamily=Teko Light;container=0;" parent="-N0VSSiV7TkP5NyyHV97-4" vertex="1">
          <mxGeometry x="384.3" y="10.72999999999999" width="3" height="2" as="geometry" />
        </mxCell>
        <mxCell id="dPUykWXNvH8D_2w4ptwh-219" value="" style="rounded=0;whiteSpace=wrap;html=1;strokeColor=none;fillColor=#222222;fontColor=#ffffff;strokeWidth=0.1;fontSize=3;fontFamily=Teko Light;container=0;rotation=-180;" parent="-N0VSSiV7TkP5NyyHV97-4" vertex="1">
          <mxGeometry x="323.2971428571429" y="30.227576744186052" width="12" height="5" as="geometry" />
        </mxCell>
        <mxCell id="dPUykWXNvH8D_2w4ptwh-220" value="" style="rounded=0;whiteSpace=wrap;html=1;strokeColor=none;fillColor=#000000;fontColor=#ffffff;strokeWidth=0.1;fontSize=3;fontFamily=Teko Light;container=0;rotation=-180;" parent="-N0VSSiV7TkP5NyyHV97-4" vertex="1">
          <mxGeometry x="323.2971428571429" y="24.227576744186052" width="12" height="7" as="geometry" />
        </mxCell>
        <mxCell id="dPUykWXNvH8D_2w4ptwh-221" value="" style="rounded=0;whiteSpace=wrap;html=1;strokeColor=none;fillColor=#000000;fontColor=#ffffff;strokeWidth=0.1;fontSize=3;fontFamily=Teko Light;container=0;rotation=-180;" parent="-N0VSSiV7TkP5NyyHV97-4" vertex="1">
          <mxGeometry x="326.7971428571429" y="30.227576744186052" width="5" height="4" as="geometry" />
        </mxCell>
        <mxCell id="dPUykWXNvH8D_2w4ptwh-222" value="" style="rounded=0;whiteSpace=wrap;html=1;strokeColor=none;fillColor=#60a917;fontColor=#ffffff;strokeWidth=0.1;fontSize=3;fontFamily=Teko Light;container=0;rotation=-180;" parent="-N0VSSiV7TkP5NyyHV97-4" vertex="1">
          <mxGeometry x="332.2971428571429" y="32.22757674418605" width="3" height="2" as="geometry" />
        </mxCell>
        <mxCell id="dPUykWXNvH8D_2w4ptwh-223" value="" style="rounded=0;whiteSpace=wrap;html=1;strokeColor=none;fillColor=#e3c800;fontColor=#000000;strokeWidth=0.1;fontSize=3;fontFamily=Teko Light;container=0;rotation=-180;" parent="-N0VSSiV7TkP5NyyHV97-4" vertex="1">
          <mxGeometry x="323.2971428571429" y="32.22757674418605" width="3" height="2" as="geometry" />
        </mxCell>
        <mxCell id="dPUykWXNvH8D_2w4ptwh-224" value="" style="rounded=0;whiteSpace=wrap;html=1;strokeColor=none;fillColor=#222222;fontColor=#ffffff;strokeWidth=0.1;fontSize=3;fontFamily=Teko Light;container=0;rotation=-180;" parent="-N0VSSiV7TkP5NyyHV97-4" vertex="1">
          <mxGeometry x="336.3" y="30.22999999999999" width="12" height="5" as="geometry" />
        </mxCell>
        <mxCell id="dPUykWXNvH8D_2w4ptwh-225" value="" style="rounded=0;whiteSpace=wrap;html=1;strokeColor=none;fillColor=#000000;fontColor=#ffffff;strokeWidth=0.1;fontSize=3;fontFamily=Teko Light;container=0;rotation=-180;" parent="-N0VSSiV7TkP5NyyHV97-4" vertex="1">
          <mxGeometry x="336.3" y="24.22999999999999" width="12" height="7" as="geometry" />
        </mxCell>
        <mxCell id="dPUykWXNvH8D_2w4ptwh-226" value="" style="rounded=0;whiteSpace=wrap;html=1;strokeColor=none;fillColor=#000000;fontColor=#ffffff;strokeWidth=0.1;fontSize=3;fontFamily=Teko Light;container=0;rotation=-180;" parent="-N0VSSiV7TkP5NyyHV97-4" vertex="1">
          <mxGeometry x="339.8" y="30.22999999999999" width="5" height="4" as="geometry" />
        </mxCell>
        <mxCell id="dPUykWXNvH8D_2w4ptwh-227" value="" style="rounded=0;whiteSpace=wrap;html=1;strokeColor=none;fillColor=#60a917;fontColor=#ffffff;strokeWidth=0.1;fontSize=3;fontFamily=Teko Light;container=0;rotation=-180;" parent="-N0VSSiV7TkP5NyyHV97-4" vertex="1">
          <mxGeometry x="345.3" y="32.22999999999999" width="3" height="2" as="geometry" />
        </mxCell>
        <mxCell id="dPUykWXNvH8D_2w4ptwh-228" value="" style="rounded=0;whiteSpace=wrap;html=1;strokeColor=none;fillColor=#e3c800;fontColor=#000000;strokeWidth=0.1;fontSize=3;fontFamily=Teko Light;container=0;rotation=-180;" parent="-N0VSSiV7TkP5NyyHV97-4" vertex="1">
          <mxGeometry x="336.3" y="32.22999999999999" width="3" height="2" as="geometry" />
        </mxCell>
        <mxCell id="dPUykWXNvH8D_2w4ptwh-229" value="" style="rounded=0;whiteSpace=wrap;html=1;strokeColor=none;fillColor=#222222;fontColor=#ffffff;strokeWidth=0.1;fontSize=3;fontFamily=Teko Light;container=0;rotation=-180;" parent="-N0VSSiV7TkP5NyyHV97-4" vertex="1">
          <mxGeometry x="362.3" y="30.22999999999999" width="12" height="5" as="geometry" />
        </mxCell>
        <mxCell id="dPUykWXNvH8D_2w4ptwh-230" value="" style="rounded=0;whiteSpace=wrap;html=1;strokeColor=none;fillColor=#000000;fontColor=#ffffff;strokeWidth=0.1;fontSize=3;fontFamily=Teko Light;container=0;rotation=-180;" parent="-N0VSSiV7TkP5NyyHV97-4" vertex="1">
          <mxGeometry x="362.3" y="24.22999999999999" width="12" height="7" as="geometry" />
        </mxCell>
        <mxCell id="dPUykWXNvH8D_2w4ptwh-231" value="" style="rounded=0;whiteSpace=wrap;html=1;strokeColor=none;fillColor=#000000;fontColor=#ffffff;strokeWidth=0.1;fontSize=3;fontFamily=Teko Light;container=0;rotation=-180;" parent="-N0VSSiV7TkP5NyyHV97-4" vertex="1">
          <mxGeometry x="365.8" y="30.22999999999999" width="5" height="4" as="geometry" />
        </mxCell>
        <mxCell id="dPUykWXNvH8D_2w4ptwh-232" value="" style="rounded=0;whiteSpace=wrap;html=1;strokeColor=none;fillColor=#60a917;fontColor=#ffffff;strokeWidth=0.1;fontSize=3;fontFamily=Teko Light;container=0;rotation=-180;" parent="-N0VSSiV7TkP5NyyHV97-4" vertex="1">
          <mxGeometry x="371.3" y="32.22999999999999" width="3" height="2" as="geometry" />
        </mxCell>
        <mxCell id="dPUykWXNvH8D_2w4ptwh-233" value="" style="rounded=0;whiteSpace=wrap;html=1;strokeColor=none;fillColor=#e3c800;fontColor=#000000;strokeWidth=0.1;fontSize=3;fontFamily=Teko Light;container=0;rotation=-180;" parent="-N0VSSiV7TkP5NyyHV97-4" vertex="1">
          <mxGeometry x="362.3" y="32.22999999999999" width="3" height="2" as="geometry" />
        </mxCell>
        <mxCell id="dPUykWXNvH8D_2w4ptwh-234" value="" style="rounded=0;whiteSpace=wrap;html=1;strokeColor=none;fillColor=#222222;fontColor=#ffffff;strokeWidth=0.1;fontSize=3;fontFamily=Teko Light;container=0;rotation=-180;" parent="-N0VSSiV7TkP5NyyHV97-4" vertex="1">
          <mxGeometry x="388.2971428571429" y="30.22999999999999" width="12" height="5" as="geometry" />
        </mxCell>
        <mxCell id="dPUykWXNvH8D_2w4ptwh-235" value="" style="rounded=0;whiteSpace=wrap;html=1;strokeColor=none;fillColor=#000000;fontColor=#ffffff;strokeWidth=0.1;fontSize=3;fontFamily=Teko Light;container=0;rotation=-180;" parent="-N0VSSiV7TkP5NyyHV97-4" vertex="1">
          <mxGeometry x="388.2971428571429" y="24.22999999999999" width="12" height="7" as="geometry" />
        </mxCell>
        <mxCell id="dPUykWXNvH8D_2w4ptwh-236" value="" style="rounded=0;whiteSpace=wrap;html=1;strokeColor=none;fillColor=#000000;fontColor=#ffffff;strokeWidth=0.1;fontSize=3;fontFamily=Teko Light;container=0;rotation=-180;" parent="-N0VSSiV7TkP5NyyHV97-4" vertex="1">
          <mxGeometry x="391.7971428571429" y="30.22999999999999" width="5" height="4" as="geometry" />
        </mxCell>
        <mxCell id="dPUykWXNvH8D_2w4ptwh-237" value="" style="rounded=0;whiteSpace=wrap;html=1;strokeColor=none;fillColor=#60a917;fontColor=#ffffff;strokeWidth=0.1;fontSize=3;fontFamily=Teko Light;container=0;rotation=-180;" parent="-N0VSSiV7TkP5NyyHV97-4" vertex="1">
          <mxGeometry x="397.2971428571429" y="32.22999999999999" width="3" height="2" as="geometry" />
        </mxCell>
        <mxCell id="dPUykWXNvH8D_2w4ptwh-238" value="" style="rounded=0;whiteSpace=wrap;html=1;strokeColor=none;fillColor=#e3c800;fontColor=#000000;strokeWidth=0.1;fontSize=3;fontFamily=Teko Light;container=0;rotation=-180;" parent="-N0VSSiV7TkP5NyyHV97-4" vertex="1">
          <mxGeometry x="388.2971428571429" y="32.22999999999999" width="3" height="2" as="geometry" />
        </mxCell>
        <mxCell id="dPUykWXNvH8D_2w4ptwh-239" value="" style="rounded=0;whiteSpace=wrap;html=1;strokeColor=none;fillColor=#222222;fontColor=#ffffff;strokeWidth=0.1;fontSize=3;fontFamily=Teko Light;container=0;rotation=-180;" parent="-N0VSSiV7TkP5NyyHV97-4" vertex="1">
          <mxGeometry x="375.3" y="30.22999999999999" width="12" height="5" as="geometry" />
        </mxCell>
        <mxCell id="dPUykWXNvH8D_2w4ptwh-240" value="" style="rounded=0;whiteSpace=wrap;html=1;strokeColor=none;fillColor=#000000;fontColor=#ffffff;strokeWidth=0.1;fontSize=3;fontFamily=Teko Light;container=0;rotation=-180;" parent="-N0VSSiV7TkP5NyyHV97-4" vertex="1">
          <mxGeometry x="375.3" y="24.22999999999999" width="12" height="7" as="geometry" />
        </mxCell>
        <mxCell id="dPUykWXNvH8D_2w4ptwh-241" value="" style="rounded=0;whiteSpace=wrap;html=1;strokeColor=none;fillColor=#000000;fontColor=#ffffff;strokeWidth=0.1;fontSize=3;fontFamily=Teko Light;container=0;rotation=-180;" parent="-N0VSSiV7TkP5NyyHV97-4" vertex="1">
          <mxGeometry x="378.8" y="30.22999999999999" width="5" height="4" as="geometry" />
        </mxCell>
        <mxCell id="dPUykWXNvH8D_2w4ptwh-242" value="" style="rounded=0;whiteSpace=wrap;html=1;strokeColor=none;fillColor=#60a917;fontColor=#ffffff;strokeWidth=0.1;fontSize=3;fontFamily=Teko Light;container=0;rotation=-180;" parent="-N0VSSiV7TkP5NyyHV97-4" vertex="1">
          <mxGeometry x="384.3" y="32.22999999999999" width="3" height="2" as="geometry" />
        </mxCell>
        <mxCell id="dPUykWXNvH8D_2w4ptwh-243" value="" style="rounded=0;whiteSpace=wrap;html=1;strokeColor=none;fillColor=#e3c800;fontColor=#000000;strokeWidth=0.1;fontSize=3;fontFamily=Teko Light;container=0;rotation=-180;" parent="-N0VSSiV7TkP5NyyHV97-4" vertex="1">
          <mxGeometry x="375.3" y="32.22999999999999" width="3" height="2" as="geometry" />
        </mxCell>
        <mxCell id="GzXCTbNvJSa9CegSDbhz-3" value="" style="rounded=0;whiteSpace=wrap;html=1;strokeColor=#000000;fillColor=#BFBFBF;fontColor=#ffffff;strokeWidth=0.1;fontSize=3;fontFamily=Teko Light;align=center;verticalAlign=middle;container=0;" parent="-N0VSSiV7TkP5NyyHV97-4" vertex="1">
          <mxGeometry x="159.3" y="8.22999999999999" width="81" height="28" as="geometry" />
        </mxCell>
        <mxCell id="GzXCTbNvJSa9CegSDbhz-4" value="" style="rounded=0;whiteSpace=wrap;html=1;strokeColor=none;fillColor=#222222;fontColor=#ffffff;strokeWidth=0.1;fontSize=3;fontFamily=Teko Light;container=0;rotation=-180;" parent="-N0VSSiV7TkP5NyyHV97-4" vertex="1">
          <mxGeometry x="187.3" y="30.22999999999999" width="12" height="5" as="geometry" />
        </mxCell>
        <mxCell id="GzXCTbNvJSa9CegSDbhz-5" value="" style="rounded=0;whiteSpace=wrap;html=1;strokeColor=none;fillColor=#000000;fontColor=#ffffff;strokeWidth=0.1;fontSize=3;fontFamily=Teko Light;container=0;rotation=-180;" parent="-N0VSSiV7TkP5NyyHV97-4" vertex="1">
          <mxGeometry x="187.3" y="24.22999999999999" width="12" height="7" as="geometry" />
        </mxCell>
        <mxCell id="GzXCTbNvJSa9CegSDbhz-6" value="" style="rounded=0;whiteSpace=wrap;html=1;strokeColor=none;fillColor=#000000;fontColor=#ffffff;strokeWidth=0.1;fontSize=3;fontFamily=Teko Light;container=0;rotation=-180;" parent="-N0VSSiV7TkP5NyyHV97-4" vertex="1">
          <mxGeometry x="190.8" y="30.22999999999999" width="5" height="4" as="geometry" />
        </mxCell>
        <mxCell id="GzXCTbNvJSa9CegSDbhz-7" value="" style="rounded=0;whiteSpace=wrap;html=1;strokeColor=none;fillColor=#60a917;fontColor=#ffffff;strokeWidth=0.1;fontSize=3;fontFamily=Teko Light;container=0;rotation=-180;" parent="-N0VSSiV7TkP5NyyHV97-4" vertex="1">
          <mxGeometry x="196.3" y="32.22999999999999" width="3" height="2" as="geometry" />
        </mxCell>
        <mxCell id="GzXCTbNvJSa9CegSDbhz-8" value="" style="rounded=0;whiteSpace=wrap;html=1;strokeColor=none;fillColor=#e3c800;fontColor=#000000;strokeWidth=0.1;fontSize=3;fontFamily=Teko Light;container=0;rotation=-180;" parent="-N0VSSiV7TkP5NyyHV97-4" vertex="1">
          <mxGeometry x="187.3" y="32.22999999999999" width="3" height="2" as="geometry" />
        </mxCell>
        <mxCell id="GzXCTbNvJSa9CegSDbhz-9" value="" style="rounded=0;whiteSpace=wrap;html=1;strokeColor=none;fillColor=#222222;fontColor=#ffffff;strokeWidth=0.1;fontSize=3;fontFamily=Teko Light;container=0;" parent="-N0VSSiV7TkP5NyyHV97-4" vertex="1">
          <mxGeometry x="161.29857142857145" y="9.227576744186052" width="12" height="5" as="geometry" />
        </mxCell>
        <mxCell id="GzXCTbNvJSa9CegSDbhz-10" value="" style="rounded=0;whiteSpace=wrap;html=1;strokeColor=none;fillColor=#000000;fontColor=#ffffff;strokeWidth=0.1;fontSize=3;fontFamily=Teko Light;container=0;" parent="-N0VSSiV7TkP5NyyHV97-4" vertex="1">
          <mxGeometry x="161.2971428571429" y="13.231074995060624" width="12" height="7" as="geometry" />
        </mxCell>
        <mxCell id="GzXCTbNvJSa9CegSDbhz-11" value="" style="rounded=0;whiteSpace=wrap;html=1;strokeColor=none;fillColor=#000000;fontColor=#ffffff;strokeWidth=0.1;fontSize=3;fontFamily=Teko Light;container=0;" parent="-N0VSSiV7TkP5NyyHV97-4" vertex="1">
          <mxGeometry x="164.8" y="10.22999999999999" width="5" height="4" as="geometry" />
        </mxCell>
        <mxCell id="GzXCTbNvJSa9CegSDbhz-12" value="" style="rounded=0;whiteSpace=wrap;html=1;strokeColor=none;fillColor=#60a917;fontColor=#ffffff;strokeWidth=0.1;fontSize=3;fontFamily=Teko Light;container=0;" parent="-N0VSSiV7TkP5NyyHV97-4" vertex="1">
          <mxGeometry x="161.3" y="10.72999999999999" width="3" height="2" as="geometry" />
        </mxCell>
        <mxCell id="GzXCTbNvJSa9CegSDbhz-13" value="" style="rounded=0;whiteSpace=wrap;html=1;strokeColor=none;fillColor=#e3c800;fontColor=#000000;strokeWidth=0.1;fontSize=3;fontFamily=Teko Light;container=0;" parent="-N0VSSiV7TkP5NyyHV97-4" vertex="1">
          <mxGeometry x="170.3" y="10.72999999999999" width="3" height="2" as="geometry" />
        </mxCell>
        <mxCell id="GzXCTbNvJSa9CegSDbhz-14" value="" style="rounded=0;whiteSpace=wrap;html=1;strokeColor=none;fillColor=#222222;fontColor=#ffffff;strokeWidth=0.1;fontSize=3;fontFamily=Teko Light;container=0;" parent="-N0VSSiV7TkP5NyyHV97-4" vertex="1">
          <mxGeometry x="174.29857142857145" y="9.227576744186052" width="12" height="5" as="geometry" />
        </mxCell>
        <mxCell id="GzXCTbNvJSa9CegSDbhz-15" value="" style="rounded=0;whiteSpace=wrap;html=1;strokeColor=none;fillColor=#000000;fontColor=#ffffff;strokeWidth=0.1;fontSize=3;fontFamily=Teko Light;container=0;" parent="-N0VSSiV7TkP5NyyHV97-4" vertex="1">
          <mxGeometry x="174.2971428571429" y="13.231074995060624" width="12" height="7" as="geometry" />
        </mxCell>
        <mxCell id="GzXCTbNvJSa9CegSDbhz-16" value="" style="rounded=0;whiteSpace=wrap;html=1;strokeColor=none;fillColor=#000000;fontColor=#ffffff;strokeWidth=0.1;fontSize=3;fontFamily=Teko Light;container=0;" parent="-N0VSSiV7TkP5NyyHV97-4" vertex="1">
          <mxGeometry x="177.8" y="10.22999999999999" width="5" height="4" as="geometry" />
        </mxCell>
        <mxCell id="GzXCTbNvJSa9CegSDbhz-17" value="" style="rounded=0;whiteSpace=wrap;html=1;strokeColor=none;fillColor=#60a917;fontColor=#ffffff;strokeWidth=0.1;fontSize=3;fontFamily=Teko Light;container=0;" parent="-N0VSSiV7TkP5NyyHV97-4" vertex="1">
          <mxGeometry x="174.3" y="10.72999999999999" width="3" height="2" as="geometry" />
        </mxCell>
        <mxCell id="GzXCTbNvJSa9CegSDbhz-18" value="" style="rounded=0;whiteSpace=wrap;html=1;strokeColor=none;fillColor=#e3c800;fontColor=#000000;strokeWidth=0.1;fontSize=3;fontFamily=Teko Light;container=0;" parent="-N0VSSiV7TkP5NyyHV97-4" vertex="1">
          <mxGeometry x="183.3" y="10.72999999999999" width="3" height="2" as="geometry" />
        </mxCell>
        <mxCell id="GzXCTbNvJSa9CegSDbhz-19" value="" style="rounded=0;whiteSpace=wrap;html=1;strokeColor=none;fillColor=#222222;fontColor=#ffffff;strokeWidth=0.1;fontSize=3;fontFamily=Teko Light;container=0;" parent="-N0VSSiV7TkP5NyyHV97-4" vertex="1">
          <mxGeometry x="187.29857142857145" y="9.227576744186052" width="12" height="5" as="geometry" />
        </mxCell>
        <mxCell id="GzXCTbNvJSa9CegSDbhz-20" value="" style="rounded=0;whiteSpace=wrap;html=1;strokeColor=none;fillColor=#000000;fontColor=#ffffff;strokeWidth=0.1;fontSize=3;fontFamily=Teko Light;container=0;" parent="-N0VSSiV7TkP5NyyHV97-4" vertex="1">
          <mxGeometry x="187.2971428571429" y="13.231074995060624" width="12" height="7" as="geometry" />
        </mxCell>
        <mxCell id="GzXCTbNvJSa9CegSDbhz-21" value="" style="rounded=0;whiteSpace=wrap;html=1;strokeColor=none;fillColor=#000000;fontColor=#ffffff;strokeWidth=0.1;fontSize=3;fontFamily=Teko Light;container=0;" parent="-N0VSSiV7TkP5NyyHV97-4" vertex="1">
          <mxGeometry x="190.8" y="10.22999999999999" width="5" height="4" as="geometry" />
        </mxCell>
        <mxCell id="GzXCTbNvJSa9CegSDbhz-22" value="" style="rounded=0;whiteSpace=wrap;html=1;strokeColor=none;fillColor=#60a917;fontColor=#ffffff;strokeWidth=0.1;fontSize=3;fontFamily=Teko Light;container=0;" parent="-N0VSSiV7TkP5NyyHV97-4" vertex="1">
          <mxGeometry x="187.3" y="10.72999999999999" width="3" height="2" as="geometry" />
        </mxCell>
        <mxCell id="GzXCTbNvJSa9CegSDbhz-23" value="" style="rounded=0;whiteSpace=wrap;html=1;strokeColor=none;fillColor=#e3c800;fontColor=#000000;strokeWidth=0.1;fontSize=3;fontFamily=Teko Light;container=0;" parent="-N0VSSiV7TkP5NyyHV97-4" vertex="1">
          <mxGeometry x="196.3" y="10.72999999999999" width="3" height="2" as="geometry" />
        </mxCell>
        <mxCell id="GzXCTbNvJSa9CegSDbhz-24" value="" style="rounded=0;whiteSpace=wrap;html=1;strokeColor=none;fillColor=#222222;fontColor=#ffffff;strokeWidth=0.1;fontSize=3;fontFamily=Teko Light;container=0;" parent="-N0VSSiV7TkP5NyyHV97-4" vertex="1">
          <mxGeometry x="200.29857142857145" y="9.227576744186052" width="12" height="5" as="geometry" />
        </mxCell>
        <mxCell id="GzXCTbNvJSa9CegSDbhz-25" value="" style="rounded=0;whiteSpace=wrap;html=1;strokeColor=none;fillColor=#000000;fontColor=#ffffff;strokeWidth=0.1;fontSize=3;fontFamily=Teko Light;container=0;" parent="-N0VSSiV7TkP5NyyHV97-4" vertex="1">
          <mxGeometry x="200.2971428571429" y="13.231074995060624" width="12" height="7" as="geometry" />
        </mxCell>
        <mxCell id="GzXCTbNvJSa9CegSDbhz-26" value="" style="rounded=0;whiteSpace=wrap;html=1;strokeColor=none;fillColor=#000000;fontColor=#ffffff;strokeWidth=0.1;fontSize=3;fontFamily=Teko Light;container=0;" parent="-N0VSSiV7TkP5NyyHV97-4" vertex="1">
          <mxGeometry x="203.8" y="10.22999999999999" width="5" height="4" as="geometry" />
        </mxCell>
        <mxCell id="GzXCTbNvJSa9CegSDbhz-27" value="" style="rounded=0;whiteSpace=wrap;html=1;strokeColor=none;fillColor=#60a917;fontColor=#ffffff;strokeWidth=0.1;fontSize=3;fontFamily=Teko Light;container=0;" parent="-N0VSSiV7TkP5NyyHV97-4" vertex="1">
          <mxGeometry x="200.3" y="10.72999999999999" width="3" height="2" as="geometry" />
        </mxCell>
        <mxCell id="GzXCTbNvJSa9CegSDbhz-28" value="" style="rounded=0;whiteSpace=wrap;html=1;strokeColor=none;fillColor=#e3c800;fontColor=#000000;strokeWidth=0.1;fontSize=3;fontFamily=Teko Light;container=0;" parent="-N0VSSiV7TkP5NyyHV97-4" vertex="1">
          <mxGeometry x="209.3" y="10.72999999999999" width="3" height="2" as="geometry" />
        </mxCell>
        <mxCell id="GzXCTbNvJSa9CegSDbhz-29" value="" style="rounded=0;whiteSpace=wrap;html=1;strokeColor=none;fillColor=#222222;fontColor=#ffffff;strokeWidth=0.1;fontSize=3;fontFamily=Teko Light;container=0;" parent="-N0VSSiV7TkP5NyyHV97-4" vertex="1">
          <mxGeometry x="226.29857142857145" y="9.227576744186052" width="12" height="5" as="geometry" />
        </mxCell>
        <mxCell id="GzXCTbNvJSa9CegSDbhz-30" value="" style="rounded=0;whiteSpace=wrap;html=1;strokeColor=none;fillColor=#000000;fontColor=#ffffff;strokeWidth=0.1;fontSize=3;fontFamily=Teko Light;container=0;" parent="-N0VSSiV7TkP5NyyHV97-4" vertex="1">
          <mxGeometry x="226.2971428571429" y="13.231074995060624" width="12" height="7" as="geometry" />
        </mxCell>
        <mxCell id="GzXCTbNvJSa9CegSDbhz-31" value="" style="rounded=0;whiteSpace=wrap;html=1;strokeColor=none;fillColor=#000000;fontColor=#ffffff;strokeWidth=0.1;fontSize=3;fontFamily=Teko Light;container=0;" parent="-N0VSSiV7TkP5NyyHV97-4" vertex="1">
          <mxGeometry x="229.8" y="10.22999999999999" width="5" height="4" as="geometry" />
        </mxCell>
        <mxCell id="GzXCTbNvJSa9CegSDbhz-32" value="" style="rounded=0;whiteSpace=wrap;html=1;strokeColor=none;fillColor=#60a917;fontColor=#ffffff;strokeWidth=0.1;fontSize=3;fontFamily=Teko Light;container=0;" parent="-N0VSSiV7TkP5NyyHV97-4" vertex="1">
          <mxGeometry x="226.3" y="10.72999999999999" width="3" height="2" as="geometry" />
        </mxCell>
        <mxCell id="GzXCTbNvJSa9CegSDbhz-33" value="" style="rounded=0;whiteSpace=wrap;html=1;strokeColor=none;fillColor=#e3c800;fontColor=#000000;strokeWidth=0.1;fontSize=3;fontFamily=Teko Light;container=0;" parent="-N0VSSiV7TkP5NyyHV97-4" vertex="1">
          <mxGeometry x="235.3" y="10.72999999999999" width="3" height="2" as="geometry" />
        </mxCell>
        <mxCell id="GzXCTbNvJSa9CegSDbhz-34" value="" style="rounded=0;whiteSpace=wrap;html=1;strokeColor=none;fillColor=#222222;fontColor=#ffffff;strokeWidth=0.1;fontSize=3;fontFamily=Teko Light;container=0;" parent="-N0VSSiV7TkP5NyyHV97-4" vertex="1">
          <mxGeometry x="213.29857142857145" y="9.227576744186052" width="12" height="5" as="geometry" />
        </mxCell>
        <mxCell id="GzXCTbNvJSa9CegSDbhz-35" value="" style="rounded=0;whiteSpace=wrap;html=1;strokeColor=none;fillColor=#000000;fontColor=#ffffff;strokeWidth=0.1;fontSize=3;fontFamily=Teko Light;container=0;" parent="-N0VSSiV7TkP5NyyHV97-4" vertex="1">
          <mxGeometry x="213.2971428571429" y="13.231074995060624" width="12" height="7" as="geometry" />
        </mxCell>
        <mxCell id="GzXCTbNvJSa9CegSDbhz-36" value="" style="rounded=0;whiteSpace=wrap;html=1;strokeColor=none;fillColor=#000000;fontColor=#ffffff;strokeWidth=0.1;fontSize=3;fontFamily=Teko Light;container=0;" parent="-N0VSSiV7TkP5NyyHV97-4" vertex="1">
          <mxGeometry x="216.8" y="10.22999999999999" width="5" height="4" as="geometry" />
        </mxCell>
        <mxCell id="GzXCTbNvJSa9CegSDbhz-37" value="" style="rounded=0;whiteSpace=wrap;html=1;strokeColor=none;fillColor=#60a917;fontColor=#ffffff;strokeWidth=0.1;fontSize=3;fontFamily=Teko Light;container=0;" parent="-N0VSSiV7TkP5NyyHV97-4" vertex="1">
          <mxGeometry x="213.3" y="10.72999999999999" width="3" height="2" as="geometry" />
        </mxCell>
        <mxCell id="GzXCTbNvJSa9CegSDbhz-38" value="" style="rounded=0;whiteSpace=wrap;html=1;strokeColor=none;fillColor=#e3c800;fontColor=#000000;strokeWidth=0.1;fontSize=3;fontFamily=Teko Light;container=0;" parent="-N0VSSiV7TkP5NyyHV97-4" vertex="1">
          <mxGeometry x="222.3" y="10.72999999999999" width="3" height="2" as="geometry" />
        </mxCell>
        <mxCell id="GzXCTbNvJSa9CegSDbhz-39" value="" style="rounded=0;whiteSpace=wrap;html=1;strokeColor=none;fillColor=#222222;fontColor=#ffffff;strokeWidth=0.1;fontSize=3;fontFamily=Teko Light;container=0;rotation=-180;" parent="-N0VSSiV7TkP5NyyHV97-4" vertex="1">
          <mxGeometry x="161.2971428571429" y="30.227576744186052" width="12" height="5" as="geometry" />
        </mxCell>
        <mxCell id="GzXCTbNvJSa9CegSDbhz-40" value="" style="rounded=0;whiteSpace=wrap;html=1;strokeColor=none;fillColor=#000000;fontColor=#ffffff;strokeWidth=0.1;fontSize=3;fontFamily=Teko Light;container=0;rotation=-180;" parent="-N0VSSiV7TkP5NyyHV97-4" vertex="1">
          <mxGeometry x="161.2971428571429" y="24.227576744186052" width="12" height="7" as="geometry" />
        </mxCell>
        <mxCell id="GzXCTbNvJSa9CegSDbhz-41" value="" style="rounded=0;whiteSpace=wrap;html=1;strokeColor=none;fillColor=#000000;fontColor=#ffffff;strokeWidth=0.1;fontSize=3;fontFamily=Teko Light;container=0;rotation=-180;" parent="-N0VSSiV7TkP5NyyHV97-4" vertex="1">
          <mxGeometry x="164.7971428571429" y="30.227576744186052" width="5" height="4" as="geometry" />
        </mxCell>
        <mxCell id="GzXCTbNvJSa9CegSDbhz-42" value="" style="rounded=0;whiteSpace=wrap;html=1;strokeColor=none;fillColor=#60a917;fontColor=#ffffff;strokeWidth=0.1;fontSize=3;fontFamily=Teko Light;container=0;rotation=-180;" parent="-N0VSSiV7TkP5NyyHV97-4" vertex="1">
          <mxGeometry x="170.2971428571429" y="32.22757674418605" width="3" height="2" as="geometry" />
        </mxCell>
        <mxCell id="GzXCTbNvJSa9CegSDbhz-43" value="" style="rounded=0;whiteSpace=wrap;html=1;strokeColor=none;fillColor=#e3c800;fontColor=#000000;strokeWidth=0.1;fontSize=3;fontFamily=Teko Light;container=0;rotation=-180;" parent="-N0VSSiV7TkP5NyyHV97-4" vertex="1">
          <mxGeometry x="161.2971428571429" y="32.22757674418605" width="3" height="2" as="geometry" />
        </mxCell>
        <mxCell id="GzXCTbNvJSa9CegSDbhz-44" value="" style="rounded=0;whiteSpace=wrap;html=1;strokeColor=none;fillColor=#222222;fontColor=#ffffff;strokeWidth=0.1;fontSize=3;fontFamily=Teko Light;container=0;rotation=-180;" parent="-N0VSSiV7TkP5NyyHV97-4" vertex="1">
          <mxGeometry x="174.3" y="30.22999999999999" width="12" height="5" as="geometry" />
        </mxCell>
        <mxCell id="GzXCTbNvJSa9CegSDbhz-45" value="" style="rounded=0;whiteSpace=wrap;html=1;strokeColor=none;fillColor=#000000;fontColor=#ffffff;strokeWidth=0.1;fontSize=3;fontFamily=Teko Light;container=0;rotation=-180;" parent="-N0VSSiV7TkP5NyyHV97-4" vertex="1">
          <mxGeometry x="174.3" y="24.22999999999999" width="12" height="7" as="geometry" />
        </mxCell>
        <mxCell id="GzXCTbNvJSa9CegSDbhz-46" value="" style="rounded=0;whiteSpace=wrap;html=1;strokeColor=none;fillColor=#000000;fontColor=#ffffff;strokeWidth=0.1;fontSize=3;fontFamily=Teko Light;container=0;rotation=-180;" parent="-N0VSSiV7TkP5NyyHV97-4" vertex="1">
          <mxGeometry x="177.8" y="30.22999999999999" width="5" height="4" as="geometry" />
        </mxCell>
        <mxCell id="GzXCTbNvJSa9CegSDbhz-47" value="" style="rounded=0;whiteSpace=wrap;html=1;strokeColor=none;fillColor=#60a917;fontColor=#ffffff;strokeWidth=0.1;fontSize=3;fontFamily=Teko Light;container=0;rotation=-180;" parent="-N0VSSiV7TkP5NyyHV97-4" vertex="1">
          <mxGeometry x="183.3" y="32.22999999999999" width="3" height="2" as="geometry" />
        </mxCell>
        <mxCell id="GzXCTbNvJSa9CegSDbhz-48" value="" style="rounded=0;whiteSpace=wrap;html=1;strokeColor=none;fillColor=#e3c800;fontColor=#000000;strokeWidth=0.1;fontSize=3;fontFamily=Teko Light;container=0;rotation=-180;" parent="-N0VSSiV7TkP5NyyHV97-4" vertex="1">
          <mxGeometry x="174.3" y="32.22999999999999" width="3" height="2" as="geometry" />
        </mxCell>
        <mxCell id="GzXCTbNvJSa9CegSDbhz-49" value="" style="rounded=0;whiteSpace=wrap;html=1;strokeColor=none;fillColor=#222222;fontColor=#ffffff;strokeWidth=0.1;fontSize=3;fontFamily=Teko Light;container=0;rotation=-180;" parent="-N0VSSiV7TkP5NyyHV97-4" vertex="1">
          <mxGeometry x="200.3" y="30.22999999999999" width="12" height="5" as="geometry" />
        </mxCell>
        <mxCell id="GzXCTbNvJSa9CegSDbhz-50" value="" style="rounded=0;whiteSpace=wrap;html=1;strokeColor=none;fillColor=#000000;fontColor=#ffffff;strokeWidth=0.1;fontSize=3;fontFamily=Teko Light;container=0;rotation=-180;" parent="-N0VSSiV7TkP5NyyHV97-4" vertex="1">
          <mxGeometry x="200.3" y="24.22999999999999" width="12" height="7" as="geometry" />
        </mxCell>
        <mxCell id="GzXCTbNvJSa9CegSDbhz-51" value="" style="rounded=0;whiteSpace=wrap;html=1;strokeColor=none;fillColor=#000000;fontColor=#ffffff;strokeWidth=0.1;fontSize=3;fontFamily=Teko Light;container=0;rotation=-180;" parent="-N0VSSiV7TkP5NyyHV97-4" vertex="1">
          <mxGeometry x="203.8" y="30.22999999999999" width="5" height="4" as="geometry" />
        </mxCell>
        <mxCell id="GzXCTbNvJSa9CegSDbhz-52" value="" style="rounded=0;whiteSpace=wrap;html=1;strokeColor=none;fillColor=#60a917;fontColor=#ffffff;strokeWidth=0.1;fontSize=3;fontFamily=Teko Light;container=0;rotation=-180;" parent="-N0VSSiV7TkP5NyyHV97-4" vertex="1">
          <mxGeometry x="209.3" y="32.22999999999999" width="3" height="2" as="geometry" />
        </mxCell>
        <mxCell id="GzXCTbNvJSa9CegSDbhz-53" value="" style="rounded=0;whiteSpace=wrap;html=1;strokeColor=none;fillColor=#e3c800;fontColor=#000000;strokeWidth=0.1;fontSize=3;fontFamily=Teko Light;container=0;rotation=-180;" parent="-N0VSSiV7TkP5NyyHV97-4" vertex="1">
          <mxGeometry x="200.3" y="32.22999999999999" width="3" height="2" as="geometry" />
        </mxCell>
        <mxCell id="GzXCTbNvJSa9CegSDbhz-54" value="" style="rounded=0;whiteSpace=wrap;html=1;strokeColor=none;fillColor=#222222;fontColor=#ffffff;strokeWidth=0.1;fontSize=3;fontFamily=Teko Light;container=0;rotation=-180;" parent="-N0VSSiV7TkP5NyyHV97-4" vertex="1">
          <mxGeometry x="226.2971428571429" y="30.22999999999999" width="12" height="5" as="geometry" />
        </mxCell>
        <mxCell id="GzXCTbNvJSa9CegSDbhz-55" value="" style="rounded=0;whiteSpace=wrap;html=1;strokeColor=none;fillColor=#000000;fontColor=#ffffff;strokeWidth=0.1;fontSize=3;fontFamily=Teko Light;container=0;rotation=-180;" parent="-N0VSSiV7TkP5NyyHV97-4" vertex="1">
          <mxGeometry x="226.2971428571429" y="24.22999999999999" width="12" height="7" as="geometry" />
        </mxCell>
        <mxCell id="GzXCTbNvJSa9CegSDbhz-56" value="" style="rounded=0;whiteSpace=wrap;html=1;strokeColor=none;fillColor=#000000;fontColor=#ffffff;strokeWidth=0.1;fontSize=3;fontFamily=Teko Light;container=0;rotation=-180;" parent="-N0VSSiV7TkP5NyyHV97-4" vertex="1">
          <mxGeometry x="229.7971428571429" y="30.22999999999999" width="5" height="4" as="geometry" />
        </mxCell>
        <mxCell id="GzXCTbNvJSa9CegSDbhz-57" value="" style="rounded=0;whiteSpace=wrap;html=1;strokeColor=none;fillColor=#60a917;fontColor=#ffffff;strokeWidth=0.1;fontSize=3;fontFamily=Teko Light;container=0;rotation=-180;" parent="-N0VSSiV7TkP5NyyHV97-4" vertex="1">
          <mxGeometry x="235.2971428571429" y="32.22999999999999" width="3" height="2" as="geometry" />
        </mxCell>
        <mxCell id="GzXCTbNvJSa9CegSDbhz-58" value="" style="rounded=0;whiteSpace=wrap;html=1;strokeColor=none;fillColor=#e3c800;fontColor=#000000;strokeWidth=0.1;fontSize=3;fontFamily=Teko Light;container=0;rotation=-180;" parent="-N0VSSiV7TkP5NyyHV97-4" vertex="1">
          <mxGeometry x="226.2971428571429" y="32.22999999999999" width="3" height="2" as="geometry" />
        </mxCell>
        <mxCell id="GzXCTbNvJSa9CegSDbhz-59" value="" style="rounded=0;whiteSpace=wrap;html=1;strokeColor=none;fillColor=#222222;fontColor=#ffffff;strokeWidth=0.1;fontSize=3;fontFamily=Teko Light;container=0;rotation=-180;" parent="-N0VSSiV7TkP5NyyHV97-4" vertex="1">
          <mxGeometry x="213.3" y="30.22999999999999" width="12" height="5" as="geometry" />
        </mxCell>
        <mxCell id="GzXCTbNvJSa9CegSDbhz-60" value="" style="rounded=0;whiteSpace=wrap;html=1;strokeColor=none;fillColor=#000000;fontColor=#ffffff;strokeWidth=0.1;fontSize=3;fontFamily=Teko Light;container=0;rotation=-180;" parent="-N0VSSiV7TkP5NyyHV97-4" vertex="1">
          <mxGeometry x="213.3" y="24.22999999999999" width="12" height="7" as="geometry" />
        </mxCell>
        <mxCell id="GzXCTbNvJSa9CegSDbhz-61" value="" style="rounded=0;whiteSpace=wrap;html=1;strokeColor=none;fillColor=#000000;fontColor=#ffffff;strokeWidth=0.1;fontSize=3;fontFamily=Teko Light;container=0;rotation=-180;" parent="-N0VSSiV7TkP5NyyHV97-4" vertex="1">
          <mxGeometry x="216.8" y="30.22999999999999" width="5" height="4" as="geometry" />
        </mxCell>
        <mxCell id="GzXCTbNvJSa9CegSDbhz-62" value="" style="rounded=0;whiteSpace=wrap;html=1;strokeColor=none;fillColor=#60a917;fontColor=#ffffff;strokeWidth=0.1;fontSize=3;fontFamily=Teko Light;container=0;rotation=-180;" parent="-N0VSSiV7TkP5NyyHV97-4" vertex="1">
          <mxGeometry x="222.3" y="32.22999999999999" width="3" height="2" as="geometry" />
        </mxCell>
        <mxCell id="GzXCTbNvJSa9CegSDbhz-63" value="" style="rounded=0;whiteSpace=wrap;html=1;strokeColor=none;fillColor=#e3c800;fontColor=#000000;strokeWidth=0.1;fontSize=3;fontFamily=Teko Light;container=0;rotation=-180;" parent="-N0VSSiV7TkP5NyyHV97-4" vertex="1">
          <mxGeometry x="213.3" y="32.22999999999999" width="3" height="2" as="geometry" />
        </mxCell>
        <mxCell id="GzXCTbNvJSa9CegSDbhz-78" value="" style="rounded=0;whiteSpace=wrap;html=1;strokeColor=#000000;fillColor=#BFBFBF;fontColor=#ffffff;strokeWidth=0.1;fontSize=3;fontFamily=Teko Light;align=center;verticalAlign=middle;container=0;" parent="-N0VSSiV7TkP5NyyHV97-4" vertex="1">
          <mxGeometry x="78.3" y="8.22999999999999" width="81" height="28" as="geometry" />
        </mxCell>
        <mxCell id="GzXCTbNvJSa9CegSDbhz-79" value="" style="rounded=0;whiteSpace=wrap;html=1;strokeColor=none;fillColor=#222222;fontColor=#ffffff;strokeWidth=0.1;fontSize=3;fontFamily=Teko Light;container=0;rotation=-180;" parent="-N0VSSiV7TkP5NyyHV97-4" vertex="1">
          <mxGeometry x="106.3" y="30.22999999999999" width="12" height="5" as="geometry" />
        </mxCell>
        <mxCell id="GzXCTbNvJSa9CegSDbhz-80" value="" style="rounded=0;whiteSpace=wrap;html=1;strokeColor=none;fillColor=#000000;fontColor=#ffffff;strokeWidth=0.1;fontSize=3;fontFamily=Teko Light;container=0;rotation=-180;" parent="-N0VSSiV7TkP5NyyHV97-4" vertex="1">
          <mxGeometry x="106.3" y="24.22999999999999" width="12" height="7" as="geometry" />
        </mxCell>
        <mxCell id="GzXCTbNvJSa9CegSDbhz-81" value="" style="rounded=0;whiteSpace=wrap;html=1;strokeColor=none;fillColor=#000000;fontColor=#ffffff;strokeWidth=0.1;fontSize=3;fontFamily=Teko Light;container=0;rotation=-180;" parent="-N0VSSiV7TkP5NyyHV97-4" vertex="1">
          <mxGeometry x="109.8" y="30.22999999999999" width="5" height="4" as="geometry" />
        </mxCell>
        <mxCell id="GzXCTbNvJSa9CegSDbhz-82" value="" style="rounded=0;whiteSpace=wrap;html=1;strokeColor=none;fillColor=#60a917;fontColor=#ffffff;strokeWidth=0.1;fontSize=3;fontFamily=Teko Light;container=0;rotation=-180;" parent="-N0VSSiV7TkP5NyyHV97-4" vertex="1">
          <mxGeometry x="115.3" y="32.22999999999999" width="3" height="2" as="geometry" />
        </mxCell>
        <mxCell id="GzXCTbNvJSa9CegSDbhz-83" value="" style="rounded=0;whiteSpace=wrap;html=1;strokeColor=none;fillColor=#e3c800;fontColor=#000000;strokeWidth=0.1;fontSize=3;fontFamily=Teko Light;container=0;rotation=-180;" parent="-N0VSSiV7TkP5NyyHV97-4" vertex="1">
          <mxGeometry x="106.3" y="32.22999999999999" width="3" height="2" as="geometry" />
        </mxCell>
        <mxCell id="GzXCTbNvJSa9CegSDbhz-84" value="" style="rounded=0;whiteSpace=wrap;html=1;strokeColor=none;fillColor=#222222;fontColor=#ffffff;strokeWidth=0.1;fontSize=3;fontFamily=Teko Light;container=0;" parent="-N0VSSiV7TkP5NyyHV97-4" vertex="1">
          <mxGeometry x="80.29857142857144" y="9.227576744186052" width="12" height="5" as="geometry" />
        </mxCell>
        <mxCell id="GzXCTbNvJSa9CegSDbhz-85" value="" style="rounded=0;whiteSpace=wrap;html=1;strokeColor=none;fillColor=#000000;fontColor=#ffffff;strokeWidth=0.1;fontSize=3;fontFamily=Teko Light;container=0;" parent="-N0VSSiV7TkP5NyyHV97-4" vertex="1">
          <mxGeometry x="80.29714285714287" y="13.231074995060624" width="12" height="7" as="geometry" />
        </mxCell>
        <mxCell id="GzXCTbNvJSa9CegSDbhz-86" value="" style="rounded=0;whiteSpace=wrap;html=1;strokeColor=none;fillColor=#000000;fontColor=#ffffff;strokeWidth=0.1;fontSize=3;fontFamily=Teko Light;container=0;" parent="-N0VSSiV7TkP5NyyHV97-4" vertex="1">
          <mxGeometry x="83.8" y="10.22999999999999" width="5" height="4" as="geometry" />
        </mxCell>
        <mxCell id="GzXCTbNvJSa9CegSDbhz-87" value="" style="rounded=0;whiteSpace=wrap;html=1;strokeColor=none;fillColor=#60a917;fontColor=#ffffff;strokeWidth=0.1;fontSize=3;fontFamily=Teko Light;container=0;" parent="-N0VSSiV7TkP5NyyHV97-4" vertex="1">
          <mxGeometry x="80.3" y="10.72999999999999" width="3" height="2" as="geometry" />
        </mxCell>
        <mxCell id="GzXCTbNvJSa9CegSDbhz-88" value="" style="rounded=0;whiteSpace=wrap;html=1;strokeColor=none;fillColor=#e3c800;fontColor=#000000;strokeWidth=0.1;fontSize=3;fontFamily=Teko Light;container=0;" parent="-N0VSSiV7TkP5NyyHV97-4" vertex="1">
          <mxGeometry x="89.3" y="10.72999999999999" width="3" height="2" as="geometry" />
        </mxCell>
        <mxCell id="GzXCTbNvJSa9CegSDbhz-89" value="" style="rounded=0;whiteSpace=wrap;html=1;strokeColor=none;fillColor=#222222;fontColor=#ffffff;strokeWidth=0.1;fontSize=3;fontFamily=Teko Light;container=0;" parent="-N0VSSiV7TkP5NyyHV97-4" vertex="1">
          <mxGeometry x="93.29857142857144" y="9.227576744186052" width="12" height="5" as="geometry" />
        </mxCell>
        <mxCell id="GzXCTbNvJSa9CegSDbhz-90" value="" style="rounded=0;whiteSpace=wrap;html=1;strokeColor=none;fillColor=#000000;fontColor=#ffffff;strokeWidth=0.1;fontSize=3;fontFamily=Teko Light;container=0;" parent="-N0VSSiV7TkP5NyyHV97-4" vertex="1">
          <mxGeometry x="93.29714285714287" y="13.231074995060624" width="12" height="7" as="geometry" />
        </mxCell>
        <mxCell id="GzXCTbNvJSa9CegSDbhz-91" value="" style="rounded=0;whiteSpace=wrap;html=1;strokeColor=none;fillColor=#000000;fontColor=#ffffff;strokeWidth=0.1;fontSize=3;fontFamily=Teko Light;container=0;" parent="-N0VSSiV7TkP5NyyHV97-4" vertex="1">
          <mxGeometry x="96.8" y="10.22999999999999" width="5" height="4" as="geometry" />
        </mxCell>
        <mxCell id="GzXCTbNvJSa9CegSDbhz-92" value="" style="rounded=0;whiteSpace=wrap;html=1;strokeColor=none;fillColor=#60a917;fontColor=#ffffff;strokeWidth=0.1;fontSize=3;fontFamily=Teko Light;container=0;" parent="-N0VSSiV7TkP5NyyHV97-4" vertex="1">
          <mxGeometry x="93.3" y="10.72999999999999" width="3" height="2" as="geometry" />
        </mxCell>
        <mxCell id="GzXCTbNvJSa9CegSDbhz-93" value="" style="rounded=0;whiteSpace=wrap;html=1;strokeColor=none;fillColor=#e3c800;fontColor=#000000;strokeWidth=0.1;fontSize=3;fontFamily=Teko Light;container=0;" parent="-N0VSSiV7TkP5NyyHV97-4" vertex="1">
          <mxGeometry x="102.3" y="10.72999999999999" width="3" height="2" as="geometry" />
        </mxCell>
        <mxCell id="GzXCTbNvJSa9CegSDbhz-94" value="" style="rounded=0;whiteSpace=wrap;html=1;strokeColor=none;fillColor=#222222;fontColor=#ffffff;strokeWidth=0.1;fontSize=3;fontFamily=Teko Light;container=0;" parent="-N0VSSiV7TkP5NyyHV97-4" vertex="1">
          <mxGeometry x="106.29857142857144" y="9.227576744186052" width="12" height="5" as="geometry" />
        </mxCell>
        <mxCell id="GzXCTbNvJSa9CegSDbhz-95" value="" style="rounded=0;whiteSpace=wrap;html=1;strokeColor=none;fillColor=#000000;fontColor=#ffffff;strokeWidth=0.1;fontSize=3;fontFamily=Teko Light;container=0;" parent="-N0VSSiV7TkP5NyyHV97-4" vertex="1">
          <mxGeometry x="106.29714285714287" y="13.231074995060624" width="12" height="7" as="geometry" />
        </mxCell>
        <mxCell id="GzXCTbNvJSa9CegSDbhz-96" value="" style="rounded=0;whiteSpace=wrap;html=1;strokeColor=none;fillColor=#000000;fontColor=#ffffff;strokeWidth=0.1;fontSize=3;fontFamily=Teko Light;container=0;" parent="-N0VSSiV7TkP5NyyHV97-4" vertex="1">
          <mxGeometry x="109.8" y="10.22999999999999" width="5" height="4" as="geometry" />
        </mxCell>
        <mxCell id="GzXCTbNvJSa9CegSDbhz-97" value="" style="rounded=0;whiteSpace=wrap;html=1;strokeColor=none;fillColor=#60a917;fontColor=#ffffff;strokeWidth=0.1;fontSize=3;fontFamily=Teko Light;container=0;" parent="-N0VSSiV7TkP5NyyHV97-4" vertex="1">
          <mxGeometry x="106.3" y="10.72999999999999" width="3" height="2" as="geometry" />
        </mxCell>
        <mxCell id="GzXCTbNvJSa9CegSDbhz-98" value="" style="rounded=0;whiteSpace=wrap;html=1;strokeColor=none;fillColor=#e3c800;fontColor=#000000;strokeWidth=0.1;fontSize=3;fontFamily=Teko Light;container=0;" parent="-N0VSSiV7TkP5NyyHV97-4" vertex="1">
          <mxGeometry x="115.3" y="10.72999999999999" width="3" height="2" as="geometry" />
        </mxCell>
        <mxCell id="GzXCTbNvJSa9CegSDbhz-99" value="" style="rounded=0;whiteSpace=wrap;html=1;strokeColor=none;fillColor=#222222;fontColor=#ffffff;strokeWidth=0.1;fontSize=3;fontFamily=Teko Light;container=0;" parent="-N0VSSiV7TkP5NyyHV97-4" vertex="1">
          <mxGeometry x="119.29857142857145" y="9.227576744186052" width="12" height="5" as="geometry" />
        </mxCell>
        <mxCell id="GzXCTbNvJSa9CegSDbhz-100" value="" style="rounded=0;whiteSpace=wrap;html=1;strokeColor=none;fillColor=#000000;fontColor=#ffffff;strokeWidth=0.1;fontSize=3;fontFamily=Teko Light;container=0;" parent="-N0VSSiV7TkP5NyyHV97-4" vertex="1">
          <mxGeometry x="119.29714285714289" y="13.231074995060624" width="12" height="7" as="geometry" />
        </mxCell>
        <mxCell id="GzXCTbNvJSa9CegSDbhz-101" value="" style="rounded=0;whiteSpace=wrap;html=1;strokeColor=none;fillColor=#000000;fontColor=#ffffff;strokeWidth=0.1;fontSize=3;fontFamily=Teko Light;container=0;" parent="-N0VSSiV7TkP5NyyHV97-4" vertex="1">
          <mxGeometry x="122.80000000000001" y="10.22999999999999" width="5" height="4" as="geometry" />
        </mxCell>
        <mxCell id="GzXCTbNvJSa9CegSDbhz-102" value="" style="rounded=0;whiteSpace=wrap;html=1;strokeColor=none;fillColor=#60a917;fontColor=#ffffff;strokeWidth=0.1;fontSize=3;fontFamily=Teko Light;container=0;" parent="-N0VSSiV7TkP5NyyHV97-4" vertex="1">
          <mxGeometry x="119.30000000000001" y="10.72999999999999" width="3" height="2" as="geometry" />
        </mxCell>
        <mxCell id="GzXCTbNvJSa9CegSDbhz-103" value="" style="rounded=0;whiteSpace=wrap;html=1;strokeColor=none;fillColor=#e3c800;fontColor=#000000;strokeWidth=0.1;fontSize=3;fontFamily=Teko Light;container=0;" parent="-N0VSSiV7TkP5NyyHV97-4" vertex="1">
          <mxGeometry x="128.3" y="10.72999999999999" width="3" height="2" as="geometry" />
        </mxCell>
        <mxCell id="GzXCTbNvJSa9CegSDbhz-104" value="" style="rounded=0;whiteSpace=wrap;html=1;strokeColor=none;fillColor=#222222;fontColor=#ffffff;strokeWidth=0.1;fontSize=3;fontFamily=Teko Light;container=0;" parent="-N0VSSiV7TkP5NyyHV97-4" vertex="1">
          <mxGeometry x="145.29857142857145" y="9.227576744186052" width="12" height="5" as="geometry" />
        </mxCell>
        <mxCell id="GzXCTbNvJSa9CegSDbhz-105" value="" style="rounded=0;whiteSpace=wrap;html=1;strokeColor=none;fillColor=#000000;fontColor=#ffffff;strokeWidth=0.1;fontSize=3;fontFamily=Teko Light;container=0;" parent="-N0VSSiV7TkP5NyyHV97-4" vertex="1">
          <mxGeometry x="145.2971428571429" y="13.231074995060624" width="12" height="7" as="geometry" />
        </mxCell>
        <mxCell id="GzXCTbNvJSa9CegSDbhz-106" value="" style="rounded=0;whiteSpace=wrap;html=1;strokeColor=none;fillColor=#000000;fontColor=#ffffff;strokeWidth=0.1;fontSize=3;fontFamily=Teko Light;container=0;" parent="-N0VSSiV7TkP5NyyHV97-4" vertex="1">
          <mxGeometry x="148.8" y="10.22999999999999" width="5" height="4" as="geometry" />
        </mxCell>
        <mxCell id="GzXCTbNvJSa9CegSDbhz-107" value="" style="rounded=0;whiteSpace=wrap;html=1;strokeColor=none;fillColor=#60a917;fontColor=#ffffff;strokeWidth=0.1;fontSize=3;fontFamily=Teko Light;container=0;" parent="-N0VSSiV7TkP5NyyHV97-4" vertex="1">
          <mxGeometry x="145.3" y="10.72999999999999" width="3" height="2" as="geometry" />
        </mxCell>
        <mxCell id="GzXCTbNvJSa9CegSDbhz-108" value="" style="rounded=0;whiteSpace=wrap;html=1;strokeColor=none;fillColor=#e3c800;fontColor=#000000;strokeWidth=0.1;fontSize=3;fontFamily=Teko Light;container=0;" parent="-N0VSSiV7TkP5NyyHV97-4" vertex="1">
          <mxGeometry x="154.3" y="10.72999999999999" width="3" height="2" as="geometry" />
        </mxCell>
        <mxCell id="GzXCTbNvJSa9CegSDbhz-109" value="" style="rounded=0;whiteSpace=wrap;html=1;strokeColor=none;fillColor=#222222;fontColor=#ffffff;strokeWidth=0.1;fontSize=3;fontFamily=Teko Light;container=0;" parent="-N0VSSiV7TkP5NyyHV97-4" vertex="1">
          <mxGeometry x="132.29857142857145" y="9.227576744186052" width="12" height="5" as="geometry" />
        </mxCell>
        <mxCell id="GzXCTbNvJSa9CegSDbhz-110" value="" style="rounded=0;whiteSpace=wrap;html=1;strokeColor=none;fillColor=#000000;fontColor=#ffffff;strokeWidth=0.1;fontSize=3;fontFamily=Teko Light;container=0;" parent="-N0VSSiV7TkP5NyyHV97-4" vertex="1">
          <mxGeometry x="132.2971428571429" y="13.231074995060624" width="12" height="7" as="geometry" />
        </mxCell>
        <mxCell id="GzXCTbNvJSa9CegSDbhz-111" value="" style="rounded=0;whiteSpace=wrap;html=1;strokeColor=none;fillColor=#000000;fontColor=#ffffff;strokeWidth=0.1;fontSize=3;fontFamily=Teko Light;container=0;" parent="-N0VSSiV7TkP5NyyHV97-4" vertex="1">
          <mxGeometry x="135.8" y="10.22999999999999" width="5" height="4" as="geometry" />
        </mxCell>
        <mxCell id="GzXCTbNvJSa9CegSDbhz-112" value="" style="rounded=0;whiteSpace=wrap;html=1;strokeColor=none;fillColor=#60a917;fontColor=#ffffff;strokeWidth=0.1;fontSize=3;fontFamily=Teko Light;container=0;" parent="-N0VSSiV7TkP5NyyHV97-4" vertex="1">
          <mxGeometry x="132.3" y="10.72999999999999" width="3" height="2" as="geometry" />
        </mxCell>
        <mxCell id="GzXCTbNvJSa9CegSDbhz-113" value="" style="rounded=0;whiteSpace=wrap;html=1;strokeColor=none;fillColor=#e3c800;fontColor=#000000;strokeWidth=0.1;fontSize=3;fontFamily=Teko Light;container=0;" parent="-N0VSSiV7TkP5NyyHV97-4" vertex="1">
          <mxGeometry x="141.3" y="10.72999999999999" width="3" height="2" as="geometry" />
        </mxCell>
        <mxCell id="GzXCTbNvJSa9CegSDbhz-114" value="" style="rounded=0;whiteSpace=wrap;html=1;strokeColor=none;fillColor=#222222;fontColor=#ffffff;strokeWidth=0.1;fontSize=3;fontFamily=Teko Light;container=0;rotation=-180;" parent="-N0VSSiV7TkP5NyyHV97-4" vertex="1">
          <mxGeometry x="80.29714285714287" y="30.227576744186052" width="12" height="5" as="geometry" />
        </mxCell>
        <mxCell id="GzXCTbNvJSa9CegSDbhz-115" value="" style="rounded=0;whiteSpace=wrap;html=1;strokeColor=none;fillColor=#000000;fontColor=#ffffff;strokeWidth=0.1;fontSize=3;fontFamily=Teko Light;container=0;rotation=-180;" parent="-N0VSSiV7TkP5NyyHV97-4" vertex="1">
          <mxGeometry x="80.29714285714287" y="24.227576744186052" width="12" height="7" as="geometry" />
        </mxCell>
        <mxCell id="GzXCTbNvJSa9CegSDbhz-116" value="" style="rounded=0;whiteSpace=wrap;html=1;strokeColor=none;fillColor=#000000;fontColor=#ffffff;strokeWidth=0.1;fontSize=3;fontFamily=Teko Light;container=0;rotation=-180;" parent="-N0VSSiV7TkP5NyyHV97-4" vertex="1">
          <mxGeometry x="83.79714285714287" y="30.227576744186052" width="5" height="4" as="geometry" />
        </mxCell>
        <mxCell id="GzXCTbNvJSa9CegSDbhz-117" value="" style="rounded=0;whiteSpace=wrap;html=1;strokeColor=none;fillColor=#60a917;fontColor=#ffffff;strokeWidth=0.1;fontSize=3;fontFamily=Teko Light;container=0;rotation=-180;" parent="-N0VSSiV7TkP5NyyHV97-4" vertex="1">
          <mxGeometry x="89.29714285714287" y="32.22757674418605" width="3" height="2" as="geometry" />
        </mxCell>
        <mxCell id="GzXCTbNvJSa9CegSDbhz-118" value="" style="rounded=0;whiteSpace=wrap;html=1;strokeColor=none;fillColor=#e3c800;fontColor=#000000;strokeWidth=0.1;fontSize=3;fontFamily=Teko Light;container=0;rotation=-180;" parent="-N0VSSiV7TkP5NyyHV97-4" vertex="1">
          <mxGeometry x="80.29714285714287" y="32.22757674418605" width="3" height="2" as="geometry" />
        </mxCell>
        <mxCell id="GzXCTbNvJSa9CegSDbhz-119" value="" style="rounded=0;whiteSpace=wrap;html=1;strokeColor=none;fillColor=#222222;fontColor=#ffffff;strokeWidth=0.1;fontSize=3;fontFamily=Teko Light;container=0;rotation=-180;" parent="-N0VSSiV7TkP5NyyHV97-4" vertex="1">
          <mxGeometry x="93.3" y="30.22999999999999" width="12" height="5" as="geometry" />
        </mxCell>
        <mxCell id="GzXCTbNvJSa9CegSDbhz-120" value="" style="rounded=0;whiteSpace=wrap;html=1;strokeColor=none;fillColor=#000000;fontColor=#ffffff;strokeWidth=0.1;fontSize=3;fontFamily=Teko Light;container=0;rotation=-180;" parent="-N0VSSiV7TkP5NyyHV97-4" vertex="1">
          <mxGeometry x="93.3" y="24.22999999999999" width="12" height="7" as="geometry" />
        </mxCell>
        <mxCell id="GzXCTbNvJSa9CegSDbhz-121" value="" style="rounded=0;whiteSpace=wrap;html=1;strokeColor=none;fillColor=#000000;fontColor=#ffffff;strokeWidth=0.1;fontSize=3;fontFamily=Teko Light;container=0;rotation=-180;" parent="-N0VSSiV7TkP5NyyHV97-4" vertex="1">
          <mxGeometry x="96.8" y="30.22999999999999" width="5" height="4" as="geometry" />
        </mxCell>
        <mxCell id="GzXCTbNvJSa9CegSDbhz-122" value="" style="rounded=0;whiteSpace=wrap;html=1;strokeColor=none;fillColor=#60a917;fontColor=#ffffff;strokeWidth=0.1;fontSize=3;fontFamily=Teko Light;container=0;rotation=-180;" parent="-N0VSSiV7TkP5NyyHV97-4" vertex="1">
          <mxGeometry x="102.3" y="32.22999999999999" width="3" height="2" as="geometry" />
        </mxCell>
        <mxCell id="GzXCTbNvJSa9CegSDbhz-123" value="" style="rounded=0;whiteSpace=wrap;html=1;strokeColor=none;fillColor=#e3c800;fontColor=#000000;strokeWidth=0.1;fontSize=3;fontFamily=Teko Light;container=0;rotation=-180;" parent="-N0VSSiV7TkP5NyyHV97-4" vertex="1">
          <mxGeometry x="93.3" y="32.22999999999999" width="3" height="2" as="geometry" />
        </mxCell>
        <mxCell id="GzXCTbNvJSa9CegSDbhz-124" value="" style="rounded=0;whiteSpace=wrap;html=1;strokeColor=none;fillColor=#222222;fontColor=#ffffff;strokeWidth=0.1;fontSize=3;fontFamily=Teko Light;container=0;rotation=-180;" parent="-N0VSSiV7TkP5NyyHV97-4" vertex="1">
          <mxGeometry x="119.30000000000001" y="30.22999999999999" width="12" height="5" as="geometry" />
        </mxCell>
        <mxCell id="GzXCTbNvJSa9CegSDbhz-125" value="" style="rounded=0;whiteSpace=wrap;html=1;strokeColor=none;fillColor=#000000;fontColor=#ffffff;strokeWidth=0.1;fontSize=3;fontFamily=Teko Light;container=0;rotation=-180;" parent="-N0VSSiV7TkP5NyyHV97-4" vertex="1">
          <mxGeometry x="119.30000000000001" y="24.22999999999999" width="12" height="7" as="geometry" />
        </mxCell>
        <mxCell id="GzXCTbNvJSa9CegSDbhz-126" value="" style="rounded=0;whiteSpace=wrap;html=1;strokeColor=none;fillColor=#000000;fontColor=#ffffff;strokeWidth=0.1;fontSize=3;fontFamily=Teko Light;container=0;rotation=-180;" parent="-N0VSSiV7TkP5NyyHV97-4" vertex="1">
          <mxGeometry x="122.80000000000001" y="30.22999999999999" width="5" height="4" as="geometry" />
        </mxCell>
        <mxCell id="GzXCTbNvJSa9CegSDbhz-127" value="" style="rounded=0;whiteSpace=wrap;html=1;strokeColor=none;fillColor=#60a917;fontColor=#ffffff;strokeWidth=0.1;fontSize=3;fontFamily=Teko Light;container=0;rotation=-180;" parent="-N0VSSiV7TkP5NyyHV97-4" vertex="1">
          <mxGeometry x="128.3" y="32.22999999999999" width="3" height="2" as="geometry" />
        </mxCell>
        <mxCell id="GzXCTbNvJSa9CegSDbhz-128" value="" style="rounded=0;whiteSpace=wrap;html=1;strokeColor=none;fillColor=#e3c800;fontColor=#000000;strokeWidth=0.1;fontSize=3;fontFamily=Teko Light;container=0;rotation=-180;" parent="-N0VSSiV7TkP5NyyHV97-4" vertex="1">
          <mxGeometry x="119.30000000000001" y="32.22999999999999" width="3" height="2" as="geometry" />
        </mxCell>
        <mxCell id="GzXCTbNvJSa9CegSDbhz-129" value="" style="rounded=0;whiteSpace=wrap;html=1;strokeColor=none;fillColor=#222222;fontColor=#ffffff;strokeWidth=0.1;fontSize=3;fontFamily=Teko Light;container=0;rotation=-180;" parent="-N0VSSiV7TkP5NyyHV97-4" vertex="1">
          <mxGeometry x="145.2971428571429" y="30.22999999999999" width="12" height="5" as="geometry" />
        </mxCell>
        <mxCell id="GzXCTbNvJSa9CegSDbhz-130" value="" style="rounded=0;whiteSpace=wrap;html=1;strokeColor=none;fillColor=#000000;fontColor=#ffffff;strokeWidth=0.1;fontSize=3;fontFamily=Teko Light;container=0;rotation=-180;" parent="-N0VSSiV7TkP5NyyHV97-4" vertex="1">
          <mxGeometry x="145.2971428571429" y="24.22999999999999" width="12" height="7" as="geometry" />
        </mxCell>
        <mxCell id="GzXCTbNvJSa9CegSDbhz-131" value="" style="rounded=0;whiteSpace=wrap;html=1;strokeColor=none;fillColor=#000000;fontColor=#ffffff;strokeWidth=0.1;fontSize=3;fontFamily=Teko Light;container=0;rotation=-180;" parent="-N0VSSiV7TkP5NyyHV97-4" vertex="1">
          <mxGeometry x="148.7971428571429" y="30.22999999999999" width="5" height="4" as="geometry" />
        </mxCell>
        <mxCell id="GzXCTbNvJSa9CegSDbhz-132" value="" style="rounded=0;whiteSpace=wrap;html=1;strokeColor=none;fillColor=#60a917;fontColor=#ffffff;strokeWidth=0.1;fontSize=3;fontFamily=Teko Light;container=0;rotation=-180;" parent="-N0VSSiV7TkP5NyyHV97-4" vertex="1">
          <mxGeometry x="154.2971428571429" y="32.22999999999999" width="3" height="2" as="geometry" />
        </mxCell>
        <mxCell id="GzXCTbNvJSa9CegSDbhz-133" value="" style="rounded=0;whiteSpace=wrap;html=1;strokeColor=none;fillColor=#e3c800;fontColor=#000000;strokeWidth=0.1;fontSize=3;fontFamily=Teko Light;container=0;rotation=-180;" parent="-N0VSSiV7TkP5NyyHV97-4" vertex="1">
          <mxGeometry x="145.2971428571429" y="32.22999999999999" width="3" height="2" as="geometry" />
        </mxCell>
        <mxCell id="GzXCTbNvJSa9CegSDbhz-134" value="" style="rounded=0;whiteSpace=wrap;html=1;strokeColor=none;fillColor=#222222;fontColor=#ffffff;strokeWidth=0.1;fontSize=3;fontFamily=Teko Light;container=0;rotation=-180;" parent="-N0VSSiV7TkP5NyyHV97-4" vertex="1">
          <mxGeometry x="132.3" y="30.22999999999999" width="12" height="5" as="geometry" />
        </mxCell>
        <mxCell id="GzXCTbNvJSa9CegSDbhz-135" value="" style="rounded=0;whiteSpace=wrap;html=1;strokeColor=none;fillColor=#000000;fontColor=#ffffff;strokeWidth=0.1;fontSize=3;fontFamily=Teko Light;container=0;rotation=-180;" parent="-N0VSSiV7TkP5NyyHV97-4" vertex="1">
          <mxGeometry x="132.3" y="24.22999999999999" width="12" height="7" as="geometry" />
        </mxCell>
        <mxCell id="GzXCTbNvJSa9CegSDbhz-136" value="" style="rounded=0;whiteSpace=wrap;html=1;strokeColor=none;fillColor=#000000;fontColor=#ffffff;strokeWidth=0.1;fontSize=3;fontFamily=Teko Light;container=0;rotation=-180;" parent="-N0VSSiV7TkP5NyyHV97-4" vertex="1">
          <mxGeometry x="135.8" y="30.22999999999999" width="5" height="4" as="geometry" />
        </mxCell>
        <mxCell id="GzXCTbNvJSa9CegSDbhz-137" value="" style="rounded=0;whiteSpace=wrap;html=1;strokeColor=none;fillColor=#60a917;fontColor=#ffffff;strokeWidth=0.1;fontSize=3;fontFamily=Teko Light;container=0;rotation=-180;" parent="-N0VSSiV7TkP5NyyHV97-4" vertex="1">
          <mxGeometry x="141.3" y="32.22999999999999" width="3" height="2" as="geometry" />
        </mxCell>
        <mxCell id="GzXCTbNvJSa9CegSDbhz-138" value="" style="rounded=0;whiteSpace=wrap;html=1;strokeColor=none;fillColor=#e3c800;fontColor=#000000;strokeWidth=0.1;fontSize=3;fontFamily=Teko Light;container=0;rotation=-180;" parent="-N0VSSiV7TkP5NyyHV97-4" vertex="1">
          <mxGeometry x="132.3" y="32.22999999999999" width="3" height="2" as="geometry" />
        </mxCell>
        <mxCell id="dPUykWXNvH8D_2w4ptwh-297" value="" style="rounded=0;whiteSpace=wrap;html=1;strokeColor=#000000;fillColor=#BFBFBF;fontColor=#ffffff;strokeWidth=0.1;container=0;align=center;verticalAlign=middle;fontFamily=Teko Light;fontSize=3;" parent="-N0VSSiV7TkP5NyyHV97-4" vertex="1">
          <mxGeometry x="427.3" y="8.22999999999999" width="15" height="28" as="geometry" />
        </mxCell>
        <mxCell id="dPUykWXNvH8D_2w4ptwh-299" value="" style="rounded=0;whiteSpace=wrap;html=1;strokeColor=#AAAAAA;fillColor=#000000;fontColor=#ffffff;strokeWidth=0.1;container=0;" parent="-N0VSSiV7TkP5NyyHV97-4" vertex="1">
          <mxGeometry x="427.8" y="25.72999999999999" width="14" height="10" as="geometry" />
        </mxCell>
        <mxCell id="dPUykWXNvH8D_2w4ptwh-300" value="" style="rounded=0;whiteSpace=wrap;html=1;strokeColor=#AAAAAA;fillColor=#000000;fontColor=#ffffff;strokeWidth=0.1;container=0;" parent="-N0VSSiV7TkP5NyyHV97-4" vertex="1">
          <mxGeometry x="427.8" y="8.72999999999999" width="14" height="10" as="geometry" />
        </mxCell>
        <mxCell id="dPUykWXNvH8D_2w4ptwh-301" value="" style="rounded=0;whiteSpace=wrap;html=1;strokeColor=#111111;fillColor=#BFBFBF;fontColor=#ffffff;strokeWidth=0.1;container=0;" parent="-N0VSSiV7TkP5NyyHV97-4" vertex="1">
          <mxGeometry x="432.3" y="25.22999999999999" width="5" height="1.2" as="geometry" />
        </mxCell>
        <mxCell id="dPUykWXNvH8D_2w4ptwh-302" value="" style="rounded=0;whiteSpace=wrap;html=1;strokeColor=#111111;fillColor=#BFBFBF;fontColor=#ffffff;strokeWidth=0.1;container=0;" parent="-N0VSSiV7TkP5NyyHV97-4" vertex="1">
          <mxGeometry x="432.3" y="18.029999999999987" width="5" height="1.2" as="geometry" />
        </mxCell>
        <mxCell id="dPUykWXNvH8D_2w4ptwh-272" value="" style="triangle;whiteSpace=wrap;html=1;fillColor=#60a917;fontColor=#ffffff;strokeColor=none;rotation=90;container=0;" parent="-N0VSSiV7TkP5NyyHV97-4" vertex="1">
          <mxGeometry x="437.43" y="20.72999999999999" width="3" height="3.000000000000001" as="geometry" />
        </mxCell>
        <mxCell id="dPUykWXNvH8D_2w4ptwh-273" value="" style="triangle;whiteSpace=wrap;html=1;fillColor=#60a917;fontColor=#ffffff;strokeColor=none;rotation=-90;container=0;" parent="-N0VSSiV7TkP5NyyHV97-4" vertex="1">
          <mxGeometry x="428.8" y="20.72999999999999" width="3" height="3.000000000000001" as="geometry" />
        </mxCell>
        <mxCell id="MtSG6ACcAR7KRbJX7F2m-1" value="" style="triangle;whiteSpace=wrap;html=1;fillColor=#f0f0f0;fontColor=#ffffff;strokeColor=default;rotation=90;container=0;strokeWidth=0.2;" parent="-N0VSSiV7TkP5NyyHV97-4" vertex="1">
          <mxGeometry x="450.3" y="24" width="2" height="3" as="geometry" />
        </mxCell>
        <mxCell id="MtSG6ACcAR7KRbJX7F2m-2" value="" style="triangle;whiteSpace=wrap;html=1;fillColor=#f0f0f0;fontColor=#ffffff;strokeColor=default;rotation=-90;container=0;strokeWidth=0.2;" parent="-N0VSSiV7TkP5NyyHV97-4" vertex="1">
          <mxGeometry x="447.3" y="24" width="2" height="3" as="geometry" />
        </mxCell>
        <mxCell id="MtSG6ACcAR7KRbJX7F2m-3" value="10G" style="text;html=1;align=left;verticalAlign=middle;whiteSpace=wrap;rounded=0;fontSize=2;container=0;fontColor=#000000;" parent="-N0VSSiV7TkP5NyyHV97-4" vertex="1">
          <mxGeometry x="452.3" y="24.5" width="10" height="2" as="geometry" />
        </mxCell>
        <mxCell id="-N0VSSiV7TkP5NyyHV97-3" value="" style="group" parent="-N0VSSiV7TkP5NyyHV97-4" vertex="1" connectable="0">
          <mxGeometry x="26.22" y="8.22" width="28.000000000000004" height="28.000000000000004" as="geometry" />
        </mxCell>
        <mxCell id="-N0VSSiV7TkP5NyyHV97-1" value="" style="rounded=1;whiteSpace=wrap;html=1;fillColor=#E5E5E5;strokeColor=#4E95BE;glass=0;container=0;arcSize=8;gradientColor=#D5D5D5;gradientDirection=north;" parent="-N0VSSiV7TkP5NyyHV97-3" vertex="1">
          <mxGeometry width="28" height="28" as="geometry" />
        </mxCell>
        <mxCell id="-N0VSSiV7TkP5NyyHV97-2" value="" style="shape=image;verticalLabelPosition=bottom;labelBackgroundColor=default;verticalAlign=top;aspect=fixed;imageAspect=0;image=data:image/svg+xml,PHN2ZyB4bWxuczp4bGluaz0iaHR0cDovL3d3dy53My5vcmcvMTk5OS94bGluayIgeG1sbnM9Imh0dHA6Ly93d3cudzMub3JnLzIwMDAvc3ZnIiBzdHlsZT0iZmlsbC1ydWxlOmV2ZW5vZGQ7Y2xpcC1ydWxlOmV2ZW5vZGQ7c3Ryb2tlLWxpbmVqb2luOnJvdW5kO3N0cm9rZS1taXRlcmxpbWl0OjI7IiB4bWw6c3BhY2U9InByZXNlcnZlIiB2ZXJzaW9uPSIxLjEiIHZpZXdCb3g9IjAgMCA4MDAgODAwIiBoZWlnaHQ9IjEwMCUiIHdpZHRoPSIxMDAlIj4mI3hhOyAgICA8cGF0aCBzdHlsZT0iZmlsbDpyZ2IoMTk3LDE5NywxOTcpO2ZpbGwtcnVsZTpub256ZXJvOyIgZD0iTTE3Ny43LDEzMi45TDEzMy43MzMsMTMyLjlMMTMzLjczMyw4OC45TDE3Ny43MzMsODguOUwxNzcuNywxMzIuOVpNNDMxLjIsNjY2LjI2N0MzNzEuODY3LDY2My42IDMyNi4yLDY0OC41MzMgMjkwLjg2Nyw2MjYuNzY3QzMxNC44LDczMC43IDQwNC4zNjcsNzgxLjc2NyA0MDguNyw3ODQuMkw0MzUuMSw3OTguNzY3QzYzNy4yLDc4NS4yNjcgNzU1LjQ2Nyw2NTQuODMzIDc1NS40NjcsNDg0LjIzM0w3NTUuNDY3LDQ0Ny4yNjdDNzA3LjQzMyw2MDMuOTMzIDU5NS42MzMsNjczLjcgNDMxLjIsNjY2LjI2N00xMzMuNTMzLDMyMC4xNjdMMTc3LjkzMywzMjAuMTY3TDE3Ny45MzMsNDE4LjE2N0wyMjIuNDY3LDQxOC4xNjdMMjIyLjQ2NywyNTQuMjMzTDI2NywyNTQuMjMzTDI2Nyw1NzQuNjMzQzI2Ni45NjcsNzI2LjY2NyA0MDAsODAwIDQwMCw4MDBDMTc2LjUsODAwIDQ0LjUzMyw2NjQuNSA0NC41MzMsNDg0LjIzM0w0NC41MzMsMTIxLjY2N0w4OSwxMjEuNjY3TDg5LDM2NC4xMzNMMTMzLjUzMywzNjQuMTMzTDEzMy41MzMsMzIwLjE2N1pNODksNDQuNDY3TDQ0LjUzMyw0NC40NjdMNDQuNTMzLDBMODksMEw4OSw0NC40NjdaTTE3Ny43LDI3Ni4yMzNMMTMzLjcsMjc2LjIzM0wxMzMuNywyMzIuMjMzTDE3Ny43LDIzMi4yMzNMMTc3LjcsMjc2LjIzM1pNMjIyLjE2NywyMTAuMjMzTDE3OC4xNjcsMjEwLjIzM0wxNzguMTY3LDE2Ni4yMzNMMjIyLjE2NywxNjYuMjMzTDIyMi4xNjcsMjEwLjIzM1pNMjY2LjkzMywxNTQuOUwyMjIuNDY3LDE1NC45TDIyMi40NjcsMTEwLjlMMjY2Ljk2NywxMTAuOUwyNjYuOTMzLDE1NC45Wk0yMjIuNDY3LDg4LjQ2N0wxNzcuOTMzLDg4LjQ2N0wxNzcuOTMzLDQ0LjQ2N0wyMjIuNDY3LDQ0LjQ2N0wyMjIuNDY3LDg4LjQ2N1pNNzM4LjIzMyw0NDJMNzU1LjQ2NywzODUuNzMzTDc1NS40NjcsMC41QzU1My45NjcsMC41IDUzMyw3Ny43MzMgNTMzLDE1MS41MzNMNTMzLDU3NC42NjdDNTMzLDU5Ni41NjcgNTMwLjg2Nyw2MTkuOCA1MjYuNDMzLDY0Mi41NjdDNjMzLjI2Nyw2MjMuMTMzIDcwMi45NjcsNTU3LjA2NyA3MzguMjMzLDQ0Mi4wMzNMNzM4LjIzMyw0NDJaIi8+JiN4YTs8L3N2Zz4=;imageBorder=none;" parent="-N0VSSiV7TkP5NyyHV97-3" vertex="1">
          <mxGeometry x="9.000000000000004" y="8.989999999999998" width="10" height="10" as="geometry" />
        </mxCell>
        <mxCell id="dPUykWXNvH8D_2w4ptwh-307" value="" style="rounded=0;whiteSpace=wrap;html=1;strokeWidth=0.2;fillColor=none;container=0;fontColor=default;strokeColor=#000000;" parent="-N0VSSiV7TkP5NyyHV97-4" vertex="1">
          <mxGeometry x="62.30000000000001" y="30" width="4" height="2" as="geometry" />
        </mxCell>
        <mxCell id="dPUykWXNvH8D_2w4ptwh-308" value="" style="rounded=0;whiteSpace=wrap;html=1;strokeWidth=0.2;fillColor=#E3C800;container=0;fontColor=default;strokeColor=#000000;" parent="-N0VSSiV7TkP5NyyHV97-4" vertex="1">
          <mxGeometry x="62.30000000000001" y="33" width="4" height="2" as="geometry" />
        </mxCell>
        <mxCell id="dPUykWXNvH8D_2w4ptwh-309" value="" style="rounded=0;whiteSpace=wrap;html=1;strokeWidth=0.2;fillColor=#60A917;container=0;fontColor=default;strokeColor=#000000;" parent="-N0VSSiV7TkP5NyyHV97-4" vertex="1">
          <mxGeometry x="62.30000000000001" y="36" width="4" height="2" as="geometry" />
        </mxCell>
        <mxCell id="dPUykWXNvH8D_2w4ptwh-310" value="DOWN" style="text;html=1;align=left;verticalAlign=middle;whiteSpace=wrap;rounded=0;fontSize=2;container=0;fontColor=#000000;" parent="-N0VSSiV7TkP5NyyHV97-4" vertex="1">
          <mxGeometry x="66.30000000000001" y="30" width="10" height="2" as="geometry" />
        </mxCell>
        <mxCell id="dPUykWXNvH8D_2w4ptwh-311" value="10 / 100" style="text;html=1;align=left;verticalAlign=middle;whiteSpace=wrap;rounded=0;fontSize=2;container=0;fontColor=#000000;" parent="-N0VSSiV7TkP5NyyHV97-4" vertex="1">
          <mxGeometry x="66.30000000000001" y="33" width="10" height="2" as="geometry" />
        </mxCell>
        <mxCell id="dPUykWXNvH8D_2w4ptwh-312" value="1000" style="text;html=1;align=left;verticalAlign=middle;whiteSpace=wrap;rounded=0;fontSize=2;container=0;fontColor=#000000;" parent="-N0VSSiV7TkP5NyyHV97-4" vertex="1">
          <mxGeometry x="66.30000000000001" y="36" width="10" height="2" as="geometry" />
        </mxCell>
        <mxCell id="dPUykWXNvH8D_2w4ptwh-313" value="LINK" style="text;html=1;align=center;verticalAlign=middle;whiteSpace=wrap;rounded=0;fontSize=2;container=0;strokeColor=none;fontColor=#000000;" parent="-N0VSSiV7TkP5NyyHV97-4" vertex="1">
          <mxGeometry x="62.44999999999999" y="27.230000000000004" width="5.7" height="2" as="geometry" />
        </mxCell>
        <mxCell id="dPUykWXNvH8D_2w4ptwh-314" value="" style="rounded=0;whiteSpace=wrap;html=1;strokeWidth=0.2;fillColor=none;container=0;strokeColor=#000000;" parent="-N0VSSiV7TkP5NyyHV97-4" vertex="1">
          <mxGeometry x="62.30000000000001" y="24" width="6" height="3" as="geometry" />
        </mxCell>
        <mxCell id="dPUykWXNvH8D_2w4ptwh-315" value="" style="rounded=0;whiteSpace=wrap;html=1;strokeWidth=0.2;fillColor=none;strokeColor=#000000;container=0;" parent="-N0VSSiV7TkP5NyyHV97-4" vertex="1">
          <mxGeometry x="64.30000000000001" y="23" width="2" height="1" as="geometry" />
        </mxCell>
        <mxCell id="dPUykWXNvH8D_2w4ptwh-316" value="" style="rounded=0;whiteSpace=wrap;html=1;strokeWidth=0.2;fillColor=#000000;container=0;strokeColor=#000000;" parent="-N0VSSiV7TkP5NyyHV97-4" vertex="1">
          <mxGeometry x="66.30000000000001" y="24" width="2" height="1" as="geometry" />
        </mxCell>
        <mxCell id="-yAlFb7KCkEIzrVSzBbF-1" value="" style="rounded=0;whiteSpace=wrap;html=1;strokeWidth=0.2;fillColor=none;container=0;fontColor=#000000;strokeColor=#000000;" vertex="1" parent="-N0VSSiV7TkP5NyyHV97-4">
          <mxGeometry x="62.30000000000001" y="14" width="4" height="2" as="geometry" />
        </mxCell>
        <mxCell id="-yAlFb7KCkEIzrVSzBbF-2" value="" style="rounded=0;whiteSpace=wrap;html=1;strokeWidth=0.2;fillColor=#E3C800;container=0;fontColor=#000000;strokeColor=#000000;" vertex="1" parent="-N0VSSiV7TkP5NyyHV97-4">
          <mxGeometry x="62.30000000000001" y="17" width="4" height="2" as="geometry" />
        </mxCell>
        <mxCell id="-yAlFb7KCkEIzrVSzBbF-3" value="" style="rounded=0;whiteSpace=wrap;html=1;strokeWidth=0.2;fillColor=#60A917;container=0;fontColor=#000000;strokeColor=#000000;" vertex="1" parent="-N0VSSiV7TkP5NyyHV97-4">
          <mxGeometry x="62.30000000000001" y="20" width="4" height="2" as="geometry" />
        </mxCell>
        <mxCell id="-yAlFb7KCkEIzrVSzBbF-4" value="OFF" style="text;html=1;align=left;verticalAlign=middle;whiteSpace=wrap;rounded=0;fontSize=2;container=0;fontColor=#000000;" vertex="1" parent="-N0VSSiV7TkP5NyyHV97-4">
          <mxGeometry x="66.30000000000001" y="14" width="10" height="2" as="geometry" />
        </mxCell>
        <mxCell id="-yAlFb7KCkEIzrVSzBbF-5" value="POE+" style="text;html=1;align=left;verticalAlign=middle;whiteSpace=wrap;rounded=0;fontSize=2;container=0;fontColor=#000000;" vertex="1" parent="-N0VSSiV7TkP5NyyHV97-4">
          <mxGeometry x="66.30000000000001" y="17" width="10" height="2" as="geometry" />
        </mxCell>
        <mxCell id="-yAlFb7KCkEIzrVSzBbF-6" value="24V" style="text;html=1;align=left;verticalAlign=middle;whiteSpace=wrap;rounded=0;fontSize=2;container=0;fontColor=#000000;" vertex="1" parent="-N0VSSiV7TkP5NyyHV97-4">
          <mxGeometry x="66.30000000000001" y="20" width="10" height="2" as="geometry" />
        </mxCell>
        <mxCell id="-yAlFb7KCkEIzrVSzBbF-7" value="POE" style="text;html=1;align=center;verticalAlign=middle;whiteSpace=wrap;rounded=0;fontSize=2;container=0;fontColor=#000000;" vertex="1" parent="-N0VSSiV7TkP5NyyHV97-4">
          <mxGeometry x="62.44999999999999" y="11.230000000000004" width="5.7" height="2" as="geometry" />
        </mxCell>
        <mxCell id="-yAlFb7KCkEIzrVSzBbF-8" value="" style="rounded=0;whiteSpace=wrap;html=1;strokeWidth=0.2;fillColor=none;container=0;fontColor=#000000;strokeColor=#000000;" vertex="1" parent="-N0VSSiV7TkP5NyyHV97-4">
          <mxGeometry x="62.30000000000001" y="8" width="6" height="3" as="geometry" />
        </mxCell>
        <mxCell id="-yAlFb7KCkEIzrVSzBbF-9" value="" style="rounded=0;whiteSpace=wrap;html=1;strokeWidth=0.2;fillColor=none;strokeColor=#000000;container=0;fontColor=#000000;" vertex="1" parent="-N0VSSiV7TkP5NyyHV97-4">
          <mxGeometry x="64.30000000000001" y="7" width="2" height="1" as="geometry" />
        </mxCell>
        <mxCell id="-yAlFb7KCkEIzrVSzBbF-10" value="" style="rounded=0;whiteSpace=wrap;html=1;strokeWidth=0.2;fillColor=#000000;container=0;fontColor=#000000;strokeColor=#000000;" vertex="1" parent="-N0VSSiV7TkP5NyyHV97-4">
          <mxGeometry x="62.30000000000001" y="8" width="2" height="1" as="geometry" />
        </mxCell>
      </root>
    </mxGraphModel>
  </diagram>
</mxfile>
